<svg id="Layer_1" data-name="Layer 1" xmlns="http://www.w3.org/2000/svg" viewBox="0 0 262.37 40.49"><defs><style>.cls-1{fill:#010202;}</style></defs><title>krajobraz_nieodlegla_logo</title><path class="cls-1" d="M302.5,285.38h-.06a8.89,8.89,0,0,0-6.36,2.36v-.57a1.42,1.42,0,0,0-.39-1,1.39,1.39,0,0,0-1-.4l-3.4,0a1.42,1.42,0,0,0-1,.38,1.36,1.36,0,0,0-.43,1l-.09,19.34a1.42,1.42,0,0,0,1.41,1.42l3.65,0h0a1.35,1.35,0,0,0,1-.42,1.42,1.42,0,0,0,.39-1l.05-11.27a4.77,4.77,0,0,1,1.17-3.38,3.94,3.94,0,0,1,3-1.2h0a3.76,3.76,0,0,1,3,1.2,5,5,0,0,1,1,3.43l-.05,11.27a1.42,1.42,0,0,0,1.41,1.42l3.69,0h0a1.35,1.35,0,0,0,1-.42,1.42,1.42,0,0,0,.39-1l.05-11.51a10.22,10.22,0,0,0-2.29-7.06A8.09,8.09,0,0,0,302.5,285.38Z" transform="translate(-289.76 -277.39)"/><path class="cls-1" d="M323.44,285.89l-3.48,0h0a1.43,1.43,0,0,0-1,.38,1.36,1.36,0,0,0-.43,1l-.09,19.34a1.42,1.42,0,0,0,1.41,1.42l3.49,0a1.42,1.42,0,0,0,1.42-1.41l.09-19.34a1.41,1.41,0,0,0-.41-1A1.39,1.39,0,0,0,323.44,285.89Z" transform="translate(-289.76 -277.39)"/><path class="cls-1" d="M323.6,277.41l-3.77,0h0a1.36,1.36,0,0,0-1,.41,1.43,1.43,0,0,0-.42,1v3a1.42,1.42,0,0,0,1.41,1.42l3.77,0h0a1.45,1.45,0,0,0,1-.4,1.36,1.36,0,0,0,.45-1v-3a1.42,1.42,0,0,0-1.45-1.46Z" transform="translate(-289.76 -277.39)"/><path class="cls-1" d="M342.08,285.57H342a10,10,0,0,0-7.7,3.06c-1.87,2-2.82,4.84-2.84,8.37l0,1c.1,3.33,1.08,5.94,2.94,7.77a10.41,10.41,0,0,0,7.56,2.78h.07a12.54,12.54,0,0,0,5.15-1,10.13,10.13,0,0,0,3.5-2.41,4.17,4.17,0,0,0,1.29-2.6,1.12,1.12,0,0,0-.43-.92,1.42,1.42,0,0,0-.9-.3l-3.61,0h0a2,2,0,0,0-.87.15,2.6,2.6,0,0,0-.72.67,4.16,4.16,0,0,1-3.45,1.7h0a3.43,3.43,0,0,1-2.87-1.34,5.9,5.9,0,0,1-1.14-3.42l13.16.06h0a1.43,1.43,0,0,0,1-.41,1.39,1.39,0,0,0,.41-1v-.86a11.82,11.82,0,0,0-2.71-8.17A10,10,0,0,0,342.08,285.57Zm-3,5.92a3.55,3.55,0,0,1,2.92-1.28h0a3.62,3.62,0,0,1,3,1.31,5.27,5.27,0,0,1,1.09,3.24l-8.09,0A5.35,5.35,0,0,1,339.11,291.49Z" transform="translate(-289.76 -277.39)"/><path class="cls-1" d="M384.07,305.1,360,305h0a1.43,1.43,0,0,0-1,.38,1.38,1.38,0,0,0-.43,1v2.75a1.38,1.38,0,0,0,.42,1,1.41,1.41,0,0,0,1,.39l24.05.11h0a1.45,1.45,0,0,0,1-.41,1.39,1.39,0,0,0,.42-1v-2.75a1.39,1.39,0,0,0-.41-1A1.45,1.45,0,0,0,384.07,305.1Z" transform="translate(-289.76 -277.39)"/><path class="cls-1" d="M410.22,288.48h0a10.88,10.88,0,0,0-7.66-2.63h-.09a10.88,10.88,0,0,0-7.64,2.56,9.92,9.92,0,0,0-3,7.07l0,1.82,0,1.81a10,10,0,0,0,2.93,7.11c1.81,1.72,4.42,2.6,7.74,2.61h.09c3.25,0,5.82-.85,7.63-2.54a10,10,0,0,0,3-7.07c0-.33,0-.95,0-1.84s0-1.51,0-1.82A9.93,9.93,0,0,0,410.22,288.48Zm-11.9,7.26a5.89,5.89,0,0,1,1.18-3.72,3.75,3.75,0,0,1,3-1.21h0a3.72,3.72,0,0,1,3,1.24,6,6,0,0,1,1.15,3.76c0,.25,0,.76,0,1.56,0,.95,0,1.37,0,1.55v0a5.86,5.86,0,0,1-1.17,3.7,3.7,3.7,0,0,1-3,1.19h0a3.79,3.79,0,0,1-3-1.22,5.78,5.78,0,0,1-1.15-3.71l0-1.57Z" transform="translate(-289.76 -277.39)"/><path class="cls-1" d="M439.22,278.64l-3.56,0h0a1.39,1.39,0,0,0-1,.38,1.34,1.34,0,0,0-.43,1l0,8a8.45,8.45,0,0,0-5.82-2.1h-.06a8.25,8.25,0,0,0-6.66,2.81,11.81,11.81,0,0,0-2.53,7.28l0,1.38,0,1.36a12,12,0,0,0,2.48,7.34,8.26,8.26,0,0,0,6.67,2.83h.06a8.41,8.41,0,0,0,6-2.18v.38a1.38,1.38,0,0,0,.41,1,1.37,1.37,0,0,0,1,.42l3.32,0h0a1.35,1.35,0,0,0,1-.42,1.42,1.42,0,0,0,.39-1l.13-27.13a1.41,1.41,0,0,0-.39-1A1.39,1.39,0,0,0,439.22,278.64Zm-5,18.73c0,.69,0,1.2,0,1.52v0a6.19,6.19,0,0,1-1.18,3.46,3.6,3.6,0,0,1-3.09,1.31h0c-2.68,0-4.06-1.65-4.22-5l0-1.2,0-1.22c.19-3.35,1.58-5,4.23-5h0a3.77,3.77,0,0,1,3.1,1.29,5.19,5.19,0,0,1,1.16,3.25C434.18,296.13,434.19,296.65,434.19,297.37Z" transform="translate(-289.76 -277.39)"/><path class="cls-1" d="M453.19,278.7l-3.44,0h0a1.39,1.39,0,0,0-1,.38,1.34,1.34,0,0,0-.43,1l-.13,27.13a1.42,1.42,0,0,0,1.41,1.42l3.44,0h0a1.35,1.35,0,0,0,1-.42,1.42,1.42,0,0,0,.39-1l.13-27.13a1.41,1.41,0,0,0-.39-1A1.39,1.39,0,0,0,453.19,278.7Z" transform="translate(-289.76 -277.39)"/><path class="cls-1" d="M471.84,286.16h-.07a10,10,0,0,0-7.7,3.06c-1.87,2-2.82,4.84-2.84,8.37l0,1a10.92,10.92,0,0,0,2.94,7.77,10.41,10.41,0,0,0,7.56,2.78h.07a12.56,12.56,0,0,0,5.15-1,10.17,10.17,0,0,0,3.5-2.41,4.17,4.17,0,0,0,1.29-2.6,1.11,1.11,0,0,0-.43-.92,1.45,1.45,0,0,0-.9-.3l-3.61,0h0a2,2,0,0,0-.87.14,2.48,2.48,0,0,0-.72.67,4.18,4.18,0,0,1-3.45,1.7h0a3.43,3.43,0,0,1-2.87-1.34,5.9,5.9,0,0,1-1.14-3.42l13.17.06a1.44,1.44,0,0,0,1-.41,1.39,1.39,0,0,0,.41-1v-.86a11.82,11.82,0,0,0-2.71-8.17A10,10,0,0,0,471.84,286.16Zm-3,5.92a3.55,3.55,0,0,1,2.92-1.28h0a3.62,3.62,0,0,1,3,1.31,5.27,5.27,0,0,1,1.09,3.24l-8.09,0A5.35,5.35,0,0,1,468.87,292.09Z" transform="translate(-289.76 -277.39)"/><path class="cls-1" d="M508.22,286.74l-3.36,0a1.45,1.45,0,0,0-1,.4,1.39,1.39,0,0,0-.45,1.05v.46a8.25,8.25,0,0,0-2.07-1.47,8.92,8.92,0,0,0-4-.88h-.07a8.18,8.18,0,0,0-6.68,2.79,12,12,0,0,0-2.47,7.29l0,1.14,0,1.1a11.83,11.83,0,0,0,2.38,7.32c1.51,1.82,3.77,2.76,6.73,2.77h.06a8.46,8.46,0,0,0,5.79-2v1.72a3.67,3.67,0,0,1-4.29,4.42h0a3.89,3.89,0,0,1-2.5-.67,4.38,4.38,0,0,1-1.21-1.64,1.72,1.72,0,0,0-.59-.89,1.5,1.5,0,0,0-.88-.27l-3.65,0h0a1.42,1.42,0,0,0-1,.38,1.34,1.34,0,0,0-.43,1,5.73,5.73,0,0,0,1,2.89,8.5,8.5,0,0,0,3.35,2.94,12.9,12.9,0,0,0,6.1,1.29H499c3.47,0,6.12-.87,7.88-2.59a9.88,9.88,0,0,0,2.7-7.34l.05-19.75a1.45,1.45,0,0,0-.41-1A1.39,1.39,0,0,0,508.22,286.74Zm-13.62,9.82c.17-3.35,1.55-5,4.23-5h0a3.65,3.65,0,0,1,3.09,1.32,6,6,0,0,1,1.17,3.39c0,.12,0,.45,0,1.26a12.56,12.56,0,0,1,0,1.26v0a5.88,5.88,0,0,1-1.2,3.36,3.62,3.62,0,0,1-3.07,1.29h0c-2.88,0-4.27-2-4.25-6Z" transform="translate(-289.76 -277.39)"/><path class="cls-1" d="M526,289.57h0a1.77,1.77,0,0,0-.68.15l-.76.3,0-9.56a1.4,1.4,0,0,0-.41-1,1.42,1.42,0,0,0-1-.42l-3.45,0a1.42,1.42,0,0,0-1,.38,1.35,1.35,0,0,0-.43,1l-.06,12-1.54.55a2.31,2.31,0,0,0-.85.54,1.42,1.42,0,0,0-.32,1v2.34a1.17,1.17,0,0,0,.36.89,1.38,1.38,0,0,0,1.53.18l.81-.3,0,9.9a1.4,1.4,0,0,0,.41,1,1.37,1.37,0,0,0,1,.42l3.44,0h0a1.44,1.44,0,0,0,1-.41,1.39,1.39,0,0,0,.41-1l.06-12.32,1.49-.58a2.19,2.19,0,0,0,.87-.57,1.55,1.55,0,0,0,.31-1v-2.29a1.18,1.18,0,0,0-.36-.9A1.23,1.23,0,0,0,526,289.57Z" transform="translate(-289.76 -277.39)"/><path class="cls-1" d="M549.82,288.82c-1.54-1.53-4-2.31-7.34-2.33h-.08a11.84,11.84,0,0,0-5.07,1,8.24,8.24,0,0,0-3.14,2.37,4.67,4.67,0,0,0-1.1,2.57,1.29,1.29,0,0,0,.4,1,1.35,1.35,0,0,0,.92.36l3.2,0h0a1,1,0,0,0,1-.68l.61-.61a6.64,6.64,0,0,1,1.25-.93,3.79,3.79,0,0,1,1.92-.42h0a3.55,3.55,0,0,1,2.56.78,3.21,3.21,0,0,1,.76,2.36v.48l-5.25.74a14,14,0,0,0-6.39,2.39,6,6,0,0,0-1.38,8.25,7.37,7.37,0,0,0,2.9,2.43,9.17,9.17,0,0,0,4,.9h.06a9.4,9.4,0,0,0,4.24-.87,7.77,7.77,0,0,0,1.91-1.34v.41a1.41,1.41,0,0,0,1.41,1.42l3.4,0a1.39,1.39,0,0,0,1-.42,1.42,1.42,0,0,0,.38-1l.06-12.86A8.09,8.09,0,0,0,549.82,288.82Zm-4.07,10.27v.31a5.49,5.49,0,0,1-1.33,4,4.46,4.46,0,0,1-3.35,1.33h0a4.17,4.17,0,0,1-2.36-.66,1.85,1.85,0,0,1-.88-1.67c0-1.36,1.47-2.27,4.36-2.71Z" transform="translate(-289.76 -277.39)"/></svg>

<svg class="logo-svg" id="Layer_1" data-name="Layer 1" xmlns="http://www.w3.org/2000/svg" viewBox="0 0 262.37 40.49"><defs><style>.cls-1{fill:#010202;}</style></defs><title>krajobraz_nieodlegla_logo</title><path class="cls-1" d="M302.5,285.38h-.06a8.89,8.89,0,0,0-6.36,2.36v-.57a1.42,1.42,0,0,0-.39-1,1.39,1.39,0,0,0-1-.4l-3.4,0a1.42,1.42,0,0,0-1,.38,1.36,1.36,0,0,0-.43,1l-.09,19.34a1.42,1.42,0,0,0,1.41,1.42l3.65,0h0a1.35,1.35,0,0,0,1-.42,1.42,1.42,0,0,0,.39-1l.05-11.27a4.77,4.77,0,0,1,1.17-3.38,3.94,3.94,0,0,1,3-1.2h0a3.76,3.76,0,0,1,3,1.2,5,5,0,0,1,1,3.43l-.05,11.27a1.42,1.42,0,0,0,1.41,1.42l3.69,0h0a1.35,1.35,0,0,0,1-.42,1.42,1.42,0,0,0,.39-1l.05-11.51a10.22,10.22,0,0,0-2.29-7.06A8.09,8.09,0,0,0,302.5,285.38Z" transform="translate(-289.76 -277.39)"/><path class="cls-1" d="M323.44,285.89l-3.48,0h0a1.43,1.43,0,0,0-1,.38,1.36,1.36,0,0,0-.43,1l-.09,19.34a1.42,1.42,0,0,0,1.41,1.42l3.49,0a1.42,1.42,0,0,0,1.42-1.41l.09-19.34a1.41,1.41,0,0,0-.41-1A1.39,1.39,0,0,0,323.44,285.89Z" transform="translate(-289.76 -277.39)"/><path class="cls-1" d="M323.6,277.41l-3.77,0h0a1.36,1.36,0,0,0-1,.41,1.43,1.43,0,0,0-.42,1v3a1.42,1.42,0,0,0,1.41,1.42l3.77,0h0a1.45,1.45,0,0,0,1-.4,1.36,1.36,0,0,0,.45-1v-3a1.42,1.42,0,0,0-1.45-1.46Z" transform="translate(-289.76 -277.39)"/><path class="cls-1" d="M342.08,285.57H342a10,10,0,0,0-7.7,3.06c-1.87,2-2.82,4.84-2.84,8.37l0,1c.1,3.33,1.08,5.94,2.94,7.77a10.41,10.41,0,0,0,7.56,2.78h.07a12.54,12.54,0,0,0,5.15-1,10.13,10.13,0,0,0,3.5-2.41,4.17,4.17,0,0,0,1.29-2.6,1.12,1.12,0,0,0-.43-.92,1.42,1.42,0,0,0-.9-.3l-3.61,0h0a2,2,0,0,0-.87.15,2.6,2.6,0,0,0-.72.67,4.16,4.16,0,0,1-3.45,1.7h0a3.43,3.43,0,0,1-2.87-1.34,5.9,5.9,0,0,1-1.14-3.42l13.16.06h0a1.43,1.43,0,0,0,1-.41,1.39,1.39,0,0,0,.41-1v-.86a11.82,11.82,0,0,0-2.71-8.17A10,10,0,0,0,342.08,285.57Zm-3,5.92a3.55,3.55,0,0,1,2.92-1.28h0a3.62,3.62,0,0,1,3,1.31,5.27,5.27,0,0,1,1.09,3.24l-8.09,0A5.35,5.35,0,0,1,339.11,291.49Z" transform="translate(-289.76 -277.39)"/><path class="cls-1" d="M384.07,305.1,360,305h0a1.43,1.43,0,0,0-1,.38,1.38,1.38,0,0,0-.43,1v2.75a1.38,1.38,0,0,0,.42,1,1.41,1.41,0,0,0,1,.39l24.05.11h0a1.45,1.45,0,0,0,1-.41,1.39,1.39,0,0,0,.42-1v-2.75a1.39,1.39,0,0,0-.41-1A1.45,1.45,0,0,0,384.07,305.1Z" transform="translate(-289.76 -277.39)"/><path class="cls-1" d="M410.22,288.48h0a10.88,10.88,0,0,0-7.66-2.63h-.09a10.88,10.88,0,0,0-7.64,2.56,9.92,9.92,0,0,0-3,7.07l0,1.82,0,1.81a10,10,0,0,0,2.93,7.11c1.81,1.72,4.42,2.6,7.74,2.61h.09c3.25,0,5.82-.85,7.63-2.54a10,10,0,0,0,3-7.07c0-.33,0-.95,0-1.84s0-1.51,0-1.82A9.93,9.93,0,0,0,410.22,288.48Zm-11.9,7.26a5.89,5.89,0,0,1,1.18-3.72,3.75,3.75,0,0,1,3-1.21h0a3.72,3.72,0,0,1,3,1.24,6,6,0,0,1,1.15,3.76c0,.25,0,.76,0,1.56,0,.95,0,1.37,0,1.55v0a5.86,5.86,0,0,1-1.17,3.7,3.7,3.7,0,0,1-3,1.19h0a3.79,3.79,0,0,1-3-1.22,5.78,5.78,0,0,1-1.15-3.71l0-1.57Z" transform="translate(-289.76 -277.39)"/><path class="cls-1" d="M439.22,278.64l-3.56,0h0a1.39,1.39,0,0,0-1,.38,1.34,1.34,0,0,0-.43,1l0,8a8.45,8.45,0,0,0-5.82-2.1h-.06a8.25,8.25,0,0,0-6.66,2.81,11.81,11.81,0,0,0-2.53,7.28l0,1.38,0,1.36a12,12,0,0,0,2.48,7.34,8.26,8.26,0,0,0,6.67,2.83h.06a8.41,8.41,0,0,0,6-2.18v.38a1.38,1.38,0,0,0,.41,1,1.37,1.37,0,0,0,1,.42l3.32,0h0a1.35,1.35,0,0,0,1-.42,1.42,1.42,0,0,0,.39-1l.13-27.13a1.41,1.41,0,0,0-.39-1A1.39,1.39,0,0,0,439.22,278.64Zm-5,18.73c0,.69,0,1.2,0,1.52v0a6.19,6.19,0,0,1-1.18,3.46,3.6,3.6,0,0,1-3.09,1.31h0c-2.68,0-4.06-1.65-4.22-5l0-1.2,0-1.22c.19-3.35,1.58-5,4.23-5h0a3.77,3.77,0,0,1,3.1,1.29,5.19,5.19,0,0,1,1.16,3.25C434.18,296.13,434.19,296.65,434.19,297.37Z" transform="translate(-289.76 -277.39)"/><path class="cls-1" d="M453.19,278.7l-3.44,0h0a1.39,1.39,0,0,0-1,.38,1.34,1.34,0,0,0-.43,1l-.13,27.13a1.42,1.42,0,0,0,1.41,1.42l3.44,0h0a1.35,1.35,0,0,0,1-.42,1.42,1.42,0,0,0,.39-1l.13-27.13a1.41,1.41,0,0,0-.39-1A1.39,1.39,0,0,0,453.19,278.7Z" transform="translate(-289.76 -277.39)"/><path class="cls-1" d="M471.84,286.16h-.07a10,10,0,0,0-7.7,3.06c-1.87,2-2.82,4.84-2.84,8.37l0,1a10.92,10.92,0,0,0,2.94,7.77,10.41,10.41,0,0,0,7.56,2.78h.07a12.56,12.56,0,0,0,5.15-1,10.17,10.17,0,0,0,3.5-2.41,4.17,4.17,0,0,0,1.29-2.6,1.11,1.11,0,0,0-.43-.92,1.45,1.45,0,0,0-.9-.3l-3.61,0h0a2,2,0,0,0-.87.14,2.48,2.48,0,0,0-.72.67,4.18,4.18,0,0,1-3.45,1.7h0a3.43,3.43,0,0,1-2.87-1.34,5.9,5.9,0,0,1-1.14-3.42l13.17.06a1.44,1.44,0,0,0,1-.41,1.39,1.39,0,0,0,.41-1v-.86a11.82,11.82,0,0,0-2.71-8.17A10,10,0,0,0,471.84,286.16Zm-3,5.92a3.55,3.55,0,0,1,2.92-1.28h0a3.62,3.62,0,0,1,3,1.31,5.27,5.27,0,0,1,1.09,3.24l-8.09,0A5.35,5.35,0,0,1,468.87,292.09Z" transform="translate(-289.76 -277.39)"/><path class="cls-1" d="M508.22,286.74l-3.36,0a1.45,1.45,0,0,0-1,.4,1.39,1.39,0,0,0-.45,1.05v.46a8.25,8.25,0,0,0-2.07-1.47,8.92,8.92,0,0,0-4-.88h-.07a8.18,8.18,0,0,0-6.68,2.79,12,12,0,0,0-2.47,7.29l0,1.14,0,1.1a11.83,11.83,0,0,0,2.38,7.32c1.51,1.82,3.77,2.76,6.73,2.77h.06a8.46,8.46,0,0,0,5.79-2v1.72a3.67,3.67,0,0,1-4.29,4.42h0a3.89,3.89,0,0,1-2.5-.67,4.38,4.38,0,0,1-1.21-1.64,1.72,1.72,0,0,0-.59-.89,1.5,1.5,0,0,0-.88-.27l-3.65,0h0a1.42,1.42,0,0,0-1,.38,1.34,1.34,0,0,0-.43,1,5.73,5.73,0,0,0,1,2.89,8.5,8.5,0,0,0,3.35,2.94,12.9,12.9,0,0,0,6.1,1.29H499c3.47,0,6.12-.87,7.88-2.59a9.88,9.88,0,0,0,2.7-7.34l.05-19.75a1.45,1.45,0,0,0-.41-1A1.39,1.39,0,0,0,508.22,286.74Zm-13.62,9.82c.17-3.35,1.55-5,4.23-5h0a3.65,3.65,0,0,1,3.09,1.32,6,6,0,0,1,1.17,3.39c0,.12,0,.45,0,1.26a12.56,12.56,0,0,1,0,1.26v0a5.88,5.88,0,0,1-1.2,3.36,3.62,3.62,0,0,1-3.07,1.29h0c-2.88,0-4.27-2-4.25-6Z" transform="translate(-289.76 -277.39)"/><path class="cls-1" d="M526,289.57h0a1.77,1.77,0,0,0-.68.15l-.76.3,0-9.56a1.4,1.4,0,0,0-.41-1,1.42,1.42,0,0,0-1-.42l-3.45,0a1.42,1.42,0,0,0-1,.38,1.35,1.35,0,0,0-.43,1l-.06,12-1.54.55a2.31,2.31,0,0,0-.85.54,1.42,1.42,0,0,0-.32,1v2.34a1.17,1.17,0,0,0,.36.89,1.38,1.38,0,0,0,1.53.18l.81-.3,0,9.9a1.4,1.4,0,0,0,.41,1,1.37,1.37,0,0,0,1,.42l3.44,0h0a1.44,1.44,0,0,0,1-.41,1.39,1.39,0,0,0,.41-1l.06-12.32,1.49-.58a2.19,2.19,0,0,0,.87-.57,1.55,1.55,0,0,0,.31-1v-2.29a1.18,1.18,0,0,0-.36-.9A1.23,1.23,0,0,0,526,289.57Z" transform="translate(-289.76 -277.39)"/><path class="cls-1" d="M549.82,288.82c-1.54-1.53-4-2.31-7.34-2.33h-.08a11.84,11.84,0,0,0-5.07,1,8.24,8.24,0,0,0-3.14,2.37,4.67,4.67,0,0,0-1.1,2.57,1.29,1.29,0,0,0,.4,1,1.35,1.35,0,0,0,.92.36l3.2,0h0a1,1,0,0,0,1-.68l.61-.61a6.64,6.64,0,0,1,1.25-.93,3.79,3.79,0,0,1,1.92-.42h0a3.55,3.55,0,0,1,2.56.78,3.21,3.21,0,0,1,.76,2.36v.48l-5.25.74a14,14,0,0,0-6.39,2.39,6,6,0,0,0-1.38,8.25,7.37,7.37,0,0,0,2.9,2.43,9.17,9.17,0,0,0,4,.9h.06a9.4,9.4,0,0,0,4.24-.87,7.77,7.77,0,0,0,1.91-1.34v.41a1.41,1.41,0,0,0,1.41,1.42l3.4,0a1.39,1.39,0,0,0,1-.42,1.42,1.42,0,0,0,.38-1l.06-12.86A8.09,8.09,0,0,0,549.82,288.82Zm-4.07,10.27v.31a5.49,5.49,0,0,1-1.33,4,4.46,4.46,0,0,1-3.35,1.33h0a4.17,4.17,0,0,1-2.36-.66,1.85,1.85,0,0,1-.88-1.67c0-1.36,1.47-2.27,4.36-2.71Z" transform="translate(-289.76 -277.39)"/></svg>