<?xml version="1.0" encoding="UTF-8"?>
<svg width="226px" height="129px" viewBox="0 0 226 129" version="1.1" xmlns="http://www.w3.org/2000/svg" xmlns:xlink="http://www.w3.org/1999/xlink">
    <!-- Generator: sketchtool 49 (51002) - http://www.bohemiancoding.com/sketch -->
    <title>F2D26CDD-DA00-47AA-A7DC-93610710B36A</title>
    <desc>Created with sketchtool.</desc>
    <defs></defs>
    <g id="MOBILE" stroke="none" stroke-width="1" fill="none" fill-rule="evenodd">
        <g id="Mobile-main" transform="translate(-94.000000, -57.000000)" fill="#FFFFFF" fill-rule="nonzero">
            <g id="Intro" transform="translate(-35.000000, 0.000000)">
                <g id="clouds" transform="translate(0.000000, 32.000000)">
                    <path d="M352.910063,44.3645525 C337.66716,41.7298751 323.034902,45.716488 312.802482,54.0313267 C312.239257,53.0127783 311.643128,52.0048751 311.007805,51.0134235 C292.751837,22.5381009 251.346998,16.5119719 218.526031,37.5531009 C208.166353,44.1951977 199.902805,52.7408428 194.015063,62.2208428 C184.771192,54.6506815 173.106515,51.1339073 161.464579,53.5431009 C139.190547,58.1519719 125.440869,82.7021331 130.753773,108.375359 C136.066676,134.048585 158.430708,151.124391 180.70474,146.514069 C187.987482,145.007294 194.358128,141.368101 199.448934,136.256488 C219.966031,156.719875 255.64716,159.254391 284.634902,140.670843 C296.468934,133.083746 305.570063,123.013423 311.515386,111.902778 C318.528611,118.690036 327.990708,123.650198 338.87974,125.53294 C364.715063,129.998101 388.797805,115.448101 392.672644,93.0347138 C396.547482,70.6198751 378.744418,48.8297138 352.910063,44.3645525 Z" id="cloudnr1"></path>
                </g>
            </g>
        </g>
    </g>
</svg>