<?xml version="1.0" encoding="UTF-8"?>
<svg width="204px" height="95px" viewBox="0 0 204 95" version="1.1" xmlns="http://www.w3.org/2000/svg" xmlns:xlink="http://www.w3.org/1999/xlink">
    <!-- Generator: sketchtool 49 (51002) - http://www.bohemiancoding.com/sketch -->
    <title>FC0F7B09-EAFB-4A87-B4BF-643B492FECA8</title>
    <desc>Created with sketchtool.</desc>
    <defs></defs>
    <g id="DESKTOP" stroke="none" stroke-width="1" fill="none" fill-rule="evenodd">
        <g id="Desktop-main" transform="translate(-1074.000000, -116.000000)" fill="#FFFFFF" fill-rule="nonzero">
            <g id="Intro">
                <g id="clouds" transform="translate(145.000000, 53.000000)">
                    <path d="M1132.35206,157.565342 C1122.68928,142.503343 1109.47472,127.522874 1115.77009,111.724403 C1119.30631,102.850872 1128.86591,100.416148 1129.69507,89.7804279 C1130.531,79.0506611 1120.77655,68.6169042 1111.05186,65.1097789 C1085.89237,56.0346228 1065.63075,78.5273156 1045.41513,89.1569465 C1035.4983,94.3724718 1029.76348,96.3501562 1018.35814,95.1045466 C1011.73496,94.3816058 1002.74945,90.0233252 996.028504,91.6014808 C985.684734,94.0297769 984.745622,103.348169 979.67049,112.29105 C973.724581,122.771492 971.161643,125.334092 958.711297,127.271519 C940.393866,130.123025 921.853498,138.397432 931.765939,157.565342 L1132.35206,157.565342 Z" id="cloud2"></path>
                </g>
            </g>
        </g>
    </g>
</svg>