<?xml version="1.0" encoding="UTF-8"?>
<svg width="545px" height="173px" viewBox="0 0 545 173" version="1.1" xmlns="http://www.w3.org/2000/svg" xmlns:xlink="http://www.w3.org/1999/xlink">
    <!-- Generator: sketchtool 49 (51002) - http://www.bohemiancoding.com/sketch -->
    <title>54F90F71-48F4-4D57-B957-F80A3E9FD5E5</title>
    <desc>Created with sketchtool.</desc>
    <defs></defs>
    <g id="DESKTOP" stroke="none" stroke-width="1" fill="none" fill-rule="evenodd">
        <g id="Desktop-main" transform="translate(-571.000000, 0.000000)" fill="#FFFFFF" fill-rule="nonzero">
            <g id="Intro" transform="translate(-73.000000, -92.000000)">
                <g id="clouds">
                    <path d="M1105.4808,40.0200752 C1073.9788,34.5750752 1043.7388,42.8140752 1022.5918,59.9980752 C1021.4278,57.8930752 1020.1958,55.8100752 1018.8828,53.7610752 C981.153797,-5.08792483 895.583797,-17.5419248 827.753797,25.9430752 C806.343797,39.6700752 789.265797,57.3310752 777.097797,76.9230752 C757.993797,61.2780752 733.886797,54.0100752 709.826797,58.9890752 C663.793797,68.5140752 635.377797,119.251075 646.357797,172.309075 C657.337797,225.367075 703.556797,260.657075 749.589797,251.129075 C764.640797,248.015075 777.806797,240.494075 788.327797,229.930075 C830.729797,272.221075 904.470797,277.459075 964.378797,239.053075 C988.835797,223.373075 1007.6448,202.561075 1019.9318,179.599075 C1034.4258,193.626075 1053.9808,203.877075 1076.4848,207.768075 C1129.8778,216.996075 1179.6488,186.926075 1187.6568,140.605075 C1195.6648,94.2810752 1158.8718,49.2480752 1105.4808,40.0200752 Z" id="cloudnr1"></path>
                </g>
            </g>
        </g>
    </g>
</svg>