<?xml version="1.0" encoding="UTF-8"?>
<svg width="380px" height="274px" viewBox="0 0 380 274" version="1.1" xmlns="http://www.w3.org/2000/svg" xmlns:xlink="http://www.w3.org/1999/xlink">
    <!-- Generator: sketchtool 49 (51002) - http://www.bohemiancoding.com/sketch -->
    <title>D3357D7C-0463-41C8-B7C4-A4D2CC17EFF5</title>
    <desc>Created with sketchtool.</desc>
    <defs></defs>
    <g id="DESKTOP" stroke="none" stroke-width="1" fill="none" fill-rule="evenodd">
        <g id="Desktop-main" transform="translate(-295.000000, -254.000000)" fill="#FFFFFF" fill-rule="nonzero">
            <g id="Intro" transform="translate(-73.000000, -92.000000)">
                <g id="clouds">
                    <path d="M716.819945,447.219785 C696.633945,431.948785 670.823945,428.394785 646.194945,435.108785 C643.370945,422.754785 638.473945,410.831785 631.376945,399.760785 C593.649945,340.912785 508.077945,328.457785 440.247945,371.942785 C372.419945,415.428785 348.017945,498.385785 385.744945,557.234785 C423.472945,616.085785 509.044945,628.539785 576.872945,585.053785 C577.854945,584.424785 578.825945,583.783785 579.788945,583.137785 C584.604945,590.963785 590.827945,597.940785 598.434945,603.696785 C635.922945,632.057785 692.815945,620.022785 725.506945,576.813785 C758.196945,533.602785 754.308945,475.580785 716.819945,447.219785 Z" id="cloudnr2"></path>
                </g>
            </g>
        </g>
    </g>
</svg>