<?xml version="1.0" encoding="UTF-8"?>
<svg width="177px" height="213px" viewBox="0 0 177 213" version="1.1" xmlns="http://www.w3.org/2000/svg" xmlns:xlink="http://www.w3.org/1999/xlink">
    <!-- Generator: sketchtool 49 (51002) - http://www.bohemiancoding.com/sketch -->
    <title>28C3C7AF-BBB4-4335-A704-731DC6920571</title>
    <desc>Created with sketchtool.</desc>
    <defs></defs>
    <g id="DESKTOP" stroke="none" stroke-width="1" fill="none" fill-rule="evenodd">
        <g id="Desktop-main" transform="translate(-764.000000, -237.000000)" fill-rule="nonzero">
            <g id="Intro" transform="translate(-73.000000, -92.000000)">
                <g id="heroes-hiking" transform="translate(837.000000, 329.000000)">
                    <path d="M117.105,182.284 C117.38,184.539 114.582,183.463 116.523,184.309 C117.507,184.741 118.617,184.92 119.761,184.781 C123.159,184.361 124.308,180.697 123.89,177.297 C123.89,177.297 128.892,166.049 130.54,156.549 C131.665,150.066 128.968,142.68 128.794,139.672 C124.255,138.199 121.105,136.363 116.825,134.308 C116.385,143.102 117.105,182.284 117.105,182.284 Z" id="Shape" fill="#FFC92D"></path>
                    <path d="M164.342,167.93 C164.342,167.93 160.674,159.655 156.819,152.367 C155.151,149.215 151.577,148.791 150.331,145.576 C150.073,144.906 150.335,144.165 150.911,143.336 C146.614,143.378 143.626,141.648 139.413,140.823 C138.106,144.511 136.093,149.558 137.845,152.13 L156.917,173.447 C158.339,176.217 162.415,176.541 162.552,176.445 C165.045,174.674 165.848,170.863 164.342,167.93 Z" id="Shape" fill="#FFC92D"></path>
                    <path d="M150.91,143.336 C153.103,140.18 160.855,131.318 161.314,124.668 C161.894,116.272 156.837,107.173 156.837,107.173 L125.323,105.451 C124.766,112.797 117.206,123.453 115.973,129.921 C115.766,131.008 114.84,134.452 115.809,136.484 C116.776,138.515 124.254,138.2 128.793,139.672 C128.752,138.947 128.887,138.533 129.193,138.33 C135.25,134.308 138.101,129.211 140.453,129.425 C142.805,129.638 137.668,138.435 138.123,141.465 C138.582,144.499 146.613,143.378 150.91,143.336 Z" id="Shape" fill="#006977"></path>
                    <path d="M116.357,157.498 C118.109,157.221 128.947,158.718 130.13,159.419 C133.661,161.512 125.107,183.361 125.107,183.361 L116.847,181.105 C116.848,181.105 114.604,157.772 116.357,157.498 Z" id="Shape" fill="#FFFFFF"></path>
                    <path d="M115.723,178.715 C115.59,180.599 115.42,182.571 115.244,183.287 C111.053,183.271 109.096,179.051 103.445,180.389 C99.775,181.256 99.496,188.158 102.894,189.921 C106.554,191.818 122.134,192.922 126.197,193.34 C126.531,189.896 127.343,185.428 127.771,180.691 L115.723,178.715 Z" id="Shape" fill="#006977"></path>
                    <path d="M146.713,162.037 C147.401,160.391 154.799,152.121 155.902,151.538 C159.197,149.794 168.855,171.308 168.855,171.308 L160.687,177.44 C160.688,177.439 146.021,163.686 146.713,162.037 Z" id="Shape" fill="#FFFFFF"></path>
                    <path d="M140.473,5.188 C132.784,5.272 125.899,11.646 125.85,18.503 C125.817,22.694 122.772,21.956 120.573,23.579 C116.792,26.377 117.223,35.508 125.665,34.857 C126.866,38.47 128.798,41.57 131.228,43.833 L131.222,43.831 C133.861,46.383 134.822,47.732 134.954,49.035 C134.972,49.022 134.989,49.012 135.001,49.005 C135.331,48.899 136.542,49.93 136.993,50.122 C138.55,50.786 139.979,51.476 142.071,51.183 C144.167,50.889 146.249,48.926 146.997,48.87 C147.173,48.857 147.368,48.865 147.561,48.893 C147.874,47.316 148.612,45.761 149.848,44.264 C150.51,43.687 151.137,43.049 151.727,42.357 C155.073,38.413 157.151,32.69 157.082,26.332 C156.957,14.558 149.518,5.092 140.473,5.188 Z" id="Shape" fill="#FFC92D"></path>
                    <path d="M148.111,54.929 C148.066,54.568 147.974,54.172 147.849,53.748 C147.365,52.123 147.244,50.496 147.56,48.894 C147.367,48.866 147.171,48.858 146.996,48.871 C146.248,48.927 144.166,50.89 142.07,51.184 C139.978,51.477 138.549,50.788 136.992,50.123 C136.541,49.931 135.33,48.899 135,49.006 C134.988,49.013 134.971,49.024 134.953,49.036 C135.027,49.807 134.814,50.559 134.482,51.534 C133.593,54.159 131.474,59.638 126.169,60.642 C119.667,61.864 106.8,86.793 104.099,85.178 C103.316,86.875 107.745,98.685 108.078,100.943 C118.969,104.364 123.168,79.444 128.767,80.839 C134.367,82.237 124.656,100.8 125.324,105.452 C126.203,111.56 146.986,111.071 157.021,109.036 C160.82,108.265 151.225,67.941 148.111,54.929 Z" id="Shape" fill="#FFFFFF"></path>
                    <path d="M148.875,54.084 C151.764,50.602 156.326,48.643 161.23,49.9 C166.048,51.134 167.525,54.365 167.587,58.945 C167.677,65.445 167.399,71.049 168.579,77.441 C169.899,84.584 173.009,94.164 165.667,101.901 C160.88,106.949 147.466,106.687 144.335,100.281 C141.204,93.876 143.958,85.932 144.192,78.662 C144.43,71.311 142.647,59.638 139.512,53.949 C139.514,53.949 146.719,56.683 148.875,54.084 Z" id="Shape" fill="#3EA967"></path>
                    <path d="M159.469,176.283 C160.678,177.626 161.924,179.062 162.309,179.674 C159.782,183.164 154.235,179.903 151.758,185.494 C150.147,189.127 154.696,193.878 157.94,192.195 C161.432,190.382 176.764,180.082 176.436,178.177 C176.106,176.275 170.518,171.264 167.538,167.805 L159.469,176.283 Z" id="Shape" fill="#006977"></path>
                    <path d="M124.928,11.543 C124.764,13.27 124.5,15.336 125.28,16.855 C128.251,17.018 143.639,17.946 143.639,17.946 C143.639,17.946 142.627,20.297 142.217,21.247 C141.709,22.423 140.24,26.524 139.469,30.954 C138.899,34.237 138.289,39.624 139.043,40.936 C139.59,41.885 159.762,44.893 160.643,44.405 C161.526,43.917 162.85,20.231 156.133,9.467 C153.184,4.742 148.899,0.841 143.076,0.517 C134.277,0.022 128.127,4.846 127.51,5.933 C127.51,5.933 125.133,9.422 124.928,11.543 Z" id="Shape" fill="#006977"></path>
                    <path d="M8.146,212.33 C6.025,212.33 4.256,210.663 4.154,208.522 C3.98,204.924 -0.053,120.069 2.916,90.985 C5.89,61.869 10.322,53.323 10.817,52.444 C11.904,50.521 14.342,49.839 16.266,50.925 C18.175,52.002 18.86,54.411 17.811,56.328 C17.684,56.577 13.638,64.74 10.874,91.797 C7.966,120.286 12.102,207.262 12.144,208.137 C12.25,210.344 10.547,212.219 8.341,212.325 C8.275,212.328 8.21,212.33 8.146,212.33 Z" id="Shape" fill="#FFFFFF"></path>
                    <path d="M50.197,200.012 C46.84,200.047 43.951,197.515 43.605,194.111 L40.21,160.72 C39.983,158.479 40.921,156.276 42.696,154.889 L52.942,146.875 C55.799,144.645 59.922,145.147 62.155,148.004 C64.387,150.859 63.885,154.983 61.03,157.217 C61.03,157.217 55.153,157.303 52.753,163.008 C50.353,168.713 55.515,167.808 56.663,192.783 C57.081,201.88 54.403,199.609 50.8,199.976 C50.598,199.996 50.396,200.01 50.197,200.012 Z" id="Shape" fill="#FFC92D"></path>
                    <path d="M94.525,203.197 C92.433,203.218 90.386,202.166 89.222,200.248 L72.982,173.484 C71.892,171.688 71.8,169.458 72.74,167.576 L78.158,156.723 C79.67,153.699 83.346,152.473 86.369,153.98 C89.396,155.49 90.623,159.168 89.113,162.193 C89.113,162.193 82.508,168.619 85.22,171.673 C88.101,174.917 99.689,193.896 99.689,193.896 C101.441,196.787 100.521,200.552 97.63,202.307 C96.658,202.895 95.588,203.183 94.525,203.197 Z" id="Shape" fill="#FFC92D"></path>
                    <path d="M60.178,125.241 C60.684,138.019 33.02,143.503 43.674,155.76 C46.121,158.578 55.42,166.78 59.699,165.36 C64.269,163.843 70.08,147.631 74.39,150.077 C78.703,152.522 70.095,162.517 74.033,164.733 C76.359,166.044 94.283,167.97 95.658,166.108 C98,162.939 91.265,140.438 92.408,130.562 C91.529,131.235 60.178,125.241 60.178,125.241 Z" id="Shape" fill="#006977"></path>
                    <path d="M42.482,186.197 C47.837,186.136 56.716,186.814 56.716,186.814 L58.913,207.494 C58.913,207.494 36.065,209.677 31.245,208.187 C26.768,206.802 24.403,198.857 29.62,195.692 C37.634,190.828 41.501,200.572 42.577,198.018 C43.656,195.464 42.482,186.197 42.482,186.197 Z" id="Shape" fill="#FFFFFF"></path>
                    <path d="M83.246,190.992 C83.246,190.992 91.781,188.256 96.197,186.197 C99.326,190.373 104.597,202.459 104.597,202.459 C104.597,202.459 88.333,210.164 83.796,211.4 C79.579,212.55 73.185,204.999 75.714,201.529 C79.609,196.185 88.362,202.736 88.349,200.865 C88.338,198.994 83.246,190.992 83.246,190.992 Z" id="Shape" fill="#FFFFFF"></path>
                    <path d="M75.225,15.761 C66.848,15.853 59.344,22.799 59.289,30.276 C59.254,34.844 55.932,34.037 53.537,35.809 C49.414,38.855 49.887,48.808 59.088,48.099 C60.395,52.036 62.502,55.416 65.149,57.88 L65.145,57.88 C68.018,60.66 69.067,62.133 69.209,63.55 C69.229,63.537 69.248,63.526 69.262,63.521 C69.623,63.403 70.942,64.53 71.434,64.739 C73.129,65.461 74.686,66.211 76.969,65.892 C79.25,65.572 81.522,63.435 82.34,63.372 C82.526,63.358 82.74,63.365 82.951,63.398 C83.293,61.677 84.096,59.984 85.443,58.35 C86.166,57.723 86.849,57.029 87.49,56.271 C87.49,56.271 87.492,56.271 87.49,56.271 C91.138,51.975 93.402,45.736 93.33,38.81 C93.191,25.976 85.086,15.654 75.225,15.761 Z" id="Shape" fill="#FFC92D"></path>
                    <path d="M85.219,32.267 C82.99,27.395 78.02,23.153 65.285,25.592 C53.607,27.829 43.644,24.779 48.168,9.672 C52.055,13.154 54.5,15.244 60.389,14.476 C64.014,14.002 70.287,10.329 74.422,9.387 C98.26,3.962 97.904,18.687 97.772,25.586 C97.694,29.882 98.127,39.529 93.057,39.567 C88.445,39.601 87.449,37.133 85.219,32.267 Z" id="Shape" fill="#006977"></path>
                    <path d="M21.973,75.063 C22.143,74.241 22.944,71.95 23.799,70.099 C23,69.621 22.289,69.113 21.715,68.555 C19.018,65.948 20.69,61.803 17.211,59.793 C11.357,56.406 0.34,59.638 0.467,71.509 C0.602,84.158 13.666,81.178 20.42,83.297 C20.936,83.459 21.479,83.627 22.043,83.805 C21.68,81.341 21.297,78.318 21.973,75.063 Z" id="Shape" fill="#FFC92D"></path>
                    <path d="M83.553,69.974 C83.502,69.58 83.405,69.151 83.268,68.69 C82.739,66.92 82.606,65.144 82.952,63.399 C82.741,63.366 82.526,63.359 82.341,63.373 C81.523,63.436 79.251,65.572 76.97,65.893 C74.687,66.211 73.13,65.461 71.435,64.74 C70.943,64.531 69.624,63.404 69.263,63.522 C69.249,63.527 69.23,63.539 69.21,63.551 C69.294,64.393 69.062,65.212 68.7,66.275 C67.731,69.138 64.093,74.854 58.313,75.945 C51.225,77.279 44.637,78.482 34.979,74.734 C30.979,73.18 26.741,71.86 23.799,70.1 C22.944,71.951 22.143,74.242 21.973,75.064 C21.297,78.32 21.68,81.342 22.043,83.806 C33.912,87.535 51.893,90.473 53.676,91.245 C56.571,92.493 61.559,94.991 62.469,98.216 C65.365,108.502 57.014,125.848 57.742,130.917 C58.701,137.575 88.306,136.24 91.887,132.79 C94.93,129.859 86.945,84.156 83.553,69.974 Z" id="Shape" fill="#3EA967"></path>
                    <path d="M83.801,68.13 C87.49,63.834 93.512,61.265 100.18,62.499 C106.729,63.713 108.893,67.478 109.237,72.914 C109.723,80.639 109.665,87.32 111.614,94.853 C113.79,103.277 120.364,121.172 111.661,128.675 C107.716,132.081 84.87,130.746 80.302,123.295 C75.73,115.843 78.986,106.253 78.892,97.595 C78.794,88.845 75.742,75.059 71.208,68.464 C71.207,68.465 81.049,71.332 83.801,68.13 Z" id="Shape" fill="#006977"></path>
                </g>
            </g>
        </g>
    </g>
</svg>