<?xml version="1.0" encoding="UTF-8"?>
<svg width="260px" height="260px" viewBox="0 0 260 260" version="1.1" xmlns="http://www.w3.org/2000/svg" xmlns:xlink="http://www.w3.org/1999/xlink">
    <!-- Generator: sketchtool 49 (51002) - http://www.bohemiancoding.com/sketch -->
    <title>95E1DCD9-7281-4FA1-9EB0-41DA2F203E6D</title>
    <desc>Created with sketchtool.</desc>
    <defs>
        <ellipse id="path-1" cx="130" cy="130.199293" rx="130" ry="129.800307"></ellipse>
        <ellipse id="path-3" cx="130" cy="130.199293" rx="130" ry="129.800307"></ellipse>
    </defs>
    <g id="MOBILE" stroke="none" stroke-width="1" fill="none" fill-rule="evenodd">
        <g id="Mobile-main" transform="translate(-30.000000, -797.000000)">
            <g id="About" transform="translate(0.000000, 529.000000)">
                <g id="hero-with-a-map" transform="translate(30.000000, 268.000000)">
                    <g id="Clipped">
                        <mask id="mask-2" fill="white">
                            <use xlink:href="#path-1"></use>
                        </mask>
                        <g id="SVGID_13_"></g>
                        <rect id="Rectangle-path" fill="#D4ECFF" fill-rule="nonzero" mask="url(#mask-2)" x="-9.9996" y="-9.58525346" width="279.9996" height="279.568694"></rect>
                    </g>
                    <g id="Clipped">
                        <mask id="mask-4" fill="white">
                            <use xlink:href="#path-3"></use>
                        </mask>
                        <g id="SVGID_13_"></g>
                        <g id="Group" mask="url(#mask-4)">
                            <g transform="translate(31.600000, 42.734255)">
                                <path d="M62.9324,43.7718587 C75.2452,45.0375115 87.532,45.4880184 98.856,41.0656221 C113.5544,35.2258065 120.1272,19.5922581 114.792,5.79428571 L0.1224,19.7647926 C2.8516,23.5964977 5.2584,29.816129 7.4216,37.6317051 C13.936,40.1058986 20.4292,41.8759754 26.8872,42.3979724 C39.1984,43.6640246 50.644,43.3229493 62.9324,43.7718587 Z" id="Shape" fill="#006977" fill-rule="nonzero"></path>
                                <path d="M160.3804,0.23843318 L114.7916,5.79388633 C120.1268,19.5922581 113.554,35.2254071 98.8556,41.0652227 C87.5316,45.487619 75.2452,45.0371121 62.932,43.7714593 C50.6436,43.3225499 39.198,43.6636252 26.8868,42.397573 C20.4284,41.875576 13.9356,40.1058986 7.4212,37.6313057 C20.4972,84.8898003 24.6708,190.593978 37.4544,180.885714 C52.35,169.570323 206.244,163.300369 206.244,163.300369 L160.3804,0.23843318 Z" id="Shape" fill="#3EA967" fill-rule="nonzero"></path>
                                <g id="Group" stroke-width="1" fill="none" fill-rule="evenodd" transform="translate(23.200000, 15.576037)">
                                    <path d="M66.7704,9.58205837 C60.7548,7.70933948 58.0008,0.857880184 50.732,2.84642089 C46.0616,4.12245776 36.1024,6.74282642 33.1932,10.7095238 C28.7852,16.7198771 26.4336,19.4273118 19.3144,22.5820584 C13.5244,25.1469124 1.6964,26.1298003 0.3196,33.9158218 C-0.276,37.2770507 1.58,40.052381 2.4036,43.147619 C3.7576,48.2254071 2.612,49.682765 0.7748,54.0819969 C-0.7608,57.7679263 7.6576,67.941874 8.7968,72.2392627 C10.6228,79.1158833 14.4668,85.7424885 15.914,92.5064823 C16.2316,93.9909985 16.3796,101.178341 28.1636,105.939017 C29.8192,106.609186 34.7396,105.077143 35.2212,107.74424 C35.736,110.588264 45.2248,119.908326 45.3464,114.60808 C45.47,109.047834 54.3908,112.707803 56.374,115.639293 C60.2176,121.317358 68.2976,116.781137 72.5112,122.969616 C73.9344,125.058003 75.0076,129.851828 77.8976,130.349063 C80.8364,130.861475 82.1764,126.550108 85.0676,129.229585 C92.268,135.898126 92.224,132.191429 100.5984,129.088203 C104.5688,127.616866 109.172,128.462765 113.3784,127.049739 C117.0192,125.828018 119.6088,129.630968 122.3256,131.350323 C128.158,135.039846 136.3332,137.192135 132.2836,127.750261 C128.606,119.17745 137.4036,109.476774 143.1016,103.751183 C150.4656,96.350169 143.4628,89.1524424 140.5188,82.0421813 C137.2712,74.2002458 139.914,67.9530568 134.2124,61.2313978 C130.748,57.1536713 141.46,49.7917972 140.9348,43.9264209 C140.1764,35.4810138 135.464,26.1329954 132.5304,18.2347465 C129.2652,9.44187404 116.0052,9.35241167 108.6168,10.2454378 C99.0272,11.3996621 88.4072,8.04961598 79.2304,10.058126 C72.1268,11.6157296 60.2284,22.2905069 57.4676,8.96780338 C60.1472,8.2121659 65.7716,13.7320737 67.6984,10.6340399 C67.3892,10.2825806 67.0804,9.93231951 66.7704,9.58205837 Z" id="Shape" fill="#F5F5F5" fill-rule="nonzero"></path>
                                    <path d="M17.0156,24.6372965 C17.1248,26.0243625 16.0884,27.2380952 14.6988,27.3471275 C13.3096,27.455361 12.0968,26.4213518 11.9856,25.03149 C11.8764,23.6452227 12.9148,22.4322888 14.3024,22.3232565 C15.6932,22.2158218 16.9064,23.2510292 17.0156,24.6372965 Z" id="Shape" fill="#FFC92D" fill-rule="nonzero"></path>
                                    <path d="M26.1976,21.5664209 C26.3084,22.9554839 25.2704,24.1700154 23.8808,24.2770507 C22.4932,24.3868817 21.2784,23.351275 21.1692,21.9630108 C21.0604,20.5767435 22.0964,19.3638095 23.486,19.257573 C24.8752,19.1465438 26.09,20.1825499 26.1976,21.5664209 Z" id="Shape" fill="#FFC92D" fill-rule="nonzero"></path>
                                    <path d="M10.02,35.3635945 C10.1308,36.7510599 9.0928,37.9627957 7.7032,38.071828 C6.314,38.1800614 5.1012,37.1452535 4.99,35.7597849 C4.8824,34.370722 5.9192,33.1593856 7.3084,33.0495545 C8.6976,32.941321 9.9124,33.9773272 10.02,35.3635945 Z" id="Shape" fill="#FFC92D" fill-rule="nonzero"></path>
                                    <path d="M20.3264,34.5540399 C20.4356,35.941106 19.4012,37.1540399 18.01,37.2630722 C16.6204,37.3713057 15.4056,36.3356989 15.2984,34.9502304 C15.1892,33.5635637 16.2236,32.349831 17.6152,32.2407988 C19.0044,32.1297696 20.2192,33.1665745 20.3264,34.5540399 Z" id="Shape" fill="#FFC92D" fill-rule="nonzero"></path>
                                    <path d="M24.4344,44.4056836 C24.5456,45.7939478 23.5072,47.0048848 22.118,47.1147158 C20.7304,47.2245469 19.5136,46.1881413 19.4048,44.8006759 C19.2956,43.4136098 20.3356,42.2034716 21.7232,42.0936406 C23.1104,41.9842089 24.3268,43.0194163 24.4344,44.4056836 Z" id="Shape" fill="#FFC92D" fill-rule="nonzero"></path>
                                    <path d="M20.3496,57.0074962 C20.4588,58.3941628 19.4224,59.6066974 18.0312,59.7157296 C16.6436,59.8255607 15.4288,58.7883564 15.3196,57.4028879 C15.2104,56.0154224 16.2452,54.8044854 17.6364,54.6946544 C19.0252,54.5864209 20.2404,55.6208295 20.3496,57.0074962 Z" id="Shape" fill="#FFC92D" fill-rule="nonzero"></path>
                                    <path d="M35.658,35.1119816 C35.766,36.4982488 34.7292,37.7111828 33.3416,37.8190169 C31.9504,37.9288479 30.7376,36.8932412 30.6284,35.5061751 C30.5192,34.1195084 31.5572,32.9061751 32.9468,32.7971429 C34.334,32.6881106 35.5484,33.723318 35.658,35.1119816 Z" id="Shape" fill="#FFC92D" fill-rule="nonzero"></path>
                                    <path d="M39.558,26.2611982 C39.6656,27.6502611 38.6308,28.8611982 37.2396,28.9690323 C35.85,29.0788633 34.6372,28.0432565 34.528,26.6549923 C34.4188,25.2663287 35.4552,24.0569892 36.8448,23.9463594 C38.232,23.838126 39.4484,24.8721352 39.558,26.2611982 Z" id="Shape" fill="#FFC92D" fill-rule="nonzero"></path>
                                    <path d="M15.2684,44.9839939 C15.3776,46.3730568 14.3412,47.5831951 12.952,47.6930261 C11.5644,47.8020584 10.3496,46.7680492 10.2404,45.3789862 C10.1312,43.9927189 11.1696,42.7817819 12.5552,42.6727496 C13.946,42.5625192 15.1588,43.5965284 15.2684,44.9839939 Z" id="Shape" fill="#FFC92D" fill-rule="nonzero"></path>
                                    <path d="M54.584,16.3855914 C54.6932,17.7726575 53.6552,18.9863902 52.264,19.0962212 C50.878,19.2040553 49.6616,18.1688479 49.5544,16.7805837 C49.4452,15.3943164 50.4816,14.1813825 51.8692,14.073149 C53.26,13.963318 54.4732,15.0005223 54.584,16.3855914 Z" id="Shape" fill="#FFC92D" fill-rule="nonzero"></path>
                                    <path d="M50.4356,28.4182796 C50.5448,29.8037481 49.5068,31.0162826 48.1172,31.1261137 C46.728,31.2339478 45.5152,30.1987404 45.406,28.811275 C45.2968,27.4250077 46.3332,26.211275 47.7208,26.1022427 C49.1116,25.9936098 50.3264,27.029616 50.4356,28.4182796 Z" id="Shape" fill="#FFC92D" fill-rule="nonzero"></path>
                                    <path d="M44.5472,40.643871 C44.6564,42.030937 43.62,43.2430722 42.2288,43.3521045 C40.8412,43.4603379 39.6264,42.42553 39.5172,41.0388633 C39.408,39.6517972 40.4444,38.4388633 41.834,38.3326267 C43.2232,38.2223963 44.436,39.2564055 44.5472,40.643871 Z" id="Shape" fill="#FFC92D" fill-rule="nonzero"></path>
                                    <path d="M53.7308,37.5745929 C53.8416,38.9600614 52.8016,40.1745929 51.414,40.2836252 C50.0248,40.3926575 48.8084,39.3558525 48.7008,37.9687865 C48.59,36.581321 49.628,35.3711828 51.0192,35.2613518 C52.4084,35.1527189 53.6216,36.1871275 53.7308,37.5745929 Z" id="Shape" fill="#FFC92D" fill-rule="nonzero"></path>
                                    <path d="M37.5516,51.370169 C37.6624,52.7576344 36.6244,53.9677727 35.2348,54.0776037 C33.8456,54.1866359 32.6308,53.151828 32.5216,51.7643625 C32.4124,50.3772965 33.4508,49.1643625 34.8384,49.0573272 C36.2292,48.946298 37.4436,49.9819048 37.5516,51.370169 Z" id="Shape" fill="#FFC92D" fill-rule="nonzero"></path>
                                    <path d="M47.8584,50.5606144 C47.9676,51.9480799 46.9312,53.1590169 45.5416,53.2688479 C44.1524,53.3778802 42.9376,52.3422734 42.8284,50.954808 C42.7192,49.5673425 43.7556,48.354808 45.1468,48.2465745 C46.534,48.1363441 47.7508,49.1715515 47.8584,50.5606144 Z" id="Shape" fill="#FFC92D" fill-rule="nonzero"></path>
                                    <path d="M51.966,60.4122581 C52.0752,61.8005223 51.0388,63.0114593 49.6476,63.1212903 C48.26,63.2323195 47.0452,62.1963134 46.936,60.8064516 C46.8272,59.4217819 47.8652,58.2092473 49.2528,58.1002151 C50.6416,57.9899846 51.8568,59.0275883 51.966,60.4122581 Z" id="Shape" fill="#FFC92D" fill-rule="nonzero"></path>
                                    <path d="M47.8792,73.0132719 C47.99,74.4003379 46.952,75.6132719 45.5624,75.7223041 C44.1748,75.8313364 42.9604,74.7949309 42.8512,73.4102611 C42.742,72.0215975 43.7784,70.8106605 45.1676,70.7016283 C46.5572,70.5917972 47.772,71.6262058 47.8792,73.0132719 Z" id="Shape" fill="#FFC92D" fill-rule="nonzero"></path>
                                    <path d="M63.188,51.1173579 C63.2988,52.5056221 62.2624,53.7165591 60.8712,53.8255914 C59.4816,53.9346237 58.2688,52.8998157 58.1596,51.5127496 C58.0508,50.1244854 59.0888,48.9115515 60.4748,48.8037174 C61.8656,48.6946851 63.0784,49.7306912 63.188,51.1173579 Z" id="Shape" fill="#FFC92D" fill-rule="nonzero"></path>
                                    <path d="M67.0896,42.264977 C67.1972,43.6532412 66.1604,44.8669739 64.7712,44.974808 C63.3816,45.0830415 62.1668,44.0474347 62.0596,42.6591705 C61.9488,41.2745008 62.9852,40.062765 64.3744,39.9545315 C65.7636,39.8439017 66.98,40.8803072 67.0896,42.264977 Z" id="Shape" fill="#FFC92D" fill-rule="nonzero"></path>
                                    <path d="M42.8016,60.9905684 C42.9108,62.3776344 41.8728,63.5905684 40.4832,63.6996006 C39.094,63.8078341 37.8812,62.771828 37.77,61.3855607 C37.6612,59.9992934 38.6972,58.7883564 40.0884,58.6773272 C41.4756,58.5690937 42.694,59.6031029 42.8016,60.9905684 Z" id="Shape" fill="#FFC92D" fill-rule="nonzero"></path>
                                    <path d="M82.114,32.3937634 C82.2228,33.7812289 81.1868,34.9913671 79.7956,35.1 C78.4096,35.2102304 77.1932,34.1762212 77.082,32.787957 C76.9744,31.4008909 78.0128,30.187957 79.4008,30.0789247 C80.79,29.9690937 82.0028,31.0058986 82.114,32.3937634 Z" id="Shape" fill="#FFC92D" fill-rule="nonzero"></path>
                                    <path d="M77.9672,44.421659 C78.0764,45.8095238 77.0384,47.0224578 75.6488,47.13149 C74.2596,47.2397235 73.0448,46.2037174 72.9376,44.8166513 C72.8284,43.4291859 73.8628,42.2202458 75.2524,42.1092166 C76.6432,42.0001843 77.858,43.0349923 77.9672,44.421659 Z" id="Shape" fill="#FFC92D" fill-rule="nonzero"></path>
                                    <path d="M64.2172,63.5118894 C64.3264,64.8981567 63.29,66.1094931 61.9008,66.218126 C60.5132,66.3283564 59.2968,65.2943472 59.1892,63.9080799 C59.0784,62.5190169 60.1184,61.3068817 61.506,61.1970507 C62.8932,61.0900154 64.1084,62.1240246 64.2172,63.5118894 Z" id="Shape" fill="#FFC92D" fill-rule="nonzero"></path>
                                    <path d="M73.4012,60.4430108 C73.51,61.8284793 72.472,63.0414132 71.0824,63.1504455 C69.6932,63.2594777 68.4804,62.2246697 68.3712,60.8372043 C68.262,59.4501382 69.3,58.2380031 70.6876,58.128172 C72.0784,58.0191398 73.2916,59.0559447 73.4012,60.4430108 Z" id="Shape" fill="#FFC92D" fill-rule="nonzero"></path>
                                    <path d="M57.2236,74.2365899 C57.3328,75.6220584 56.2964,76.8373886 54.9052,76.9456221 C53.5176,77.0546544 52.3028,76.0182488 52.1936,74.6311828 C52.0844,73.243318 53.1208,72.0307834 54.5104,71.9225499 C55.8992,71.8127189 57.114,72.8495238 57.2236,74.2365899 Z" id="Shape" fill="#FFC92D" fill-rule="nonzero"></path>
                                    <path d="M67.53,73.4270353 C67.6376,74.8125038 66.6028,76.0286329 65.2132,76.1376651 C63.822,76.2454992 62.6092,75.2086943 62.5,73.822427 C62.3912,72.4361598 63.4272,71.2208295 64.8168,71.1121966 C66.208,71.0035637 67.4192,72.0395699 67.53,73.4270353 Z" id="Shape" fill="#FFC92D" fill-rule="nonzero"></path>
                                    <path d="M71.638,83.2798771 C71.7472,84.6669432 70.7092,85.8798771 69.3196,85.9897081 C67.9304,86.0979416 66.7156,85.0631336 66.61,83.67447 C66.4992,82.2866052 67.5372,81.0752688 68.9248,80.9654378 C70.312,80.8576037 71.5304,81.8928111 71.638,83.2798771 Z" id="Shape" fill="#FFC92D" fill-rule="nonzero"></path>
                                    <path d="M67.5512,95.8808909 C67.6604,97.2663594 66.624,98.4792934 65.2364,98.5883257 C63.8452,98.6973579 62.634,97.6625499 62.5252,96.2754839 C62.414,94.8892166 63.4504,93.6754839 64.84,93.5680492 C66.2288,93.4590169 67.4436,94.4926267 67.5512,95.8808909 Z" id="Shape" fill="#FFC92D" fill-rule="nonzero"></path>
                                    <path d="M82.8596,73.9821813 C82.9688,75.3716436 81.9304,76.58298 80.5412,76.6928111 C79.1536,76.8010445 77.9388,75.7662366 77.8296,74.377573 C77.7204,72.9929032 78.7588,71.780768 80.1464,71.6697389 C81.5356,71.561106 82.7504,72.5967127 82.8596,73.9821813 Z" id="Shape" fill="#FFC92D" fill-rule="nonzero"></path>
                                    <path d="M62.4704,83.8585868 C62.5792,85.2456528 61.5432,86.4585868 60.1556,86.567619 C58.766,86.6758525 57.5532,85.6386482 57.4424,84.2531797 C57.3332,82.8669124 58.3696,81.6547773 59.7588,81.545745 C61.1496,81.4347158 62.3624,82.4715207 62.4704,83.8585868 Z" id="Shape" fill="#FFC92D" fill-rule="nonzero"></path>
                                    <path d="M101.784,55.2585868 C101.8952,56.6476498 100.8552,57.8613825 99.4676,57.969616 C98.08,58.0778495 96.8652,57.0418433 96.756,55.6539785 C96.6468,54.2693088 97.6852,53.0535791 99.0728,52.9465438 C100.46,52.8367127 101.6764,53.8735177 101.784,55.2585868 Z" id="Shape" fill="#FFC92D" fill-rule="nonzero"></path>
                                    <path d="M97.6376,67.2888786 C97.7468,68.678341 96.7104,69.8868817 95.3192,69.9967127 C93.9332,70.1049462 92.7168,69.0721352 92.6076,67.6846697 C92.5,66.2992012 93.5368,65.083871 94.9244,64.9756375 C96.3152,64.8666052 97.5296,65.9046083 97.6376,67.2888786 Z" id="Shape" fill="#FFC92D" fill-rule="nonzero"></path>
                                    <path d="M83.8896,86.3779109 C84.0004,87.7645776 82.9604,88.9751152 81.5728,89.0865438 C80.1816,89.1947773 78.9704,88.1583717 78.8596,86.7733026 C78.7504,85.3870353 79.7868,84.1749002 81.178,84.0666667 C82.5652,83.9576344 83.78,84.9912442 83.8896,86.3779109 Z" id="Shape" fill="#FFC92D" fill-rule="nonzero"></path>
                                    <path d="M93.0732,83.3086329 C93.1824,84.6964977 92.144,85.9078341 90.7528,86.0168664 C89.3672,86.1274962 88.1504,85.0910906 88.0432,83.7040246 C87.9324,82.3161598 88.9724,81.1040246 90.36,80.9965899 C91.7472,80.8871582 92.9636,81.9231644 93.0732,83.3086329 Z" id="Shape" fill="#FFC92D" fill-rule="nonzero"></path>
                                    <path d="M76.8952,97.1058065 C77.0044,98.4904762 75.966,99.7026114 74.5768,99.8108449 C73.1892,99.9222734 71.9728,98.8850691 71.8652,97.4988018 C71.7564,96.1101382 72.7924,94.8988018 74.182,94.7897696 C75.5696,94.6803379 76.786,95.7147465 76.8952,97.1058065 Z" id="Shape" fill="#FFC92D" fill-rule="nonzero"></path>
                                    <path d="M87.202,96.2950538 C87.3112,97.6805223 86.2748,98.8918587 84.8856,99.0008909 C83.4944,99.110722 82.2796,98.075914 82.1724,96.692043 C82.0632,95.3013825 83.0996,94.0888479 84.4872,93.9798157 C85.878,93.8707834 87.0924,94.9059908 87.202,96.2950538 Z" id="Shape" fill="#FFC92D" fill-rule="nonzero"></path>
                                    <path d="M91.3096,106.145499 C91.4176,107.532565 90.3808,108.746298 88.9912,108.854531 C87.602,108.963564 86.3892,107.927158 86.28,106.54169 C86.1708,105.155422 87.2072,103.943287 88.5928,103.835853 C89.986,103.725223 91.2004,104.761229 91.3096,106.145499 Z" id="Shape" fill="#FFC92D" fill-rule="nonzero"></path>
                                    <path d="M87.2232,118.748111 C87.3324,120.135177 86.298,121.348909 84.9068,121.457143 C83.5156,121.566175 82.3028,120.531367 82.1936,119.141905 C82.0856,117.754839 83.1208,116.543502 84.51,116.43447 C85.8992,116.325438 87.1136,117.360645 87.2232,118.748111 Z" id="Shape" fill="#FFC92D" fill-rule="nonzero"></path>
                                    <path d="M102.5296,96.8513978 C102.6408,98.2384639 101.6044,99.4498003 100.2132,99.5604301 C98.8256,99.6674654 97.6108,98.6338556 97.5016,97.245192 C97.394,95.8597235 98.4308,94.6459908 99.82,94.5385561 C101.2076,94.4271275 102.4224,95.4643318 102.5296,96.8513978 Z" id="Shape" fill="#FFC92D" fill-rule="nonzero"></path>
                                    <path d="M82.142,106.725407 C82.2512,108.113272 81.2148,109.324608 79.8252,109.434439 C78.4376,109.542673 77.2232,108.508664 77.114,107.119201 C77.0048,105.732934 78.0412,104.519201 79.4304,104.411767 C80.82,104.302335 82.0328,105.339939 82.142,106.725407 Z" id="Shape" fill="#FFC92D" fill-rule="nonzero"></path>
                                    <path d="M121.456,78.1282028 C121.5652,79.51447 120.5288,80.727404 119.1396,80.8364363 C117.75,80.9434716 116.5356,79.9098618 116.4264,78.5219969 C116.3172,77.1357296 117.3536,75.9235945 118.7448,75.8129647 C120.132,75.7047312 121.3468,76.7399386 121.456,78.1282028 Z" id="Shape" fill="#FFC92D" fill-rule="nonzero"></path>
                                    <path d="M117.3076,90.1576959 C117.4168,91.5439631 116.3804,92.7568971 114.9912,92.8659293 C113.6052,92.9737634 112.3888,91.9377573 112.278,90.5506912 C112.17,89.1636252 113.2088,87.95149 114.5964,87.8424578 C115.9852,87.7342243 117.2,88.7686329 117.3076,90.1576959 Z" id="Shape" fill="#FFC92D" fill-rule="nonzero"></path>
                                    <path d="M103.5612,109.24553 C103.6688,110.631797 102.634,111.843932 101.2428,111.952965 C99.8552,112.060799 98.6404,111.027189 98.5312,109.64172 C98.422,108.253057 99.4604,107.040922 100.848,106.934286 C102.2392,106.823656 103.45,107.859263 103.5612,109.24553 Z" id="Shape" fill="#FFC92D" fill-rule="nonzero"></path>
                                    <path d="M112.7428,106.174654 C112.852,107.562519 111.8156,108.776252 110.4264,108.883687 C109.0352,108.992719 107.8224,107.957911 107.7132,106.570046 C107.6052,105.183779 108.6404,103.971644 110.0316,103.865806 C111.4192,103.75318 112.634,104.788387 112.7428,106.174654 Z" id="Shape" fill="#FFC92D" fill-rule="nonzero"></path>
                                    <path d="M96.5656,119.969831 C96.6744,121.358495 95.6384,122.569831 94.2508,122.679662 C92.8596,122.786697 91.6448,121.753886 91.5356,120.364424 C91.428,118.978157 92.4648,117.765223 93.8524,117.656989 C95.2432,117.547558 96.458,118.585161 96.5656,119.969831 Z" id="Shape" fill="#FFC92D" fill-rule="nonzero"></path>
                                    <path d="M106.8724,119.159877 C106.9816,120.549339 105.9452,121.759877 104.554,121.869708 C103.1664,121.977942 101.9516,120.943932 101.8424,119.556068 C101.7332,118.171398 102.7696,116.955269 104.1592,116.845438 C105.548,116.739601 106.7648,117.774808 106.8724,119.159877 Z" id="Shape" fill="#FFC92D" fill-rule="nonzero"></path>
                                    <path d="M110.9816,129.014316 C111.0876,130.402181 110.0528,131.612719 108.6616,131.723349 C107.274,131.832381 106.0592,130.796774 105.95,129.408111 C105.8424,128.022642 106.8772,126.808909 108.2668,126.702273 C109.656,126.591644 110.8708,127.629647 110.9816,129.014316 Z" id="Shape" fill="#FFC92D" fill-rule="nonzero"></path>
                                    <path d="M58.8188,115.286237 C58.928,116.672504 57.8916,117.885438 56.5024,117.993671 C55.1128,118.103502 53.8984,117.068694 53.7892,115.679232 C53.68,114.292166 54.718,113.080829 56.1076,112.972596 C57.4948,112.865161 58.7096,113.897174 58.8188,115.286237 Z" id="Shape" fill="#FFC92D" fill-rule="nonzero"></path>
                                    <path d="M122.2036,119.718618 C122.3128,121.107281 121.2748,122.317819 119.8852,122.425253 C118.4956,122.535084 117.2828,121.501075 117.1736,120.114009 C117.0648,118.726943 118.1008,117.514808 119.4904,117.404178 C120.8776,117.295545 122.0924,118.331551 122.2036,119.718618 Z" id="Shape" fill="#FFC92D" fill-rule="nonzero"></path>
                                    <path d="M126.1016,110.867435 C126.2108,112.2553 125.1744,113.467435 123.7852,113.576467 C122.3976,113.6847 121.1828,112.649094 121.0716,111.262028 C120.964,109.876559 122.0008,108.662826 123.3884,108.554593 C124.7792,108.445161 125.994,109.481966 126.1016,110.867435 Z" id="Shape" fill="#FFC92D" fill-rule="nonzero"></path>
                                    <path d="M101.814,129.593026 C101.9248,130.977696 100.8868,132.19063 99.4972,132.300461 C98.1096,132.411091 96.8952,131.372289 96.786,129.987619 C96.6768,128.598157 97.7132,127.387619 99.1008,127.278587 C100.4916,127.169555 101.7048,128.204762 101.814,129.593026 Z" id="Shape" fill="#FFC92D" fill-rule="nonzero"></path>
                                    <path d="M141.128,100.994224 C141.2368,102.382089 140.1988,103.593425 138.8092,103.702458 C137.42,103.810691 136.2072,102.776682 136.0996,101.390415 C135.9888,100.000952 137.0252,98.7888172 138.4128,98.6789862 C139.804,98.5699539 141.0188,99.6063594 141.128,100.994224 Z" id="Shape" fill="#FFC92D" fill-rule="nonzero"></path>
                                    <path d="M136.9796,113.022519 C137.0884,114.411183 136.0524,115.623318 134.6628,115.731551 C133.2736,115.840584 132.0588,114.806575 131.9496,113.417112 C131.8404,112.031644 132.8788,110.820307 134.268,110.710476 C135.6576,110.599846 136.8704,111.638648 136.9796,113.022519 Z" id="Shape" fill="#FFC92D" fill-rule="nonzero"></path>
                                    <path d="M114.0724,32.6573579 C114.1816,34.044424 113.1472,35.2565591 111.756,35.3679877 C110.3664,35.4758218 109.1536,34.4378187 109.0428,33.0515515 C108.9348,31.6660829 109.97,30.4523502 111.3592,30.343318 C112.75,30.2358833 113.9632,31.2710906 114.0724,32.6573579 Z" id="Shape" fill="#FFC92D" fill-rule="nonzero"></path>
                                    <path d="M123.2544,29.5860829 C123.3636,30.9743472 122.3252,32.1872811 120.9376,32.2951152 C119.5484,32.4041475 118.3356,31.3693395 118.2244,29.9810753 C118.1188,28.594808 119.1536,27.381874 120.5428,27.2748387 C121.932,27.1650077 123.1468,28.2026114 123.2544,29.5860829 Z" id="Shape" fill="#FFC92D" fill-rule="nonzero"></path>
                                    <path d="M107.0784,43.3808602 C107.186,44.7691244 106.1492,45.9836559 104.76,46.0910906 C103.3704,46.2009217 102.1576,45.163318 102.0484,43.7786482 C101.9392,42.3907834 102.9756,41.1758525 104.3652,41.0688172 C105.7544,40.9581874 106.9676,41.9953917 107.0784,43.3808602 Z" id="Shape" fill="#FFC92D" fill-rule="nonzero"></path>
                                    <path d="M117.3852,42.5721045 C117.4944,43.9595699 116.458,45.1725038 115.0668,45.2823349 C113.6772,45.3929647 112.4644,44.3537634 112.3552,42.9674962 C112.2444,41.5808295 113.2824,40.3670968 114.672,40.2592627 C116.0592,40.1490323 117.2756,41.1878341 117.3852,42.5721045 Z" id="Shape" fill="#FFC92D" fill-rule="nonzero"></path>
                                    <path d="M121.4928,52.4237481 C121.6008,53.8120123 120.564,55.0249462 119.1744,55.1339785 C117.7852,55.2430108 116.5704,54.2062058 116.4632,52.8191398 C116.352,51.4352688 117.3904,50.2207373 118.778,50.1117051 C120.1656,50.0026728 121.382,51.0394777 121.4928,52.4237481 Z" id="Shape" fill="#FFC92D" fill-rule="nonzero"></path>
                                    <path d="M117.4064,65.0275576 C117.5156,66.4138249 116.4792,67.6267588 115.088,67.7357911 C113.6988,67.8440246 112.484,66.8080184 112.3768,65.4225499 C112.2676,64.0334869 113.3056,62.8225499 114.6952,62.7127189 C116.0824,62.6028879 117.2968,63.638894 117.4064,65.0275576 Z" id="Shape" fill="#FFC92D" fill-rule="nonzero"></path>
                                    <path d="M132.7164,43.1300461 C132.8244,44.5175115 131.7856,45.7312442 130.4,45.8390783 C129.0088,45.9489094 127.794,44.9117051 127.6848,43.5250384 C127.5772,42.1359754 128.612,40.9250384 130.0016,40.8152074 C131.3908,40.7069739 132.6072,41.7413825 132.7164,43.1300461 Z" id="Shape" fill="#FFC92D" fill-rule="nonzero"></path>
                                    <path d="M136.6144,34.2808602 C136.7236,35.6683257 135.6856,36.8792627 134.296,36.9882949 C132.9068,37.0973272 131.6956,36.0625192 131.5848,34.6750538 C131.4768,33.2859908 132.512,32.0750538 133.9012,31.9672197 C135.2908,31.8561905 136.5056,32.8905991 136.6144,34.2808602 Z" id="Shape" fill="#FFC92D" fill-rule="nonzero"></path>
                                    <path d="M112.3252,53.0048541 C112.4328,54.3931183 111.398,55.6040553 110.0084,55.7118894 C108.6208,55.8201229 107.406,54.7873118 107.2972,53.3990476 C107.188,52.0127803 108.226,50.7978495 109.6136,50.6900154 C111.0012,50.5805837 112.216,51.6185868 112.3252,53.0048541 Z" id="Shape" fill="#FFC92D" fill-rule="nonzero"></path>
                                    <path d="M116.5336,21.4929339 C116.6412,22.8827957 115.6028,24.0941321 114.2132,24.2011674 C112.824,24.3101997 111.6092,23.2773886 111.5,21.8883257 C111.3924,20.5008602 112.4308,19.2899232 113.8184,19.1816897 C115.2064,19.0702611 116.4228,20.1078648 116.5336,21.4929339 Z" id="Shape" fill="#FFC92D" fill-rule="nonzero"></path>
                                    <ellipse id="Oval" fill="#FFC92D" fill-rule="nonzero" cx="71.0128" cy="20.3974194" rx="2.5224" ry="2.51852535"></ellipse>
                                    <path d="M89.1308,10.8449155 C89.2384,12.2315822 88.2036,13.4421198 86.814,13.553149 C85.4248,13.6621813 84.2116,12.6273733 84.1008,11.2383103 C83.9916,9.85364055 85.028,8.64110599 86.4156,8.5328725 C87.8084,8.42384025 89.0196,9.45984639 89.1308,10.8449155 Z" id="Shape" fill="#FFC92D" fill-rule="nonzero"></path>
                                    <path d="M44.5524,10.1559754 C44.6616,11.5434409 43.6236,12.7567742 42.234,12.8642089 C40.8464,12.9740399 39.6316,11.9384332 39.5228,10.5521659 C39.4136,9.16470046 40.45,7.95376344 41.8392,7.84473118 C43.2284,7.733702 44.4428,8.76970814 44.5524,10.1559754 Z" id="Shape" fill="#FFC92D" fill-rule="nonzero"></path>
                                    <path d="M83.9436,19.7635945 C84.0516,21.1526575 83.0148,22.3655914 81.6252,22.4754224 C80.236,22.5820584 79.0232,21.5476498 78.914,20.1605837 C78.8048,18.7739171 79.8412,17.5601843 81.2304,17.453149 C82.618,17.3425192 83.8328,18.3793241 83.9436,19.7635945 Z" id="Shape" fill="#FFC92D" fill-rule="nonzero"></path>
                                    <path d="M94.2488,18.9568356 C94.3596,20.3431029 93.3216,21.5548387 91.9324,21.6646697 C90.5448,21.773702 89.33,20.7372965 89.2188,19.349831 C89.11,17.9651613 90.148,16.751828 91.5356,16.6443932 C92.9252,16.5333641 94.1396,17.570169 94.2488,18.9568356 Z" id="Shape" fill="#FFC92D" fill-rule="nonzero"></path>
                                    <path d="M98.3568,28.8100768 C98.466,30.1955453 97.4296,31.409278 96.0404,31.5183103 C94.6528,31.6281413 93.438,30.5889401 93.3272,29.2042704 C93.2192,27.8180031 94.256,26.6050691 95.6436,26.4968356 C97.0344,26.387404 98.2472,27.4218126 98.3568,28.8100768 Z" id="Shape" fill="#FFC92D" fill-rule="nonzero"></path>
                                    <path d="M94.272,41.4106912 C94.3812,42.7977573 93.3448,44.0086943 91.9536,44.1197235 C90.566,44.2271582 89.3512,43.1927496 89.244,41.8064823 C89.1328,40.41702 90.1712,39.2064823 91.5588,39.0974501 C92.9476,38.9900154 94.1624,40.0240246 94.272,41.4106912 Z" id="Shape" fill="#FFC92D" fill-rule="nonzero"></path>
                                    <path d="M109.58,19.5143779 C109.6892,20.9010445 108.6512,22.1119816 107.2636,22.2210138 C105.874,22.3308449 104.6596,21.2952381 104.5504,19.9077727 C104.4424,18.5223041 105.4776,17.3077727 106.8668,17.1995392 C108.2564,17.0917051 109.4712,18.1257143 109.58,19.5143779 Z" id="Shape" fill="#FFC92D" fill-rule="nonzero"></path>
                                    <path d="M104.27,15.3364055 C104.3808,16.7254685 103.3448,17.9364055 101.9536,18.0454378 C100.564,18.15447 99.3528,17.1196621 99.242,15.7321966 C99.1312,14.3431336 100.1692,13.1329954 101.5568,13.0239631 C102.9476,12.9141321 104.1604,13.9493395 104.27,15.3364055 Z" id="Shape" fill="#FFC92D" fill-rule="nonzero"></path>
                                    <path d="M89.1924,29.3871889 C89.3,30.7746544 88.2632,31.9883871 86.874,32.0962212 C85.4864,32.2052535 84.2696,31.1696467 84.1624,29.7813825 C84.0532,28.3943164 85.0916,27.1821813 86.4792,27.0743472 C87.8668,26.9669124 89.0812,27.9989247 89.1924,29.3871889 Z" id="Shape" fill="#FFC92D" fill-rule="nonzero"></path>
                                    <path d="M129.8236,22.1822734 C129.9328,23.5689401 128.8964,24.7814747 127.5068,24.8913057 C126.1176,25.0011367 124.9028,23.9639324 124.7936,22.5784639 C124.686,21.1901997 125.7228,19.97447 127.1104,19.8658372 C128.4992,19.7584025 129.714,20.7960061 129.8236,22.1822734 Z" id="Shape" fill="#FFC92D" fill-rule="nonzero"></path>
                                    <path d="M123.1764,15.3372043 C123.2856,16.7262673 122.2476,17.9364055 120.858,18.0454378 C119.4668,18.15447 118.256,17.1196621 118.1468,15.7321966 C118.0376,14.3451306 119.074,13.1349923 120.4632,13.0239631 C121.8508,12.9141321 123.0656,13.9513364 123.1764,15.3372043 Z" id="Shape" fill="#FFC92D" fill-rule="nonzero"></path>
                                    <path d="M26.2416,101.929585 C27.6344,101.863287 28.816,102.935238 28.8812,104.323502 C28.9464,105.714163 27.8712,106.893948 26.48,106.960246 C25.0888,107.024147 23.9076,105.950998 23.8404,104.561536 C23.7768,103.171275 24.8504,101.991889 26.2416,101.929585 Z" id="Shape" fill="#FFC92D" fill-rule="nonzero"></path>
                                    <path d="M23.4592,92.6642396 C24.852,92.6003379 26.0336,93.6750845 26.0988,95.0637481 C26.164,96.4536098 25.0888,97.6333948 23.6976,97.698894 C22.3064,97.7643932 21.1232,96.6904455 21.058,95.3001843 C20.9928,93.9123195 22.0684,92.7313364 23.4592,92.6642396 Z" id="Shape" fill="#FFC92D" fill-rule="nonzero"></path>
                                    <path d="M36.7584,109.24553 C38.1508,109.179232 39.3324,110.253978 39.3976,111.643441 C39.4628,113.032104 38.3892,114.213088 36.9964,114.276989 C35.6052,114.343287 34.422,113.270138 34.3568,111.879078 C34.2916,110.490415 35.3652,109.312627 36.7584,109.24553 Z" id="Shape" fill="#FFC92D" fill-rule="nonzero"></path>
                                    <path d="M36.2732,98.9357911 C37.6648,98.8694931 38.8476,99.9426421 38.9128,101.332903 C38.976,102.721567 37.9008,103.90255 36.5096,103.968848 C35.1204,104.033548 33.9372,102.958802 33.872,101.569339 C33.8052,100.179877 34.882,99.0004916 36.2732,98.9357911 Z" id="Shape" fill="#FFC92D" fill-rule="nonzero"></path>
                                    <path d="M46.2644,95.1460215 C47.6588,95.0805223 48.8384,96.1536713 48.9056,97.5463287 C48.9708,98.9333948 47.8956,100.11278 46.5024,100.177481 C45.1112,100.24298 43.932,99.1690323 43.8668,97.7811674 C43.7996,96.3929032 44.8752,95.2123195 46.2644,95.1460215 Z" id="Shape" fill="#FFC92D" fill-rule="nonzero"></path>
                                    <path d="M58.752,99.6215361 C60.1448,99.5552381 61.3244,100.628387 61.3912,102.018648 C61.4528,103.40851 60.3812,104.586697 58.9884,104.654593 C57.5956,104.719293 56.4176,103.644547 56.3488,102.255084 C56.2856,100.865622 57.3588,99.6870353 58.752,99.6215361 Z" id="Shape" fill="#FFC92D" fill-rule="nonzero"></path>
                                    <path d="M37.3152,83.6525038 C38.7076,83.5894009 39.8892,84.6609524 39.9528,86.0520123 C40.018,87.4414747 38.9444,88.6212596 37.5516,88.6851613 C36.1604,88.7506605 34.9792,87.6775115 34.914,86.2892473 C34.8488,84.8997849 35.9224,83.7196006 37.3152,83.6525038 Z" id="Shape" fill="#FFC92D" fill-rule="nonzero"></path>
                                    <path d="M28.5792,79.483318 C29.9704,79.4186175 31.1516,80.4909677 31.2168,81.8820276 C31.284,83.2726882 30.2068,84.449278 28.8136,84.515576 C27.4224,84.578679 26.2412,83.50553 26.176,82.1160676 C26.1108,80.7290015 27.1868,79.5480184 28.5792,79.483318 Z" id="Shape" fill="#FFC92D" fill-rule="nonzero"></path>
                                    <path d="M46.5552,104.314316 C47.948,104.246421 49.1296,105.319969 49.1928,106.709032 C49.26,108.099693 48.186,109.27788 46.7916,109.343379 C45.4004,109.409677 44.2192,108.33573 44.154,106.945469 C44.0908,105.556805 45.164,104.376621 46.5552,104.314316 Z" id="Shape" fill="#FFC92D" fill-rule="nonzero"></path>
                                    <path d="M19.1684,64.176467 C20.5608,64.1113671 21.7408,65.1841167 21.8076,66.5731797 C21.8712,67.964639 20.7976,69.1416283 19.4048,69.2075269 C18.0136,69.2726267 16.8324,68.2006759 16.7672,66.8116129 C16.702,65.4213518 17.7772,64.2411674 19.1684,64.176467 Z" id="Shape" fill="#FFC92D" fill-rule="nonzero"></path>
                                    <path d="M31.0792,68.6943164 C32.472,68.6284178 33.6536,69.7039631 33.7168,71.0926267 C33.782,72.4836866 32.7084,73.6634716 31.3172,73.728172 C29.9248,73.7936713 28.7432,72.718126 28.678,71.3294624 C28.6128,69.94 29.6868,68.7598157 31.0792,68.6943164 Z" id="Shape" fill="#FFC92D" fill-rule="nonzero"></path>
                                    <path d="M125.9324,62.5413825 C127.3216,62.4782796 128.5048,63.549831 128.57,64.9408909 C128.6368,66.3303533 127.56,67.5093395 126.1688,67.5744393 C124.776,67.6431336 123.5944,66.5659908 123.5292,65.1769278 C123.464,63.7858679 124.5396,62.6084793 125.9324,62.5413825 Z" id="Shape" fill="#FFC92D" fill-rule="nonzero"></path>
                                    <path d="M132.7836,75.14 C134.1796,75.0729032 135.3576,76.146851 135.4228,77.5355146 C135.49,78.9261751 134.4128,80.1059601 133.0216,80.1722581 C131.6304,80.2361598 130.4512,79.162212 130.3824,77.7727496 C130.3188,76.3832873 131.394,75.2039017 132.7836,75.14 Z" id="Shape" fill="#FFC92D" fill-rule="nonzero"></path>
                                    <path d="M124.5588,90.2567435 C125.9512,90.192043 127.1292,91.2631951 127.1944,92.6538556 C127.2616,94.0445161 126.1876,95.2227035 124.7952,95.2882028 C123.404,95.3521045 122.2228,94.2797542 122.1556,92.8902919 C122.0924,91.5016283 123.166,90.3206452 124.5588,90.2567435 Z" id="Shape" fill="#FFC92D" fill-rule="nonzero"></path>
                                    <path d="M131.396,131.920246 C132.7884,131.853948 133.9684,132.925899 134.0352,134.316559 C134.1004,135.70722 133.0252,136.884608 131.6324,136.950906 C130.2412,137.015607 129.06,135.942458 128.9928,134.552197 C128.9296,133.165131 130.0052,131.985745 131.396,131.920246 Z" id="Shape" fill="#FFC92D" fill-rule="nonzero"></path>
                                    <path d="M33.6412,14.4114286 C35.034,14.343533 36.2156,15.4182796 36.2808,16.8053456 C36.346,18.1968049 35.2704,19.3765899 33.8792,19.4396928 C32.488,19.5047926 31.3068,18.4328418 31.2416,17.0441782 C31.176,15.6523195 32.2516,14.4757296 33.6412,14.4114286 Z" id="Shape" fill="#FFC92D" fill-rule="nonzero"></path>
                                    <path d="M104.1588,73.5476498 C105.55,73.4821505 106.7312,74.5533026 106.7964,75.9447619 C106.8632,77.3346237 105.788,78.5136098 104.3952,78.5775115 C103.0036,78.6430108 101.8244,77.5698618 101.7592,76.1803994 C101.6924,74.7921352 102.768,73.6119508 104.1588,73.5476498 Z" id="Shape" fill="#FFC92D" fill-rule="nonzero"></path>
                                    <path d="M55.448,5.45960061 C56.8424,5.39529954 58.022,6.4696467 58.0856,7.85910906 C58.1508,9.24617512 57.0772,10.4275576 55.6844,10.4926575 C54.2916,10.5565591 53.112,9.48380952 53.0468,8.09474654 C52.9816,6.70408602 54.0552,5.52470046 55.448,5.45960061 Z" id="Shape" fill="#FFC92D" fill-rule="nonzero"></path>
                                    <path d="M144.3136,91.0439324 C145.708,90.9800307 146.886,92.052381 146.9532,93.4434409 C147.02,94.8321045 145.9432,96.01149 144.55,96.0761905 C143.1604,96.1424885 141.9776,95.0685407 141.9124,93.6790783 C141.8456,92.2880184 142.9248,91.1086329 144.3136,91.0439324 Z" id="Shape" fill="#FFC92D" fill-rule="nonzero"></path>
                                    <path d="M66.2536,110.516375 C67.6464,110.450876 68.826,111.526421 68.8932,112.915084 C68.9584,114.304946 67.8832,115.484731 66.492,115.549432 C65.1008,115.613333 63.9176,114.539386 63.8544,113.149923 C63.7872,111.76126 64.8644,110.581874 66.2536,110.516375 Z" id="Shape" fill="#FFC92D" fill-rule="nonzero"></path>
                                    <path d="M130.412,50.9152688 C131.8048,50.8473733 132.9844,51.921321 133.0516,53.3115822 C133.1168,54.7010445 132.0432,55.8800307 130.652,55.9463287 C129.2596,56.0086329 128.0764,54.936682 128.0108,53.549616 C127.944,52.1581567 129.0196,50.9795699 130.412,50.9152688 Z" id="Shape" fill="#FFC92D" fill-rule="nonzero"></path>
                                    <path d="M135.8196,87.4247005 C137.2108,87.3584025 138.392,88.4315515 138.4572,89.8238095 C138.524,91.2100768 137.4504,92.3902611 136.0576,92.4541628 C134.6652,92.5204608 133.4836,91.4473118 133.4184,90.0578495 C133.3548,88.6695853 134.4284,87.4898003 135.8196,87.4247005 Z" id="Shape" fill="#FFC92D" fill-rule="nonzero"></path>
                                    <path d="M72.2284,121.883287 C73.618,121.816989 74.8008,122.890138 74.866,124.281997 C74.9312,125.669862 73.856,126.850046 72.4648,126.916344 C71.072,126.981045 69.8924,125.909892 69.8272,124.516836 C69.762,123.126575 70.8376,121.947988 72.2284,121.883287 Z" id="Shape" fill="#FFC92D" fill-rule="nonzero"></path>
                                    <path d="M9.1752,61.2473733 C10.568,61.1802765 11.7496,62.2558218 11.8148,63.644086 C11.88,65.0371429 10.8028,66.2125346 9.4132,66.2800307 C8.0208,66.3451306 6.8392,65.2699846 6.774,63.8809217 C6.7088,62.4918587 7.7844,61.3108756 9.1752,61.2473733 Z" id="Shape" fill="#FFC92D" fill-rule="nonzero"></path>
                                    <path d="M85.418,49.3732412 C86.8104,49.3069432 87.9904,50.3816897 88.0572,51.7687558 C88.1224,53.1594163 87.0488,54.3384025 85.654,54.406298 C84.2616,54.4701997 83.0816,53.3966513 83.0164,52.0083871 C82.9496,50.6177266 84.0252,49.4363441 85.418,49.3732412 Z" id="Shape" fill="#FFC92D" fill-rule="nonzero"></path>
                                    <path d="M48.946,0.275176651 C50.3384,0.208079877 51.52,1.28282642 51.5852,2.6718894 C51.6504,4.06135177 50.5732,5.23953917 49.182,5.30623656 C47.7896,5.37133641 46.6096,4.29938556 46.5444,2.90952381 C46.4776,1.51926267 47.5532,0.338678955 48.946,0.275176651 Z" id="Shape" fill="#FFC92D" fill-rule="nonzero"></path>
                                    <path d="M10.5208,72.8355453 C11.9132,72.7724424 13.0948,73.8447926 13.16,75.2350538 C13.2252,76.6221198 12.15,77.8007066 10.7588,77.8686022 C9.3676,77.9333026 8.1864,76.8593548 8.1212,75.4698925 C8.0544,74.0796313 9.1296,72.8986482 10.5208,72.8355453 Z" id="Shape" fill="#FFC92D" fill-rule="nonzero"></path>
                                    <path d="M23.0084,77.3098618 C24.3976,77.2443625 25.5788,78.3183103 25.646,79.7077727 C25.7112,81.099232 24.636,82.2782181 23.2448,82.3429186 C21.8536,82.4084178 20.6724,81.33447 20.6072,79.9458065 C20.54,78.5555453 21.6152,77.375361 23.0084,77.3098618 Z" id="Shape" fill="#FFC92D" fill-rule="nonzero"></path>
                                    <ellipse id="Oval" fill="#FFC92D" fill-rule="nonzero" cx="5.9832" cy="53.8487558" rx="2.5224" ry="2.51852535"></ellipse>
                                    <path d="M66.654,5.89812596 C68.0464,5.83182796 69.2264,6.9065745 69.2916,8.29563748 C69.3584,9.68470046 68.2832,10.8620891 66.8884,10.9283871 C65.4992,10.9934869 64.3196,9.92193548 64.2508,8.53167435 C64.1876,7.14141321 65.2592,5.96202765 66.654,5.89812596 Z" id="Shape" fill="#FFC92D" fill-rule="nonzero"></path>
                                    <path d="M48.8488,84.0786482 C50.2416,84.0139478 51.4232,85.086298 51.49,86.4789555 C51.5552,87.8664209 50.4784,89.0466052 49.0852,89.1097081 C47.694,89.1728111 46.5128,88.1012596 46.4476,86.7145929 C46.3824,85.323533 47.4596,84.1449462 48.8488,84.0786482 Z" id="Shape" fill="#FFC92D" fill-rule="nonzero"></path>
                                    <path d="M60.5184,22.0892166 C61.9112,22.0225192 63.0908,23.0976651 63.158,24.488725 C63.2212,25.877788 62.148,27.0571736 60.7568,27.1210753 C59.364,27.1873733 58.1824,26.115023 58.1172,24.7255607 C58.052,23.333702 59.1256,22.1543164 60.5184,22.0892166 Z" id="Shape" fill="#FFC92D" fill-rule="nonzero"></path>
                                    <path d="M118.0236,97.7564055 C119.4128,97.6917051 120.596,98.7648541 120.6592,100.153518 C120.7264,101.544178 119.6508,102.725161 118.26,102.789462 C116.8688,102.854163 115.6856,101.782611 115.6204,100.389954 C115.5572,99.0004916 116.6288,97.821106 118.0236,97.7564055 Z" id="Shape" fill="#FFC92D" fill-rule="nonzero"></path>
                                </g>
                                <path d="M151.7416,32.5423349 C135.5708,33.2025192 121.484,47.0280492 121.8088,61.4430722 C122.0044,70.2519201 115.5464,68.887619 111.0224,72.4453456 C103.2368,78.5535484 104.7268,97.7156682 122.4504,95.817788 C125.2024,103.33023 129.4672,109.727988 134.7176,114.324916 L134.712,114.326513 C140.4204,119.520123 142.5292,122.297051 142.8872,125.02086 C142.9244,124.994501 142.9616,124.972535 142.988,124.96255 C143.6772,124.713733 146.2848,126.808909 147.2528,127.181935 C150.5636,128.476743 153.6172,129.835054 158.0056,129.085407 C162.392,128.341352 166.6532,124.088295 168.2296,123.922151 C168.5876,123.885407 169.0036,123.885407 169.4108,123.940123 C169.9712,120.603257 171.424,117.289555 173.9348,114.060922 C175.2908,112.811244 176.5704,111.432166 177.7656,109.935269 L177.7676,109.935269 C184.5624,101.442335 188.5732,89.2838402 188.03,75.9343779 C187.0236,51.1960369 170.7752,31.7699232 151.7416,32.5423349 Z" id="Shape" fill="#FFC92D" fill-rule="nonzero"></path>
                                <path d="M174.7564,63.1967742 C172.4836,55.3700154 165.9432,47.883533 146.2096,48.714255 C128.1156,49.4802765 113.7852,42.6711521 123.9724,20.9505684 C129.0496,27.055576 132.2672,30.7447005 141.3136,30.8996621 C146.8812,30.9947158 157.1528,26.8658679 163.5928,26.3714286 C200.7188,23.5206144 196.9004,45.5930568 195.16,55.9427343 C194.0848,62.3884178 192.5876,77.0011367 184.938,75.9267896 C177.9808,74.9502919 177.0324,71.0159447 174.7564,63.1967742 Z" id="Shape" fill="#006977" fill-rule="nonzero"></path>
                                <path d="M52.3416,149.94172 C52.6256,148.348971 54.0376,143.880645 55.582,140.266605 C54.0112,139.391551 52.6132,138.453794 51.4692,137.4102 C46.1112,132.538894 49.1012,124.452135 42.2696,120.778587 C30.7692,114.588909 9.6816,121.45275 10.6124,144.331551 C11.6048,168.711644 36.6592,162.210845 49.822,165.906759 C50.8252,166.188326 51.8828,166.481475 52.9868,166.792197 C52.1424,162.063871 51.2272,156.257604 52.3416,149.94172 Z" id="Shape" fill="#FFC92D" fill-rule="nonzero"></path>
                                <path d="M184.0212,119.197419 C182.7144,122.932473 179.7528,127.150783 176.6516,128.03063 C174.0052,128.782673 169.3388,124.379846 169.4108,123.940123 C169.0032,123.885407 168.5872,123.885407 168.2296,123.922151 C166.6536,124.088295 162.392,128.340952 158.0056,129.085407 C153.6172,129.835054 150.564,128.477143 147.2528,127.181935 C146.2848,126.808909 143.6772,124.713733 142.988,124.96255 C142.9616,124.972535 142.9244,124.994501 142.8872,125.02086 C143.0956,126.635576 142.6956,128.233917 142.0588,130.304332 C140.354,135.876959 133.66,147.106482 122.5632,149.541137 C108.9548,152.524946 96.3012,155.224393 77.4384,148.554255 C69.6264,145.790507 61.3644,143.48765 55.5816,140.266206 C54.0376,143.880246 52.6252,148.348172 52.3412,149.941321 C51.2268,156.257204 52.142,162.063871 52.9864,166.791398 C76.1208,173.29619 110.752,178.99702 114.4948,179.308141 C141.0284,181.51275 122.4516,229.65149 124.1528,239.382519 C126.3868,252.162857 196.6368,229.09275 203.3464,222.2353 C207.8512,217.640369 172.5392,152.27573 190.8552,138.581997 C191.8812,137.938587 193.0856,137.451736 194.3548,136.990845 C192.72,130.350661 189.6752,123.819908 184.0212,119.197419 Z" id="Shape" fill="#006977" fill-rule="nonzero"></path>
                                <path d="M205.3344,117.655392 C201.9932,99.4066667 190.7788,96.2722888 186.3044,102.440799 C183.646,106.102765 185.2676,111.893057 184.6596,116.637358 C184.5572,117.426943 184.3368,118.298003 184.0212,119.197419 C189.6752,123.819908 192.72,130.350661 194.356,136.991244 C200.4772,134.763472 208.1676,133.135576 205.3344,117.655392 Z" id="Shape" fill="#FFC92D" fill-rule="nonzero"></path>
                            </g>
                        </g>
                    </g>
                </g>
            </g>
        </g>
    </g>
</svg>