<?xml version="1.0" encoding="UTF-8"?>
<svg width="74px" height="150px" viewBox="0 0 74 150" version="1.1" xmlns="http://www.w3.org/2000/svg" xmlns:xlink="http://www.w3.org/1999/xlink">
    <!-- Generator: sketchtool 49 (51002) - http://www.bohemiancoding.com/sketch -->
    <title>2D2C2B3E-DC18-45AE-A7BE-5197310A6A89</title>
    <desc>Created with sketchtool.</desc>
    <defs></defs>
    <g id="DESKTOP" stroke="none" stroke-width="1" fill="none" fill-rule="evenodd">
        <g id="Desktop-main" transform="translate(-97.000000, -425.000000)" fill-rule="nonzero">
            <g id="Intro" transform="translate(-73.000000, -92.000000)">
                <g id="hero-taking-selfie" transform="translate(170.000000, 517.000000)">
                    <path d="M23.761,144.498 C21.156,144.498 18.958,142.477 18.779,139.838 C16.759,110.283 18.742,107.268 19.59,105.981 C21.108,103.676 24.211,103.034 26.516,104.553 C28.637,105.948 29.35,108.684 28.268,110.908 C27.582,113.92 27.979,127.765 28.756,139.156 C28.944,141.912 26.863,144.297 24.108,144.486 C23.991,144.494 23.876,144.498 23.761,144.498 Z" id="Shape" fill="#FFC92D"></path>
                    <path d="M47.862,144.498 C45.255,144.498 43.059,142.478 42.878,139.838 C40.858,110.283 42.843,107.268 43.691,105.981 C45.211,103.674 48.312,103.034 50.617,104.553 C52.738,105.949 53.449,108.686 52.367,110.91 C51.681,113.92 52.078,127.765 52.855,139.156 C53.044,141.912 50.962,144.297 48.209,144.486 C48.091,144.494 47.976,144.498 47.862,144.498 Z" id="Shape" fill="#FFC92D"></path>
                    <path d="M52.741,23.671 C52.741,13.719 46.542,5.653 38.895,5.653 C33.549,5.653 28.913,9.595 26.606,15.371 C26.518,15.59 26.434,15.812 26.352,16.037 C25.422,17.994 23.446,18.135 21.991,20.977 C20.803,23.296 21.891,27.085 25.694,27.81 C26.325,29.947 27.346,32.005 28.428,33.962 C30.02,36.842 33.953,38.608 34.311,41.92 C36.067,42.555 38.213,42.628 39.942,42.627 C41.755,42.624 43.446,42.534 44.981,41.898 C44.383,39.014 48.354,36.262 49.813,33.41 C51.388,30.341 52.741,27.111 52.741,23.671 Z" id="Shape" fill="#FFC92D"></path>
                    <path d="M1.157,31.393 C1.157,33.883 3.175,35.901 5.665,35.901 L10.962,35.901 C13.45,35.901 15.468,33.883 15.468,31.393 L15.468,16.817 C15.468,14.327 13.45,12.309 10.962,12.309 L5.665,12.309 C3.175,12.309 1.157,14.327 1.157,16.817 L1.157,31.393 Z" id="Shape" fill="#3EA967"></path>
                    <path d="M73.528,72.546 C74.081,76.201 74.253,80.088 73.313,82.646 C71.834,86.673 65.543,87.4 62.954,83.607 C61.944,82.125 61.563,78.224 61.313,73.947 C63.124,73.021 65.405,72.744 67.36,72.45 C68.366,72.298 71.509,72.458 73.528,72.546 Z" id="Shape" fill="#FFC92D"></path>
                    <path d="M4.31,36.26 C2.138,35.562 1.232,34.902 0.101,34.25 C0.603,28.213 3.462,23.138 8.88,24.618 C13.802,25.963 10.892,32.39 10.026,36.405 C8.646,36.598 6.485,36.959 4.31,36.26 Z" id="Shape" fill="#FFC92D"></path>
                    <path d="M4.31,36.26 C6.486,36.959 8.646,36.598 10.027,36.406 C9.886,37.061 9.8,37.654 9.81,38.146 C9.933,43.781 17.982,44.104 22.689,44.773 C26.162,45.266 34.658,46.561 34.33,42.075 C34.326,42.023 34.318,41.973 34.312,41.922 C36.068,42.557 38.214,42.63 39.943,42.629 C41.756,42.626 43.447,42.536 44.982,41.9 C44.996,41.959 45.005,42.017 45.023,42.076 C45.826,45.025 53.095,42.573 56.419,43.478 C65.44,45.935 69.607,57.595 71.898,65.224 C72.447,67.046 73.101,69.727 73.529,72.547 C71.509,72.459 68.367,72.299 67.361,72.451 C65.406,72.745 63.125,73.022 61.314,73.948 C60.925,67.27 60.857,59.673 59.218,58.944 C56.529,57.749 55.991,77.158 55.769,83.004 C55.367,93.635 49.29,88.965 46.706,90.195 C44.122,91.425 22.079,94.72 20.569,93.609 C18.186,91.853 18.799,85.22 19.2,82.47 C20.153,75.9 20.813,71.239 21.585,64.751 C23.55,48.205 12.181,60.353 4.366,53.367 C1.118,50.465 -0.351,39.698 0.1,34.25 C1.231,34.902 2.138,35.562 4.31,36.26 Z" id="Shape" fill="#006977"></path>
                    <path d="M55.997,83.004 C53.892,98.25 61.393,109.082 55.501,114.748 C52.325,117.799 45.644,118.785 40.938,116.605 C35.907,114.273 38.352,96.751 35.045,95.847 C31.738,94.947 35.983,111.699 31.231,113.911 C28.422,115.22 15.907,112.598 14.563,110.216 C12.274,106.155 19.6,79.696 19.6,79.696 C41.688,85.033 55.997,83.004 55.997,83.004 Z" id="Shape" fill="#3EA967"></path>
                    <path d="M16.757,134.955 C16.95,136.98 17.212,137.629 16.036,140.082 C14.86,142.537 9.587,134.713 3.585,138.113 C-0.315,140.32 0.909,146.668 4.681,148.334 C9.992,150.682 26.286,149.063 30.847,148.072 C30.601,144.326 30.134,137.834 29.763,132.699 L16.757,134.955 Z" id="Shape" fill="#006977"></path>
                    <path d="M53.862,132.092 C53.997,134.123 53.841,134.805 55.393,137.037 C56.946,139.273 60.901,130.707 67.37,133.103 C71.571,134.658 71.378,141.121 67.923,143.369 C63.056,146.533 46.71,147.541 42.05,147.291 C41.695,143.553 41.116,137.072 40.663,131.943 L53.862,132.092 Z" id="Shape" fill="#006977"></path>
                    <path d="M55.118,13.491 C54.495,11.814 52.782,10.902 51.206,11.339 C51.558,10.546 51.612,9.597 51.274,8.688 C50.911,7.707 50.167,6.996 49.301,6.65 C49.623,5.874 49.658,4.953 49.332,4.073 C48.678,2.309 46.814,1.373 45.174,1.983 C44.631,2.184 44.192,2.539 43.854,2.974 C43.135,1.347 41.368,0.499 39.793,1.085 C39.488,1.198 39.223,1.369 38.979,1.564 C38.862,1.372 38.721,1.197 38.549,1.045 C37.235,-0.113 34.817,0.487 33.147,2.381 C32.495,3.121 32.061,3.948 31.842,4.752 C30.516,3.664 28.149,4.266 26.504,6.131 C24.834,8.028 24.545,10.502 25.859,11.66 C27.172,12.817 29.591,12.219 31.261,10.323 C31.267,10.317 31.271,10.31 31.275,10.304 C31.293,10.356 31.293,10.409 31.312,10.46 C32.103,12.589 34.884,13.522 37.521,12.54 C38.337,12.238 39.029,11.775 39.593,11.234 C39.628,11.365 39.65,11.497 39.697,11.626 C40.324,13.312 41.863,14.354 43.459,14.355 C43.449,14.796 43.522,15.251 43.686,15.696 C44.342,17.46 46.204,18.397 47.844,17.787 C48.576,17.516 49.127,16.976 49.469,16.313 C50.287,17.668 51.893,18.321 53.33,17.787 C54.974,17.179 55.772,15.254 55.118,13.491 Z" id="Shape" fill="#006977"></path>
                </g>
            </g>
        </g>
    </g>
</svg>