<?xml version="1.0" encoding="UTF-8"?>
<svg width="260px" height="260px" viewBox="0 0 260 260" version="1.1" xmlns="http://www.w3.org/2000/svg" xmlns:xlink="http://www.w3.org/1999/xlink">
    <!-- Generator: sketchtool 49 (51002) - http://www.bohemiancoding.com/sketch -->
    <title>E698A7A7-E3B2-41C4-8FD2-20870E2C18BC</title>
    <desc>Created with sketchtool.</desc>
    <defs>
        <circle id="path-1" cx="130" cy="130" r="130"></circle>
        <circle id="path-3" cx="130" cy="130" r="130"></circle>
        <rect id="path-5" x="6.6418289" y="6.89196633" width="105.741119" height="105.740319"></rect>
    </defs>
    <g id="MOBILE" stroke="none" stroke-width="1" fill="none" fill-rule="evenodd">
        <g id="How-to" transform="translate(-30.000000, -1656.000000)">
            <g id="Group-2-Copy-2" transform="translate(16.000000, 1364.000000)">
                <g id="Stacked-Group-2" transform="translate(14.000000, 36.000000)">
                    <g id="how-to-instagram-your-selfie" transform="translate(0.000000, 256.000000)">
                        <g id="Clipped">
                            <mask id="mask-2" fill="white">
                                <use xlink:href="#path-1"></use>
                            </mask>
                            <g id="SVGID_5_"></g>
                            <rect id="Rectangle-path" fill="#D4ECFF" fill-rule="nonzero" mask="url(#mask-2)" x="-10" y="-10" width="280" height="280"></rect>
                        </g>
                        <g id="Clipped">
                            <mask id="mask-4" fill="white">
                                <use xlink:href="#path-3"></use>
                            </mask>
                            <g id="SVGID_5_"></g>
                            <g id="Group" mask="url(#mask-4)">
                                <g transform="translate(-8.000000, 20.800000)">
                                    <path d="M191.26,120.7588 C151.188,115.8356 135.258,86.5208 98.206,90.5224 C69.24,93.6504 52.0936,113.2784 39.9896,115.6788 C27.7536,118.1052 18.2316,118.5808 5.2788,116.9836 L0.2768,245.1624 L71.5888,245.1624 L269.9952,245.1624 L269.9952,103.4652 C269.9952,103.4652 254.0132,128.4688 191.26,120.7588 Z" id="Shape" fill="#006977" fill-rule="nonzero"></path>
                                    <path d="M193.4424,129.816 C170.1228,128.0772 156.3108,155.3384 151.8976,173.6012 C145.5648,199.808 167.7976,208.8444 164.9988,233.9784 C173.1128,228.4708 185.42,246.0492 193.4284,249.3904 C201.74,226.5396 222.8616,209.614 229.3088,185.1116 C235.3404,162.1956 217.962,131.6444 193.4424,129.816 Z" id="Shape" fill="#FFC92D" fill-rule="nonzero"></path>
                                    <path d="M191.5548,184.1712 C188.5796,206.5912 167.9876,222.3552 145.5664,219.3796 L97.8632,213.0496 C75.442,210.0744 59.68,189.486 62.6552,167.0652 L80.074,35.7988 C83.0492,13.3756 103.636,-2.3872 126.0568,0.5884 L173.7596,6.9184 C196.1808,9.894 211.9488,30.4808 208.974,52.904 L191.5548,184.1712 Z" id="Shape" fill="#FFFFFF" fill-rule="nonzero"></path>
                                    <path d="M192.3676,205.9612 C171.8052,206.9564 144.3732,157.6624 122.53,184.8972 C113.0184,196.7564 118.3496,212.632 135.472,221.9684 C150.3288,230.0692 176.5544,236.3532 193.4284,249.3908 C193.4284,249.3908 192.9284,204.348 192.3676,205.9612 Z" id="Shape" fill="#FFC92D" fill-rule="nonzero"></path>
                                    <g id="Clipped" stroke-width="1" fill="none" fill-rule="evenodd" transform="translate(78.800000, 28.000000)">
                                        <mask id="mask-6" fill="white">
                                            <use xlink:href="#path-5"></use>
                                        </mask>
                                        <g id="SVGID_7_" transform="translate(59.512388, 59.762126) rotate(-172.356892) translate(-59.512388, -59.762126) "></g>
                                        <g id="Group" mask="url(#mask-6)">
                                            <g transform="translate(-78.800000, -24.000000)">
                                                <rect id="Rectangle-path" stroke="none" fill="#D4ECFF" fill-rule="nonzero" transform="translate(140.741415, 109.315839) rotate(-172.356892) translate(-140.741415, -109.315839) " x="43.7457569" y="12.3207806" width="193.991316" height="193.990116"></rect>
                                                <path d="M191.26,116.7588 C151.188,111.8356 135.258,82.5208 98.206,86.5224 C69.24,89.6504 52.0936,109.2784 39.9896,111.6788 C27.7536,114.1052 18.2316,114.5808 5.2788,112.9836 L0.2768,241.1624 L71.5888,241.1624 L269.9952,241.1624 L269.9952,99.4652 C269.9952,99.4652 254.0132,124.4688 191.26,116.7588 Z" id="Shape" stroke="none" fill="#006977" fill-rule="nonzero"></path>
                                                <path d="M173.2112,79.0144 C172.5728,74.142 164.2672,58.9416 167.7292,58.9136 C187.6864,58.7508 186.274,69.2108 184.5944,75.4568 C183.5476,79.3452 181.6848,88.202 177.6948,87.2228 C174.066,86.3312 173.8484,83.8864 173.2112,79.0144 Z" id="Shape" stroke="none" fill="#006977" fill-rule="nonzero"></path>
                                                <path d="M133.9692,38.676 L119.3056,108.8972" id="Shape" stroke="#3EA967" stroke-width="3.79704" fill="none" stroke-linecap="round" stroke-linejoin="round"></path>
                                                <path d="M124.55,62.5892 C125.998,54.9912 131.2692,43.1804 134.5604,38.994 C133.5724,39.386 132.3308,39.2988 131.2736,39.4624 C128.968,39.818 115.2464,40.762 110.6916,41.466 C106.8572,42.0588 68.9948,45.9256 68.3008,46.7984 C69.9024,47.6984 85.3824,54.8548 99.0704,63.2556 C110.6996,70.3932 120.8948,79.0272 121.6804,79.1272 C122.5472,79.2364 125.2404,80.3664 125.4316,80.7264 C125.432,80.726 123.106,70.1876 124.55,62.5892 Z" id="Shape" stroke="none" fill="#FFC92D" fill-rule="nonzero"></path>
                                                <path d="M160.2248,170.4912 C165.5396,153.9244 184.1332,116.8044 171.1812,108.9176 C162.2744,103.4944 110.9604,95.7532 100.9792,110.104 C90.9984,124.4528 96.3948,143.9756 95.208,161.2528 C94.0112,178.7136 155.4692,185.3148 160.2248,170.4912 Z" id="Shape" stroke="none" fill="#3EA967" fill-rule="nonzero"></path>
                                                <path d="M135.2776,80.89 C137.4692,64.554 149.4204,52.676 161.9724,54.3604 C170.7476,55.5376 179.4536,63.3944 180.2232,73.6548 C180.83,81.7356 181.4,90.03 172.9172,103.138 C169.9564,107.7132 162.826,109.548 161.5088,114.9048 C158.4884,115.5612 154.9464,115.2088 152.1104,114.826 C149.136,114.424 146.3808,113.9012 143.998,112.518 C145.6176,107.9172 139.7064,102.5256 137.9356,97.5208 C136.0312,92.1364 134.52,86.5352 135.2776,80.89 Z" id="Shape" stroke="none" fill="#FFC92D" fill-rule="nonzero"></path>
                                                <path d="M179.9604,122.146 C174.152,122.1916 159.9196,122.4464 161.4476,115.1544 C161.466,115.07 161.488,114.9884 161.5088,114.9052 C158.4884,115.5616 154.9464,115.2092 152.1104,114.8264 C149.136,114.4244 146.3808,113.9016 143.998,112.5184 C143.9652,112.612 143.9356,112.7064 143.8948,112.7992 C141.9244,117.4604 130.5332,111.836 124.8784,112.5904 C109.5284,114.6372 100.1212,132.8612 94.6792,144.8764 C93.3792,147.7476 91.714,152.0048 90.3916,156.5404 C93.7244,156.842 98.9168,157.2712 100.536,157.7408 C103.6804,158.6536 107.3644,159.6112 110.1312,161.5324 C112.2408,150.6544 114.0252,138.1988 116.8772,137.364 C121.5556,135.994 183.3652,169.218 183.5296,158.4 C183.9488,130.8072 187.8348,122.0832 179.9604,122.146 Z" id="Shape" stroke="none" fill="#006977" fill-rule="nonzero"></path>
                                                <path d="M144.4028,69.4792 C146.7604,65.1684 151.2508,61.7084 161.2108,65.2228 C170.3432,68.4464 178.7124,66.5824 176.8252,52.0872 C173.2952,54.948 171.0864,56.6524 166.438,55.3608 C163.578,54.5656 160.0776,53.812 156.7896,52.7272 C139.808,47.1212 135.3432,59.6152 134.6472,66.0448 C134.2156,70.0488 131.7652,77.542 135.8388,78.0736 C139.544,78.5572 142.0436,73.7904 144.4028,69.4792 Z" id="Shape" stroke="none" fill="#006977" fill-rule="nonzero"></path>
                                            </g>
                                        </g>
                                    </g>
                                    <g id="Group" stroke-width="1" fill="none" fill-rule="evenodd" transform="translate(93.600000, 147.600000)">
                                        <path d="M3.338,7.58 C3.2904,7.5224 3.2756,7.458 3.2948,7.3848 L3.7336,5.9008 L2.4924,5.7344 C2.4088,5.7232 2.3444,5.6888 2.2964,5.6324 C2.25,5.5752 2.2308,5.5056 2.2428,5.4228 L2.2964,5.0256 C2.3064,4.9432 2.3432,4.8804 2.4028,4.8376 C2.4636,4.7952 2.5356,4.7792 2.6188,4.7904 L3.9968,4.9752 L4.6172,2.8084 L3.2376,2.6232 C3.1556,2.612 3.0912,2.578 3.044,2.5212 C2.996,2.4644 2.978,2.3944 2.9892,2.312 L3.0428,1.9144 C3.054,1.832 3.0896,1.7692 3.1504,1.7264 C3.2112,1.684 3.2824,1.6684 3.3644,1.68 L4.8924,1.8848 L5.3188,0.3992 C5.3452,0.3272 5.3876,0.2696 5.444,0.2264 C5.5008,0.1836 5.5652,0.1676 5.64,0.1772 L6.0624,0.2336 C6.1372,0.2436 6.196,0.2768 6.2384,0.3336 C6.2808,0.3888 6.2936,0.454 6.276,0.5276 L5.8488,2.0128 L7.7116,2.2628 L8.138,0.7776 C8.164,0.7052 8.2068,0.6476 8.2628,0.6048 C8.32,0.5616 8.3848,0.5452 8.4588,0.5548 L8.8812,0.6124 C8.9564,0.6212 9.0152,0.6548 9.0572,0.7112 C9.1008,0.768 9.1128,0.8324 9.0948,0.9052 L8.6684,2.3908 L9.898,2.5556 C9.98,2.5668 10.0432,2.6008 10.0856,2.6568 C10.1288,2.7136 10.1444,2.7828 10.1344,2.866 L10.0808,3.2628 C10.07,3.3456 10.036,3.408 9.9792,3.452 C9.9224,3.4948 9.854,3.5104 9.7712,3.4992 L8.404,3.3164 L7.7856,5.4836 L9.1516,5.6668 C9.2336,5.6776 9.2972,5.7112 9.34,5.768 C9.3828,5.8248 9.3988,5.894 9.388,5.9768 L9.3352,6.374 C9.324,6.4568 9.2892,6.5192 9.2328,6.5628 C9.178,6.6056 9.1072,6.6212 9.0244,6.6104 L7.5096,6.4072 L7.0824,7.892 C7.056,7.9648 7.0148,8.022 6.958,8.0656 C6.9024,8.1084 6.8368,8.1252 6.762,8.1152 L6.34,8.058 C6.2652,8.0484 6.2044,8.0148 6.158,7.958 C6.11,7.9012 6.0956,7.8356 6.1144,7.7628 L6.5528,6.2792 L4.6912,6.0292 L4.264,7.514 C4.2372,7.5864 4.196,7.644 4.1396,7.6868 C4.0828,7.73 4.0184,7.7464 3.9436,7.7364 L3.52,7.68 C3.4452,7.6704 3.3844,7.6364 3.338,7.58 Z M4.9652,5.1052 L6.816,5.3536 L7.436,3.186 L5.5852,2.9384 L4.9652,5.1052 Z" id="Shape" fill="#006977" fill-rule="nonzero"></path>
                                        <path d="M10.96,9.0896 C10.914,9.0284 10.8964,8.9568 10.9072,8.8736 L11.6976,2.9868 C11.7084,2.9044 11.7448,2.8396 11.806,2.7932 C11.8668,2.7464 11.9384,2.7284 12.0216,2.7392 L12.5556,2.8112 C12.6468,2.8236 12.714,2.8576 12.7568,2.9148 C12.8,2.9712 12.8152,3.044 12.8028,3.1356 L12.7292,3.6816 C13.0184,3.4084 13.338,3.2112 13.6876,3.09 C14.036,2.968 14.4552,2.9404 14.9436,3.006 C15.7392,3.1124 16.3212,3.4496 16.6924,4.0176 C17.0624,4.5856 17.1916,5.2884 17.0792,6.124 L16.608,9.6388 C16.5972,9.722 16.56,9.786 16.4996,9.8332 C16.4388,9.88 16.3668,9.8968 16.2828,9.886 L15.7124,9.8096 C15.6292,9.7988 15.5652,9.7628 15.518,9.7012 C15.472,9.6404 15.454,9.5684 15.4652,9.4852 L15.9264,6.0452 C16.0068,5.4496 15.9236,4.966 15.6788,4.5956 C15.4336,4.226 15.0412,4.0044 14.5032,3.9324 C13.974,3.8616 13.5288,3.9728 13.1696,4.2656 C12.8092,4.5584 12.5904,4.9988 12.5108,5.5872 L12.0508,9.028 C12.0392,9.1104 12.0032,9.1744 11.9424,9.222 C11.8816,9.268 11.8092,9.2856 11.7264,9.2744 L11.1552,9.198 C11.0724,9.186 11.0076,9.1508 10.96,9.0896 Z" id="Shape" fill="#006977" fill-rule="nonzero"></path>
                                        <path d="M19.3924,2.4076 C19.3456,2.3472 19.3284,2.2748 19.3396,2.1916 L19.426,1.5464 C19.4368,1.4632 19.4728,1.3964 19.5344,1.3456 C19.596,1.2952 19.668,1.2748 19.7508,1.2864 L20.4836,1.3844 C20.5664,1.396 20.6328,1.4344 20.6828,1.5 C20.7328,1.566 20.7528,1.6404 20.7416,1.7228 L20.6548,2.3684 C20.6444,2.4516 20.6052,2.516 20.5404,2.562 C20.4752,2.6072 20.4016,2.6248 20.3176,2.614 L19.5856,2.516 C19.504,2.504 19.44,2.4688 19.3924,2.4076 Z M18.462,10.0956 C18.4152,10.0344 18.3976,9.9628 18.4084,9.88 L19.1984,3.9928 C19.2096,3.9108 19.2456,3.8464 19.3068,3.7992 C19.3676,3.7524 19.44,3.7348 19.5228,3.746 L20.0688,3.8196 C20.152,3.8304 20.2168,3.866 20.2636,3.9272 C20.3096,3.9892 20.3272,4.0604 20.3164,4.1436 L19.5264,10.0296 C19.516,10.1132 19.4792,10.1772 19.418,10.2244 C19.3572,10.2708 19.2852,10.2884 19.2024,10.2776 L18.6556,10.204 C18.5732,10.1924 18.5084,10.1572 18.462,10.0956 Z" id="Shape" fill="#006977" fill-rule="nonzero"></path>
                                        <path d="M21.974,9.9732 C21.5392,9.3796 21.3584,8.6244 21.4312,7.7064 L21.4756,7.282 L21.5428,6.8736 C21.7128,5.986 22.0848,5.3116 22.6616,4.8492 C23.238,4.3876 23.9476,4.2124 24.7924,4.3256 C25.7036,4.4484 26.3692,4.8328 26.7932,5.4792 C27.2172,6.1264 27.3616,6.9464 27.228,7.9396 L27.198,8.1632 C27.1872,8.2464 27.1508,8.3112 27.0896,8.3576 C27.0284,8.4036 26.9568,8.4216 26.8748,8.4108 L22.5652,7.8328 L22.55,7.9444 C22.5028,8.486 22.6064,8.968 22.8616,9.3892 C23.1164,9.8116 23.4972,10.056 24.0016,10.124 C24.3916,10.1764 24.718,10.1428 24.9836,10.0216 C25.2476,9.9016 25.4532,9.7664 25.6,9.6176 C25.6876,9.5276 25.754,9.476 25.7976,9.4604 C25.842,9.4456 25.9136,9.4448 26.0136,9.458 L26.5596,9.5316 C26.6344,9.5412 26.696,9.5708 26.7432,9.6192 C26.7924,9.668 26.8116,9.7256 26.8024,9.792 C26.7784,9.9736 26.6368,10.1784 26.3788,10.4052 C26.1204,10.6316 25.7752,10.8108 25.3396,10.9424 C24.904,11.0728 24.4216,11.1024 23.8924,11.032 C23.048,10.9196 22.4084,10.5656 21.974,9.9732 Z M26.1424,7.4536 L26.1472,7.416 C26.2252,6.8364 26.1312,6.344 25.8664,5.9372 C25.5996,5.5308 25.2016,5.292 24.6724,5.2208 C24.134,5.1484 23.688,5.274 23.332,5.5972 C22.9768,5.9204 22.76,6.372 22.6824,6.9512 L22.6776,6.9888 L26.1424,7.4536 Z" id="Shape" fill="#006977" fill-rule="nonzero"></path>
                                        <path d="M28.8956,10.9204 C28.4708,10.3404 28.3008,9.6224 28.3812,8.7652 L28.4408,8.2292 L28.5244,7.6968 C28.6728,6.8492 29.0304,6.2016 29.6008,5.7552 C30.17,5.3092 30.9024,5.1464 31.7964,5.2656 C32.6904,5.386 33.3528,5.7364 33.7856,6.3164 C34.218,6.8968 34.3932,7.616 34.312,8.4732 C34.3036,8.6576 34.288,8.8372 34.2656,9.0108 C34.2424,9.1848 34.2092,9.362 34.1692,9.5416 C34.0212,10.3896 33.6656,11.038 33.1052,11.4848 C32.5432,11.932 31.8076,12.094 30.8964,11.9724 C29.986,11.8504 29.3188,11.4992 28.8956,10.9204 Z M32.3504,10.7072 C32.7052,10.4136 32.938,9.954 33.0472,9.328 C33.0664,9.2468 33.0916,9.0896 33.1236,8.858 C33.1544,8.626 33.17,8.468 33.1744,8.3844 C33.2336,7.7516 33.13,7.2464 32.8652,6.87 C32.5992,6.4932 32.202,6.2684 31.6712,6.198 C31.1416,6.1268 30.6996,6.2376 30.3436,6.5312 C29.988,6.8248 29.756,7.2856 29.6472,7.9112 L29.5712,8.3812 L29.52,8.8552 C29.4608,9.4872 29.564,9.992 29.8288,10.3692 C30.0948,10.746 30.492,10.97 31.0212,11.0416 C31.552,11.112 31.994,11.0008 32.3504,10.7072 Z" id="Shape" fill="#006977" fill-rule="nonzero"></path>
                                        <path d="M35.8972,11.784 C35.5376,11.162 35.3992,10.4188 35.482,9.5536 L35.5192,9.1792 L35.5812,8.8076 C35.73,7.9596 36.06,7.2816 36.5756,6.7732 C37.09,6.2648 37.7784,6.0684 38.6388,6.1836 C39.5,6.2992 40.13,6.6956 40.5284,7.3724 L40.9132,4.504 C40.924,4.4216 40.9604,4.3568 41.0216,4.31 C41.0824,4.2636 41.1536,4.2456 41.2372,4.2568 L41.7956,4.3316 C41.8784,4.3424 41.9428,4.3792 41.99,4.44 C42.0372,4.5016 42.0544,4.5736 42.0436,4.6556 L40.9368,12.9028 C40.926,12.9852 40.89,13.0496 40.828,13.0964 C40.7672,13.1436 40.6952,13.1604 40.6132,13.1496 L40.0796,13.078 C39.996,13.0672 39.9332,13.0316 39.8912,12.9704 C39.8488,12.9104 39.8332,12.8384 39.8444,12.7552 L39.9168,12.2216 C39.3592,12.7876 38.6344,13.0104 37.74,12.8908 C36.87,12.774 36.256,12.4052 35.8972,11.784 Z M39.4872,11.5512 C39.8288,11.2052 40.0464,10.7684 40.144,10.2416 C40.1644,10.1524 40.1896,9.9956 40.2192,9.772 C40.2504,9.54 40.2676,9.3784 40.2716,9.286 C40.3232,8.7784 40.2224,8.32 39.9692,7.9112 C39.7156,7.5024 39.3092,7.2596 38.7452,7.1844 C38.1492,7.1044 37.69,7.2328 37.3664,7.5684 C37.0432,7.9044 36.828,8.3732 36.7224,8.974 L36.6616,9.3324 C36.4492,10.9216 36.93,11.796 38.1052,11.9532 C38.6852,12.0308 39.1448,11.8968 39.4872,11.5512 Z" id="Shape" fill="#006977" fill-rule="nonzero"></path>
                                        <path d="M42.8776,13.3716 C42.8312,13.3104 42.8136,13.2388 42.8244,13.1556 L43.9312,4.9092 C43.9432,4.8184 43.9792,4.7516 44.04,4.7092 C44.1008,4.6668 44.172,4.6512 44.254,4.662 L44.8,4.7356 C44.8836,4.7468 44.9488,4.7828 44.9952,4.844 C45.0412,4.9048 45.0592,4.9772 45.048,5.06 L43.942,13.3064 C43.9308,13.3888 43.894,13.4532 43.8332,13.5004 C43.7724,13.5464 43.7012,13.564 43.618,13.5532 L43.0712,13.4796 C42.9896,13.4684 42.9244,13.4328 42.8776,13.3716 Z" id="Shape" fill="#006977" fill-rule="nonzero"></path>
                                        <path d="M46.39,13.2484 C45.9552,12.6548 45.7748,11.8996 45.8468,10.9816 L45.8908,10.558 L45.9584,10.1496 C46.1276,9.2616 46.5008,8.5868 47.0776,8.1248 C47.6536,7.6632 48.364,7.488 49.2084,7.6016 C50.1188,7.724 50.7856,8.1084 51.2092,8.7548 C51.6324,9.402 51.7764,10.2216 51.6436,11.2152 L51.614,11.4388 C51.6024,11.522 51.5672,11.5864 51.506,11.6328 C51.4444,11.6796 51.3724,11.6972 51.2904,11.6864 L46.9804,11.108 L46.966,11.2196 C46.9184,11.7612 47.022,12.2436 47.2772,12.6644 C47.5328,13.0868 47.9132,13.3312 48.4176,13.3992 C48.808,13.4516 49.1336,13.418 49.3988,13.2972 C49.6636,13.1768 49.8696,13.0424 50.0164,12.8928 C50.104,12.8032 50.1692,12.7512 50.2128,12.7364 C50.258,12.7208 50.3292,12.72 50.4288,12.7336 L50.9756,12.8072 C51.0504,12.8164 51.1112,12.8464 51.1596,12.8948 C51.2076,12.9436 51.2272,13.0008 51.2192,13.0672 C51.194,13.2492 51.0528,13.454 50.7944,13.6804 C50.536,13.9072 50.1904,14.0868 49.7556,14.2176 C49.32,14.3488 48.838,14.3788 48.3088,14.3076 C47.464,14.1948 46.8248,13.8416 46.39,13.2484 Z M50.5588,10.7292 L50.5636,10.6916 C50.6408,10.1124 50.5476,9.6192 50.2816,9.2124 C50.016,8.8064 49.618,8.5672 49.0888,8.496 C48.55,8.4236 48.1028,8.5504 47.7476,8.8724 C47.3928,9.196 47.1764,9.6476 47.0984,10.2268 L47.0932,10.264 L50.5588,10.7292 Z" id="Shape" fill="#006977" fill-rule="nonzero"></path>
                                        <path d="M53.3576,17.2868 C52.9748,16.9996 52.7184,16.6956 52.5892,16.3748 C52.4592,16.0536 52.4092,15.786 52.438,15.5708 C52.448,15.496 52.4848,15.436 52.5508,15.3896 C52.6152,15.3436 52.6852,15.326 52.7596,15.336 L53.3064,15.4088 C53.3804,15.4188 53.44,15.4464 53.4844,15.4896 C53.5296,15.534 53.5616,15.6076 53.5824,15.712 C53.724,16.4044 54.2056,16.8064 55.0248,16.9172 C55.646,17 56.1224,16.9296 56.4568,16.7048 C56.79,16.4796 57.002,16.0312 57.0928,15.3612 L57.2084,14.5044 C56.6448,15.0528 55.9332,15.2688 55.072,15.1536 C54.1944,15.0348 53.576,14.666 53.2168,14.0448 C52.8576,13.4236 52.7236,12.6808 52.8136,11.8168 L52.848,11.4672 L52.9056,11.1332 C53.0452,10.284 53.3704,9.6056 53.8812,9.0956 C54.3908,8.5872 55.0856,8.3916 55.9628,8.5088 C56.8332,8.6256 57.4692,9.0352 57.872,9.7388 L57.9436,9.2048 C57.9544,9.1216 57.9912,9.0552 58.0528,9.0044 C58.1136,8.9532 58.1864,8.9336 58.2684,8.9448 L58.8024,9.0164 C58.8856,9.028 58.9492,9.066 58.9964,9.1316 C59.0416,9.1964 59.0592,9.2708 59.0492,9.3532 L58.2408,15.3764 C57.9836,17.2896 56.8904,18.1164 54.9616,17.8576 C54.2752,17.764 53.7404,17.5744 53.3576,17.2868 Z M56.812,13.8252 C57.156,13.4876 57.3772,13.056 57.4728,12.5296 C57.4908,12.4564 57.5144,12.312 57.544,12.0964 C57.5712,11.8896 57.5868,11.748 57.588,11.6724 C57.6344,11.1392 57.5352,10.6644 57.2924,10.248 C57.0492,9.832 56.6368,9.5852 56.0572,9.5072 C55.4616,9.4268 55.004,9.5576 54.6836,9.898 C54.3636,10.2388 54.1512,10.7056 54.0468,11.2976 L53.9908,11.6196 L53.9588,11.9572 C53.9036,12.5564 53.9848,13.0628 54.2036,13.4752 C54.4216,13.888 54.8288,14.134 55.4256,14.2144 C56.0068,14.292 56.4676,14.1616 56.812,13.8252 Z" id="Shape" fill="#006977" fill-rule="nonzero"></path>
                                        <path d="M60.2028,15.6956 C60.1556,15.6344 60.1376,15.5624 60.1488,15.4796 L61.256,7.2332 C61.2672,7.142 61.3044,7.0756 61.3652,7.0332 C61.424,6.9908 61.4952,6.9748 61.5792,6.9864 L62.1252,7.06 C62.2088,7.0708 62.2728,7.1068 62.3188,7.168 C62.366,7.2292 62.384,7.3012 62.3728,7.3836 L61.266,15.63 C61.2556,15.7132 61.2192,15.7776 61.158,15.8244 C61.0964,15.8708 61.0252,15.8884 60.9424,15.8772 L60.396,15.8036 C60.3132,15.7928 60.2488,15.7568 60.2028,15.6956 Z" id="Shape" fill="#006977" fill-rule="nonzero"></path>
                                        <path d="M63.7728,16.1304 C63.4512,15.9188 63.2088,15.6564 63.0436,15.3432 C62.8796,15.0304 62.8196,14.7004 62.8672,14.3524 C62.9408,13.806 63.224,13.3888 63.7172,13.1008 C64.2112,12.8128 64.8508,12.6632 65.6364,12.6504 L67.5344,12.64 L67.5828,12.28 C67.6972,11.4268 67.2616,10.9348 66.2764,10.8024 C65.8956,10.7516 65.5788,10.7864 65.3276,10.9088 C65.074,11.0312 64.8804,11.188 64.7452,11.3816 C64.7008,11.4592 64.6584,11.5108 64.6168,11.5344 C64.5756,11.5584 64.5232,11.5664 64.456,11.5572 L63.9712,11.4932 C63.8972,11.4828 63.8368,11.4468 63.79,11.3856 C63.7432,11.3244 63.7256,11.2564 63.7348,11.1824 C63.7604,10.992 63.8788,10.7824 64.0912,10.5536 C64.3032,10.3256 64.608,10.1432 65.0056,10.0064 C65.4028,9.87 65.8704,9.8384 66.4096,9.9104 C67.336,10.0348 67.972,10.3392 68.316,10.8236 C68.6596,11.3084 68.7892,11.8728 68.7024,12.5188 L68.1608,16.5548 C68.15,16.638 68.1132,16.7024 68.0524,16.7492 C67.9908,16.796 67.9188,16.8132 67.8356,16.8028 L67.2896,16.7284 C67.2076,16.718 67.1452,16.6824 67.102,16.6216 C67.06,16.5608 67.044,16.4892 67.0556,16.4068 L67.1292,15.86 C66.91,16.1088 66.614,16.3012 66.2416,16.4364 C65.8704,16.572 65.4104,16.6024 64.864,16.5296 C64.4584,16.4752 64.0944,16.342 63.7728,16.1304 Z M66.646,15.3024 C67.0408,14.9932 67.2848,14.4984 67.3756,13.8196 L67.4228,13.472 L65.9408,13.4884 C65.3336,13.4912 64.8636,13.5712 64.5312,13.7288 C64.198,13.8868 64.0112,14.1144 63.9716,14.4128 C63.9256,14.7528 64.0292,15.0316 64.2824,15.2508 C64.5352,15.4704 64.852,15.6056 65.2324,15.6564 C65.7796,15.7292 66.2504,15.6116 66.646,15.3024 Z" id="Shape" fill="#006977" fill-rule="nonzero"></path>
                                        <path d="M1.2536,23.1188 C1.2056,23.0616 1.1912,22.9968 1.21,22.9232 L1.6496,21.4396 L0.4072,21.2732 C0.3248,21.262 0.26,21.228 0.212,21.1708 C0.166,21.114 0.1476,21.0444 0.1584,20.9616 L0.2112,20.5648 C0.222,20.4816 0.2592,20.4192 0.3196,20.3764 C0.3792,20.334 0.4504,20.318 0.5348,20.3292 L1.9128,20.5148 L2.5328,18.3476 L1.1536,18.1624 C1.0716,18.1512 1.006,18.1168 0.9592,18.0604 C0.912,18.0032 0.8936,17.9336 0.9052,17.8508 L0.9584,17.4532 C0.9696,17.3712 1.0052,17.3076 1.0656,17.2656 C1.1264,17.2232 1.198,17.2072 1.2804,17.2188 L2.808,17.4236 L3.234,15.938 C3.2608,15.8656 3.3032,15.8084 3.3592,15.7652 C3.4156,15.7228 3.4812,15.706 3.5556,15.716 L3.978,15.7728 C4.0524,15.7824 4.112,15.8156 4.154,15.8724 C4.1964,15.928 4.2092,15.9928 4.1904,16.0664 L3.764,17.5524 L5.6272,17.8016 L6.0536,16.3164 C6.0808,16.2436 6.122,16.1872 6.1788,16.144 C6.2352,16.1004 6.3008,16.0844 6.3748,16.0944 L6.7968,16.1512 C6.8716,16.1604 6.9308,16.1936 6.9732,16.25 C7.0164,16.3068 7.028,16.3716 7.0108,16.4444 L6.5844,17.9296 L7.8136,18.0948 C7.8964,18.1056 7.9584,18.1392 8.0012,18.196 C8.0448,18.2524 8.0608,18.3212 8.0492,18.4048 L7.9964,18.8016 C7.9856,18.8848 7.9516,18.9468 7.8956,18.9904 C7.8388,19.0336 7.7696,19.0496 7.6872,19.0384 L6.32,18.8552 L5.7004,21.0224 L7.066,21.206 C7.1496,21.2168 7.212,21.2504 7.256,21.3072 C7.2984,21.364 7.3148,21.4324 7.3036,21.516 L7.2496,21.9132 C7.2388,21.9956 7.2052,22.0588 7.1492,22.1016 C7.0928,22.1448 7.0232,22.1604 6.9404,22.1496 L5.4252,21.946 L4.998,23.4312 C4.972,23.504 4.9304,23.5612 4.874,23.6044 C4.8176,23.6476 4.7524,23.6636 4.678,23.6536 L4.2556,23.5972 C4.1808,23.5872 4.12,23.5536 4.0736,23.4968 C4.0256,23.4396 4.0112,23.3748 4.0304,23.3016 L4.4696,21.818 L2.6064,21.568 L2.1792,23.0532 C2.1528,23.1256 2.112,23.1836 2.0552,23.226 C1.9992,23.2692 1.9336,23.2856 1.8588,23.2756 L1.4368,23.2192 C1.3612,23.2088 1.2996,23.1752 1.2536,23.1188 Z M2.8804,20.6444 L4.7312,20.8924 L5.3508,18.7252 L3.5004,18.4768 L2.8804,20.6444 Z" id="Shape" fill="#006977" fill-rule="nonzero"></path>
                                        <path d="M10.2472,24.8188 C10.1964,24.7612 10.1604,24.676 10.1424,24.564 L9.152,18.5648 L9.1436,18.4376 C9.1536,18.3628 9.1868,18.3048 9.2432,18.2612 C9.2996,18.2184 9.3648,18.202 9.4392,18.212 L9.9476,18.28 C10.0316,18.2912 10.0968,18.3236 10.1448,18.3764 C10.1912,18.4288 10.2168,18.4768 10.22,18.5192 L10.986,23.4512 L13.1052,18.9692 C13.1308,18.9048 13.176,18.8504 13.2412,18.8044 C13.306,18.7576 13.3888,18.7416 13.488,18.7548 L13.8852,18.808 C13.9844,18.8212 14.0592,18.8592 14.1104,18.9208 C14.1612,18.9828 14.1896,19.0472 14.198,19.1156 L15.0608,23.9976 L17.1,19.4416 C17.1128,19.4008 17.15,19.3624 17.21,19.3236 C17.27,19.2852 17.3416,19.2712 17.4244,19.282 L17.9328,19.3508 C18.0084,19.3612 18.0664,19.394 18.11,19.4504 C18.1524,19.5072 18.1692,19.5724 18.1592,19.6468 L18.1176,19.7676 L15.5804,25.2936 C15.5332,25.3964 15.4768,25.4696 15.4124,25.5112 C15.3476,25.5528 15.2572,25.5664 15.1412,25.5512 L14.6944,25.4912 C14.4792,25.462 14.3528,25.34 14.3136,25.1236 L13.4636,20.4328 L11.4076,24.734 C11.3132,24.932 11.1596,25.0164 10.944,24.9876 L10.4968,24.928 C10.3824,24.9124 10.2992,24.876 10.2472,24.8188 Z" id="Shape" fill="#006977" fill-rule="nonzero"></path>
                                        <path d="M19.3576,28.4424 C19.314,28.386 19.2968,28.3248 19.3052,28.2588 C19.3092,28.2336 19.34,28.1624 19.3984,28.0432 L20.6716,25.9008 L19.0512,19.9816 C19.0144,19.8752 18.9988,19.8016 19.0052,19.76 C19.0228,19.6868 19.0608,19.6288 19.1164,19.5856 C19.1732,19.5424 19.234,19.5256 19.3,19.534 L19.8724,19.6108 C20.0044,19.6284 20.0952,19.7084 20.1432,19.8496 L21.4428,24.676 L24.0184,20.3688 C24.102,20.2456 24.21,20.1924 24.3428,20.2104 L24.9012,20.2856 C24.9684,20.2944 25.0224,20.3272 25.0652,20.384 C25.1084,20.44 25.1252,20.5012 25.1168,20.5676 C25.1088,20.6256 25.0784,20.6972 25.0252,20.7828 L20.4168,28.458 C20.366,28.5184 20.3164,28.5628 20.266,28.59 C20.2168,28.6164 20.154,28.6252 20.08,28.6152 L19.5336,28.542 C19.4584,28.5324 19.4008,28.4992 19.3576,28.4424 Z" id="Shape" fill="#006977" fill-rule="nonzero"></path>
                                        <path d="M25.9084,26.3572 C25.4788,25.7896 25.3124,25.052 25.4084,24.1472 L25.4628,23.6488 L25.5412,23.1536 C25.6872,22.2548 26.042,21.5884 26.6068,21.154 C27.1704,20.7196 27.8948,20.5616 28.7812,20.6804 C29.3772,20.7604 29.8664,20.9332 30.2476,21.1996 C30.6296,21.4656 30.8996,21.7696 31.0612,22.1116 C31.2212,22.4532 31.2888,22.7824 31.2632,23.0996 C31.2616,23.1748 31.2256,23.238 31.156,23.2876 C31.0856,23.3368 31.014,23.3568 30.94,23.3468 L30.3928,23.2736 C30.31,23.2624 30.2504,23.2352 30.2148,23.1924 C30.1772,23.15 30.1456,23.076 30.1172,22.9704 C30.0232,22.5452 29.8572,22.2304 29.6184,22.0252 C29.3812,21.8208 29.0632,21.6916 28.6652,21.6384 C28.1444,21.5684 27.7084,21.674 27.358,21.956 C27.008,22.238 26.7772,22.708 26.6624,23.3668 L26.592,23.8004 L26.5468,24.2364 C26.4828,24.9024 26.5816,25.4168 26.8448,25.7804 C27.1072,26.1448 27.5016,26.362 28.0216,26.4316 C28.4268,26.4864 28.77,26.446 29.0496,26.31 C29.3284,26.1748 29.5704,25.9144 29.774,25.5288 C29.8288,25.4352 29.8788,25.3724 29.9252,25.3408 C29.9724,25.3088 30.0364,25.2992 30.1196,25.3096 L30.666,25.3832 C30.7404,25.3932 30.8048,25.4316 30.8588,25.4976 C30.9128,25.564 30.9308,25.6336 30.9128,25.7072 C30.8552,26.0112 30.7044,26.3068 30.4596,26.5948 C30.2144,26.8824 29.872,27.1056 29.4332,27.266 C28.9944,27.426 28.4768,27.466 27.8816,27.3864 C26.9948,27.2676 26.3376,26.9248 25.9084,26.3572 Z" id="Shape" fill="#006977" fill-rule="nonzero"></path>
                                        <path d="M31.8144,27.7064 C31.7672,27.6448 31.7504,27.5728 31.7612,27.49 L31.816,27.0804 C31.8252,27.014 31.8524,26.948 31.8996,26.8828 C31.9464,26.8172 31.994,26.7588 32.0432,26.7064 L36.0996,22.7628 L32.8576,22.3276 C32.7756,22.3168 32.7128,22.2808 32.6708,22.22 C32.6284,22.1596 32.6124,22.088 32.6236,22.006 L32.6748,21.6208 C32.6864,21.5376 32.7204,21.4728 32.7772,21.426 C32.834,21.378 32.904,21.36 32.9864,21.3708 L37.3828,21.9612 C37.4656,21.9716 37.5296,22.0084 37.5764,22.0696 C37.6236,22.1308 37.6416,22.2028 37.6308,22.2852 L37.5724,22.72 C37.56,22.8116 37.4848,22.9316 37.3472,23.0812 L33.3412,27.02 L36.8928,27.4964 C36.984,27.5088 37.0516,27.5428 37.0944,27.5996 C37.1372,27.6556 37.1528,27.7292 37.1408,27.8204 L37.0892,28.2056 C37.0784,28.288 37.0416,28.3528 36.9808,28.3996 C36.92,28.4464 36.8476,28.464 36.7648,28.4532 L32.0092,27.8144 C31.926,27.8032 31.8604,27.7672 31.8144,27.7064 Z" id="Shape" fill="#006977" fill-rule="nonzero"></path>
                                        <path d="M39.0536,31.0852 C39.0108,31.0288 38.9944,30.9676 39.0028,30.9012 C39.0064,30.8764 39.0364,30.8048 39.0952,30.6864 L40.3684,28.5436 L38.7488,22.6244 C38.7112,22.518 38.6956,22.4444 38.7016,22.4028 C38.7208,22.3296 38.7568,22.2716 38.8136,22.2284 C38.8708,22.1848 38.9316,22.1688 38.9972,22.1768 L39.5692,22.2532 C39.7012,22.2716 39.7912,22.3508 39.84,22.4928 L41.14,27.3192 L43.7152,23.0116 C43.7996,22.8884 43.9072,22.8356 44.0404,22.8532 L44.5988,22.9284 C44.664,22.9372 44.7192,22.97 44.7624,23.0268 C44.8052,23.0832 44.822,23.1444 44.8132,23.2104 C44.8056,23.2684 44.7748,23.3396 44.7216,23.4256 L40.114,31.1012 C40.0624,31.1612 40.0124,31.2052 39.9632,31.2324 C39.9124,31.2592 39.8504,31.2672 39.776,31.2576 L39.23,31.1836 C39.1552,31.1752 39.0964,31.1416 39.0536,31.0852 Z" id="Shape" fill="#006977" fill-rule="nonzero"></path>
                                        <path d="M45.3256,29.5188 C45.2796,29.4576 45.262,29.386 45.2728,29.3028 L46.0624,23.4156 C46.074,23.3332 46.1096,23.2684 46.1708,23.222 C46.2328,23.1756 46.304,23.1576 46.3864,23.1684 L46.92,23.2404 C47.012,23.252 47.0792,23.2868 47.1224,23.3432 C47.1648,23.3996 47.1808,23.4732 47.1676,23.564 L47.0948,24.1108 C47.384,23.838 47.7032,23.6408 48.0524,23.5192 C48.402,23.3976 48.8212,23.3692 49.3096,23.4344 C50.1044,23.5412 50.6872,23.878 51.0576,24.4468 C51.428,25.0148 51.5568,25.7172 51.4452,26.5536 L50.9736,30.068 C50.9628,30.1508 50.926,30.2152 50.8656,30.2616 C50.8036,30.3084 50.7316,30.3264 50.6488,30.3148 L50.0776,30.2388 C49.9952,30.2276 49.9308,30.1916 49.884,30.1304 C49.8368,30.0692 49.82,29.9972 49.8312,29.9144 L50.2916,26.4744 C50.372,25.8784 50.2896,25.3952 50.044,25.0252 C49.7988,24.6552 49.4068,24.4336 48.8688,24.362 C48.3392,24.29 47.8936,24.4016 47.5344,24.6944 C47.1748,24.9876 46.956,25.4284 46.876,26.0164 L46.4152,29.4568 C46.4044,29.5396 46.3676,29.604 46.3068,29.6504 C46.246,29.6976 46.1736,29.7148 46.0916,29.704 L45.5196,29.6272 C45.4376,29.616 45.3728,29.5796 45.3256,29.5188 Z" id="Shape" fill="#006977" fill-rule="nonzero"></path>
                                        <path d="M55.0436,30.8224 C55.002,30.7616 54.9856,30.6904 54.9972,30.6072 L55.9368,23.6028 L53.6356,24.9252 C53.5708,24.9668 53.5056,24.9836 53.4396,24.9748 C53.3648,24.9652 53.3,24.914 53.2452,24.8224 L52.9984,24.3972 C52.9648,24.3332 52.9524,24.2724 52.96,24.2152 C52.9724,24.124 53.0224,24.0548 53.114,24.0076 L56.0892,22.2828 C56.1876,22.2372 56.2992,22.2224 56.4236,22.2392 L57.0072,22.3176 C57.0904,22.3284 57.1548,22.3648 57.2016,22.4256 C57.2472,22.4868 57.2656,22.5584 57.2548,22.6416 L56.1656,30.764 C56.154,30.8464 56.118,30.9112 56.0572,30.958 C55.9956,31.004 55.9244,31.022 55.8416,31.0112 L55.2324,30.9296 C55.1496,30.9184 55.0864,30.8824 55.0436,30.8224 Z" id="Shape" fill="#006977" fill-rule="nonzero"></path>
                                        <path d="M57.782,31.19 C57.7348,31.1288 57.7176,31.0572 57.7292,30.9736 L57.7792,30.6012 C57.8044,30.4108 57.9328,30.2424 58.1628,30.0968 L61.232,27.7644 C61.9144,27.3252 62.3944,26.9556 62.6704,26.6552 C62.9464,26.3556 63.11,26.0192 63.16,25.6468 C63.2252,25.1584 63.1396,24.7572 62.904,24.4424 C62.6676,24.1292 62.2896,23.9364 61.768,23.8672 C61.2712,23.8008 60.8584,23.8924 60.53,24.1432 C60.2004,24.394 59.9704,24.7588 59.8388,25.2388 C59.8092,25.328 59.7588,25.3928 59.686,25.4336 C59.6124,25.474 59.5436,25.4908 59.4776,25.4808 L58.8816,25.4012 C58.8072,25.3916 58.7476,25.3576 58.7052,25.302 C58.6624,25.2452 58.6452,25.184 58.654,25.1176 C58.7292,24.6816 58.9044,24.2724 59.1792,23.8924 C59.4532,23.512 59.8228,23.2204 60.2892,23.0172 C60.754,22.814 61.2932,22.754 61.9064,22.836 C62.8328,22.9604 63.498,23.296 63.9004,23.8432 C64.3036,24.3904 64.4556,25.0364 64.356,25.782 C64.2856,26.3036 64.096,26.7564 63.7876,27.1404 C63.4792,27.5244 63.024,27.9124 62.424,28.304 L59.6436,30.4596 L63.556,30.9848 C63.6476,30.9964 63.7144,31.0308 63.7572,31.0876 C63.8008,31.144 63.8156,31.2176 63.8036,31.3084 L63.7408,31.7804 C63.7288,31.8632 63.6928,31.928 63.632,31.9748 C63.5712,32.0212 63.4992,32.0388 63.4164,32.0276 L57.9768,31.298 C57.8936,31.2864 57.8292,31.2512 57.782,31.19 Z" id="Shape" fill="#006977" fill-rule="nonzero"></path>
                                    </g>
                                </g>
                            </g>
                        </g>
                    </g>
                </g>
            </g>
        </g>
    </g>
</svg>