<?xml version="1.0" encoding="UTF-8"?>
<svg width="260px" height="260px" viewBox="0 0 260 260" version="1.1" xmlns="http://www.w3.org/2000/svg" xmlns:xlink="http://www.w3.org/1999/xlink">
    <!-- Generator: sketchtool 49 (51002) - http://www.bohemiancoding.com/sketch -->
    <title>2B61D26B-B71B-4FBA-8615-481F93BCC51A</title>
    <desc>Created with sketchtool.</desc>
    <defs>
        <circle id="path-1" cx="130" cy="130" r="130"></circle>
    </defs>
    <g id="MOBILE" stroke="none" stroke-width="1" fill="none" fill-rule="evenodd">
        <g id="How-to" transform="translate(-30.000000, -452.000000)">
            <g id="Group-2" transform="translate(16.000000, 272.000000)">
                <g id="Stacked-Group-2" transform="translate(14.000000, 36.000000)">
                    <g id="how-to-choose-the-challenge" transform="translate(0.000000, 144.000000)">
                        <mask id="mask-2" fill="white">
                            <use xlink:href="#path-1"></use>
                        </mask>
                        <g id="SVGID_1_"></g>
                        <g id="Group" mask="url(#mask-2)">
                            <g transform="translate(-10.000000, -10.000000)">
                                <rect id="Rectangle-path" stroke="none" fill="#D4ECFF" fill-rule="nonzero" x="0" y="0" width="280" height="280"></rect>
                                <path d="M280,208.5892 C270.8448,207.8884 263.1136,205.8228 253.7592,202.5964 C232.1588,195.1472 213.0188,182.2328 190.1864,177.512 C179.478,175.2976 169.47,171.8968 159.2044,176.5024 C144.8836,182.928 118.8896,199.0016 102.9128,187.9372 C94.7528,182.2872 92.7936,171.6184 87.1368,164.3892 C82.6128,158.6084 78.7452,153.378 71.6736,149.7788 C63.7188,145.7312 50.1284,145.5464 40.8396,147.0292 C29.4064,148.8544 18.512,131.1148 7.3688,133.15 L15.136,260.0104 L280,260.0104 L280,208.5892 Z" id="Shape" stroke="none" fill="#006977" fill-rule="nonzero"></path>
                                <path d="M255.7744,201.204 C246.6932,198.8844 238.9648,199.2128 230.6672,201.7004 C223.2916,203.912 215.968,208.904 210.9092,213.2452 C204.5832,218.6752 201.918,224.6344 193.26,228.446 C176.3084,235.9108 152.06,219.386 138.4632,212.326 C128.7172,207.266 118.4436,208.972 107.5896,209.5992 C84.448,210.9352 64.1736,219.5916 41.9896,223.366 C29.6924,225.4584 20.2316,226.268 7.2788,224.6708 L2.2768,267.71 L73.5892,275.998 L271.9952,275.998 L271.9952,211.1524 C267.064,207.298 262.5212,202.9272 255.7744,201.204 Z" id="Shape" stroke="none" fill="#3EA967" fill-rule="nonzero"></path>
                                <path d="M117.7336,91.2492 C117.7336,91.2492 113.6904,98.2408 110.748,124.2848 C107.8052,150.328 110.938,211.0744 110.938,211.0744" id="Shape" stroke="#FFFFFF" stroke-width="3.69324" fill="none" stroke-linecap="round" stroke-linejoin="round"></path>
                                <path d="M146.9492,212.3472 C144.146,212.3472 141.7564,210.2076 141.4976,207.3616 L138.9628,179.45 C138.7924,177.5752 139.5964,175.7444 141.0912,174.6008 L149.7184,168.0032 C152.1232,166.1648 155.5624,166.6228 157.4016,169.0272 C159.2404,171.4316 158.782,174.8712 156.3776,176.7104 C156.3776,176.7104 151.47,176.7284 149.4144,181.4712 C147.3584,186.2136 152.414,206.3708 152.414,206.3708 C152.6876,209.3852 150.466,212.0508 147.4512,212.3248 C147.2832,212.34 147.1156,212.3472 146.9492,212.3472 Z" id="Shape" stroke="none" fill="#FFC92D" fill-rule="nonzero"></path>
                                <path d="M186.9324,229.2376 C185.0596,229.2376 183.2352,228.2768 182.2116,226.5484 L167.9308,202.4332 C166.9716,200.8132 166.9104,198.8148 167.77,197.1396 L172.7256,187.4752 C174.1068,184.7824 177.4096,183.7188 180.1032,185.0992 C182.7968,186.4804 183.8608,189.7836 182.4792,192.4772 C182.4792,192.4772 179.1392,197.2776 178.904,200.9292 C178.668,204.5804 191.6436,220.9632 191.6436,220.9632 C193.186,223.5676 192.3252,226.9296 189.7204,228.4716 C188.844,228.9904 187.882,229.2372 186.9324,229.2376 Z" id="Shape" stroke="none" fill="#FFC92D" fill-rule="nonzero"></path>
                                <polygon id="Shape" stroke="none" fill="#3EA967" fill-rule="nonzero" points="172.7508 212.3472 183.5984 208.4024 189.1456 216.6612 178.788 220.7664"></polygon>
                                <path d="M140.2648,195.528 C141.612,194.9772 151.6668,197.3304 151.6668,197.3304 L152.5196,207.242 L141.4696,205.8176 C141.4696,205.818 138.9172,196.0788 140.2648,195.528 Z" id="Shape" stroke="none" fill="#3EA967" fill-rule="nonzero"></path>
                                <path d="M158.1232,155.102 C158.4552,166.5468 135.0968,166.8168 144.516,177.8936 C146.6812,180.44 153.4664,192.2436 157.31,191.0148 C161.4176,189.7012 165.226,176.9116 170.6104,177.4724 C172.0436,181.376 166.6452,188.5692 170.1492,190.5924 C172.2196,191.7884 188.2488,193.6844 189.496,192.0316 C191.6212,189.2148 185.8096,169.0056 186.9272,160.176 C186.1356,160.7716 158.1232,155.102 158.1232,155.102 Z" id="Shape" stroke="none" fill="#3EA967" fill-rule="nonzero"></path>
                                <path d="M140.346,200.7952 C144.8188,200.7952 148.7272,200.7816 153.0484,201.3928 C153.3588,206.0528 153.9088,214.3876 154.1608,218.6752 C149.9716,218.8684 146.1784,217.3072 141.1832,217.0308 C137.5148,216.8276 133.4696,218.6652 129.4592,217.3788 C125.7324,216.1836 124.938,209.516 128.528,208.1456 C134.0588,206.0352 136.706,209.8004 140.964,209.202 C141.1028,207.6976 140.346,200.7952 140.346,200.7952 Z" id="Shape" stroke="none" fill="#FFFFFF" fill-rule="nonzero"></path>
                                <path d="M176.8728,219.6824 C180.6488,217.2852 184.6172,215.8368 188.5928,214.0368 C191.3532,217.8048 193.4452,225.1912 195.9564,228.6756 C192.5236,231.084 181.3224,235.4172 177.248,236.4816 C173.4612,237.47 167.8108,230.6468 170.1072,227.566 C173.6452,222.8192 179.3036,229.8944 182.5772,227.1068 C181.8876,225.762 176.8728,219.6824 176.8728,219.6824 Z" id="Shape" stroke="none" fill="#FFFFFF" fill-rule="nonzero"></path>
                                <path d="M44.2144,106.718 L45.6536,148.4372" id="Shape" stroke="#3EA967" stroke-width="2" fill="none" stroke-linecap="round" stroke-linejoin="round"></path>
                                <path d="M172.6468,57.2352 C165.1456,57.2352 158.3604,63.3828 158.2388,70.0736 C158.1644,74.1636 155.1992,73.4108 153.0376,74.9728 C149.3172,77.6608 149.6448,86.5772 157.8884,86.0292 C159.0208,89.5664 160.876,92.6132 163.222,94.846 L163.2176,94.846 C165.7632,97.3608 166.6876,98.688 166.8012,99.9596 C166.82,99.9476 166.8376,99.9376 166.8508,99.9332 C167.1724,99.8328 168.3428,100.852 168.7816,101.0444 C170.292,101.7068 171.6796,102.394 173.7264,102.1296 C175.7732,101.8652 177.8264,99.9716 178.5572,99.9268 C178.726,99.9164 178.9168,99.9256 179.106,99.9564 C179.4276,98.4192 180.1636,96.9116 181.386,95.4616 C182.038,94.906 182.6572,94.2908 183.2388,93.6204 C183.2388,93.6204 183.2392,93.62 183.2392,93.62 C186.5456,89.808 188.6324,84.244 188.6324,78.0424 C188.6332,66.5512 181.476,57.2352 172.6468,57.2352 Z" id="Shape" stroke="none" fill="#FFC92D" fill-rule="nonzero"></path>
                                <path d="M181.4356,72.1044 C179.4864,67.724 175.0772,63.8788 163.6532,65.94 C153.178,67.8316 144.2872,65.004 148.4828,51.5224 C151.9284,54.6788 154.0968,56.5724 159.3768,55.9404 C162.6272,55.5512 168.278,52.3232 171.9892,51.5204 C193.382,46.892 192.922,60.072 192.7388,66.2476 C192.6248,70.0924 192.922,78.7332 188.3824,78.7192 C184.2532,78.7056 183.3852,76.4844 181.4356,72.1044 Z" id="Shape" stroke="none" fill="#006977" fill-rule="nonzero"></path>
                                <path d="M124.4028,109.8124 C124.5632,109.078 125.3024,107.0332 126.0848,105.3864 C125.3744,104.9508 124.7444,104.4888 124.2348,103.9852 C121.8448,101.6248 123.3824,97.9304 120.2876,96.0964 C115.0792,93.0096 105.1832,95.796 105.1832,106.4256 C105.1832,117.7516 116.9072,115.2092 122.9332,117.1696 C123.3932,117.3196 123.8772,117.4772 124.3816,117.6412 C124.0824,115.4316 123.7668,112.7228 124.4028,109.8124 Z" id="Shape" stroke="none" fill="#FFC92D" fill-rule="nonzero"></path>
                                <path d="M179.5808,105.8488 C179.5396,105.4952 179.4564,105.11 179.338,104.6964 C178.8812,103.1056 178.7808,101.516 179.1068,99.9568 C178.9176,99.926 178.7268,99.9168 178.558,99.9272 C177.8272,99.9724 175.774,101.8656 173.7272,102.13 C171.6804,102.3944 170.2928,101.7068 168.7824,101.0448 C168.3436,100.8528 167.1732,99.8332 166.8516,99.9336 C166.8384,99.938 166.8208,99.948 166.802,99.96 C166.8688,100.7124 166.6524,101.4456 166.3196,102.3944 C165.4244,104.946 162.1132,110.0292 156.9276,110.9496 C150.5704,112.078 144.66,113.0904 136.0496,109.6404 C132.4864,108.2124 128.7036,106.9908 126.0856,105.3864 C125.3028,107.0336 124.564,109.078 124.4036,109.8124 C123.7672,112.7228 124.0828,115.4316 124.3828,117.6412 C134.9736,121.092 151.0412,123.8964 152.6308,124.6032 C155.2084,125.75 159.6524,128.0348 160.4344,130.9296 C162.9296,140.1652 155.286,155.6152 155.8904,160.1604 C156.6836,166.1304 183.2028,165.2188 186.4396,162.1656 C189.1916,159.5696 182.4828,118.5788 179.5808,105.8488 Z" id="Shape" stroke="none" fill="#006977" fill-rule="nonzero"></path>
                                <path d="M179.8216,104.2 C183.1648,100.3896 188.5804,98.1468 194.5396,99.3168 C200.3892,100.4652 202.2912,103.8568 202.5472,108.7276 C202.9096,115.648 202.792,121.6272 204.4636,128.3932 C206.3316,135.9544 212.0464,152.0392 204.1836,158.6728 C200.6156,161.6836 180.1772,160.268 176.1576,153.554 C172.138,146.84 175.1444,138.2852 175.1428,130.5332 C175.1412,122.698 172.5396,110.3272 168.5452,104.3792 C168.5444,104.3792 177.328,107.0416 179.8216,104.2 Z" id="Shape" stroke="none" fill="#3EA967" fill-rule="nonzero"></path>
                                <path d="M47.242,121.364 C47.1668,116.864 45.3156,109.5684 43.844,106.8416 C44.3716,107.1644 45.092,107.2376 45.6824,107.436 C46.9692,107.8688 54.7436,109.772 57.2852,110.628 C59.4248,111.348 80.7512,117.3232 81.062,117.8924 C80.0536,118.2496 70.4684,120.8168 61.7868,124.2748 C54.4096,127.2136 47.7072,131.1528 47.246,131.1316 C46.738,131.108 45.082,131.4888 44.9368,131.676 C44.9368,131.676 47.3168,125.8644 47.242,121.364 Z" id="Shape" stroke="none" fill="#FFC92D" fill-rule="nonzero"></path>
                            </g>
                        </g>
                    </g>
                </g>
            </g>
        </g>
    </g>
</svg>