<?xml version="1.0" encoding="UTF-8"?>
<svg width="260px" height="260px" viewBox="0 0 260 260" version="1.1" xmlns="http://www.w3.org/2000/svg" xmlns:xlink="http://www.w3.org/1999/xlink">
    <!-- Generator: sketchtool 49 (51002) - http://www.bohemiancoding.com/sketch -->
    <title>B5C206D7-ADD7-4853-91D8-C7733230CB3E</title>
    <desc>Created with sketchtool.</desc>
    <defs>
        <circle id="path-1" cx="130" cy="130" r="130"></circle>
    </defs>
    <g id="MOBILE" stroke="none" stroke-width="1" fill="none" fill-rule="evenodd">
        <g id="How-to" transform="translate(-30.000000, -1028.000000)">
            <g id="Group-2-Copy" transform="translate(16.000000, 848.000000)">
                <g id="Stacked-Group-2" transform="translate(14.000000, 36.000000)">
                    <g id="how-to-take-a-selfie" transform="translate(0.000000, 144.000000)">
                        <mask id="mask-2" fill="white">
                            <use xlink:href="#path-1"></use>
                        </mask>
                        <g id="SVGID_3_"></g>
                        <g id="Group" mask="url(#mask-2)">
                            <g transform="translate(-12.800000, -10.000000)">
                                <rect id="Rectangle-path" stroke="none" fill="#D4ECFF" fill-rule="nonzero" x="2.8" y="0" width="280" height="280"></rect>
                                <path d="M279.7092,177.5892 C263.4592,172.738 235.8936,158.0696 222.4192,156.1408 C210.1452,154.384 200.0276,155.9172 189.4696,160.3712 C180.0844,164.3308 171.1636,171.9396 165.1292,178.37 C157.5832,186.4128 154.9272,194.63 144.0832,200.8772 C122.8528,213.1096 88.6068,194.832 69.7184,187.4844 C56.1796,182.2184 42.9108,185.926 28.726,188.2972 C18.7348,189.9664 9.2704,192.6452 0.0408,195.7728 L10.6768,293.9408 L289.0476,263.7816 L279.7092,177.5892 Z" id="Shape" stroke="none" fill="#006977" fill-rule="nonzero"></path>
                                <path d="M195.0016,82.1476 L200.4752,157.5188" id="Shape" stroke="#3EA967" stroke-width="4" fill="none" stroke-linecap="round" stroke-linejoin="round"></path>
                                <path d="M201.4864,108.434 C201.04,100.2988 197.19,87.2284 194.3404,82.3964 C195.3168,82.944 196.6252,83.0272 197.7064,83.346 C200.064,84.04 214.2592,86.9484 218.9152,88.3216 C222.8352,89.4772 261.8256,98.8184 262.4284,99.8268 C260.6292,100.542 243.4648,105.8456 227.9972,112.6992 C214.8544,118.5228 203.0012,126.11 202.1656,126.1036 C201.2456,126.096 198.2748,126.8988 198.0256,127.2476 C198.0256,127.2476 201.9312,116.57 201.4864,108.434 Z" id="Shape" stroke="none" fill="#FFC92D" fill-rule="nonzero"></path>
                                <g id="Group" stroke="none" stroke-width="1" fill="none" fill-rule="evenodd" transform="translate(40.400000, 41.200000)">
                                    <path d="M124.1312,202.2856 C111.2848,203.7644 57.846,207.152 58.002,194.7108 C58.2272,177.0364 66.086,165.1004 62.9548,147.6016 C59.4544,128.044 47.576,86.1552 68.69,70.5736 C78.2712,63.5016 130.0608,70.4952 139.178,88.2516 C148.296,106.0076 139.2244,127.284 137.942,147.0172 C136.646,166.9612 148.3444,199.4996 124.1312,202.2856 Z" id="Shape" fill="#3EA967" fill-rule="nonzero"></path>
                                    <path d="M116.8056,49.8396 C116.8056,27.8548 103.1128,10.0332 86.2212,10.0332 C74.4108,10.0332 64.1656,18.7472 59.07,31.5036 C59.07,31.504 59.0696,31.504 59.0696,31.5044 C58.8764,31.9884 58.6908,32.4792 58.5124,32.9748 C56.4552,37.2976 52.0892,37.6076 48.876,43.8884 C46.254,49.0128 48.6544,57.3836 57.0556,58.9848 C58.4492,63.7056 60.708,68.252 63.0984,72.5764 C66.6148,78.9384 75.302,82.84 76.094,90.1552 C79.9704,91.5592 84.7156,91.7208 88.5324,91.7176 C92.5356,91.7144 96.2712,91.5124 99.666,90.1068 C98.3416,83.7372 107.1132,77.6564 110.3412,71.3552 C113.8148,64.5744 116.8056,57.4372 116.8056,49.8396 Z" id="Shape" fill="#FFC92D" fill-rule="nonzero"></path>
                                    <path d="M2.8488,66.8964 C2.8488,72.3964 7.3076,76.8548 12.8084,76.8548 L24.51,76.8548 C30.0088,76.8548 34.4668,72.3964 34.4668,66.8964 L34.4668,34.6972 C34.4668,29.1968 30.0088,24.7388 24.51,24.7388 L12.8084,24.7388 C7.3076,24.7388 2.8488,29.1968 2.8488,34.6972 L2.8488,66.8964 Z" id="Shape" fill="#FFFFFF" fill-rule="nonzero"></path>
                                    <path d="M162.7264,157.8104 C163.9492,165.8824 164.328,174.4688 162.2516,180.1212 C158.9864,189.02 145.0888,190.624 139.37,182.2424 C137.138,178.9708 136.2956,170.3548 135.7448,160.9084 C139.7436,158.8596 144.784,158.2484 149.1024,157.5984 C151.326,157.264 158.2672,157.618 162.7264,157.8104 Z" id="Shape" fill="#FFC92D" fill-rule="nonzero"></path>
                                    <path d="M9.8156,77.65 C5.0164,76.1084 3.0148,74.65 0.5196,73.21 C1.6256,59.8748 7.9416,48.6616 19.9112,51.9324 C30.7852,54.9036 24.3544,69.1028 22.4444,77.9716 C19.3944,78.3944 14.6212,79.1944 9.8156,77.65 Z" id="Shape" fill="#FFC92D" fill-rule="nonzero"></path>
                                    <path d="M9.8156,77.65 C14.6212,79.194 19.3944,78.3944 22.4444,77.972 C22.134,79.4192 21.942,80.724 21.9656,81.8152 C22.2376,94.262 40.0188,94.9748 50.4176,96.4544 C58.0884,97.546 76.8572,100.406 76.1312,90.496 C76.1228,90.3808 76.1068,90.2692 76.0944,90.1548 C79.9708,91.5588 84.716,91.7204 88.5328,91.7172 C92.536,91.714 96.2716,91.512 99.6664,90.1064 C99.6932,90.236 99.7172,90.3656 99.7532,90.496 C101.5312,97.008 117.5884,91.5924 124.9292,93.5924 C144.8592,99.0212 154.0636,124.7808 159.1264,141.6304 C160.336,145.6568 161.7828,151.58 162.7264,157.8104 C158.2672,157.618 151.326,157.264 149.1024,157.5984 C144.784,158.2484 139.744,158.8596 135.7448,160.9084 C134.8852,146.1536 134.7356,129.3704 131.1128,127.7608 C125.1708,125.12 123.9856,167.9972 123.4952,180.9112 C122.604,204.3988 109.1808,194.0784 103.4716,196.7984 C97.7632,199.5192 49.0688,206.794 45.7356,204.3392 C40.4692,200.4628 41.828,185.8076 42.7096,179.736 C44.8148,165.2192 46.2752,154.9228 47.9764,140.5916 C52.3168,104.0392 27.204,130.8752 9.9376,115.4428 C2.7648,109.0316 -0.4792,85.2464 0.5188,73.2104 C3.0148,74.65 5.0164,76.1084 9.8156,77.65 Z" id="Shape" fill="#006977" fill-rule="nonzero"></path>
                                    <path d="M123.9972,180.9112 C119.3464,214.5892 135.9192,238.5232 122.9008,251.0408 C115.89,257.7824 101.128,259.9548 90.7312,255.1404 C79.618,249.9924 85.018,211.2824 77.7144,209.2876 C70.4112,207.2932 79.788,244.3032 69.2888,249.192 C63.0848,252.0836 35.4348,246.2912 32.466,241.0276 C27.4112,232.0552 43.5948,173.6096 43.5948,173.6096 C92.3888,185.3984 123.9972,180.9112 123.9972,180.9112 Z" id="Shape" fill="#3EA967" fill-rule="nonzero"></path>
                                    <path d="M103.5276,30.1048 C100.806,23.9872 94.648,18.6172 78.6952,21.496 C64.066,24.1376 51.6504,20.1892 57.5096,1.3616 C62.3208,5.7692 65.35,8.4144 72.7232,7.5316 C77.262,6.988 85.1536,2.4796 90.336,1.3584 C120.2112,-5.1052 119.5684,13.3012 119.3132,21.9252 C119.1528,27.2944 119.5684,39.3608 113.2296,39.3416 C107.4628,39.3236 106.2504,36.2216 103.5276,30.1048 Z" id="Shape" fill="#006977" fill-rule="nonzero"></path>
                                </g>
                            </g>
                        </g>
                    </g>
                </g>
            </g>
        </g>
    </g>
</svg>