<?xml version="1.0" encoding="utf-8"?>
<!-- Generator: Adobe Illustrator 16.0.0, SVG Export Plug-In . SVG Version: 6.00 Build 0)  -->
<!DOCTYPE svg PUBLIC "-//W3C//DTD SVG 1.1//EN" "http://www.w3.org/Graphics/SVG/1.1/DTD/svg11.dtd">
<svg version="1.1" id="Layer_1" xmlns="http://www.w3.org/2000/svg" xmlns:xlink="http://www.w3.org/1999/xlink" x="0px" y="0px"
	 width="611px" height="1400px" viewBox="389.03 0 611 1400" enable-background="new 389.03 0 611 1400" xml:space="preserve">
<g>
	<path d="M459.122,665.106L459.122,665.106c-8.079-6.974-18.536-10.564-29.195-10.024h-0.343
		c-10.598-0.594-21.02,2.898-29.119,9.758c-7.275,7.082-11.396,16.793-11.435,26.946v6.938v6.898
		c-0.038,10.16,3.981,19.915,11.167,27.099c6.898,6.556,16.847,9.91,29.501,9.948h0.343c12.387,0,22.183-3.24,29.081-9.682
		c7.246-7.102,11.361-16.8,11.435-26.946c0-1.258,0-3.621,0-7.013c0-3.393,0-5.756,0-6.938
		C470.524,681.926,466.403,672.201,459.122,665.106z M413.767,692.777c-0.156-5.1,1.431-10.101,4.497-14.179
		c2.918-3.187,7.122-4.882,11.435-4.611l0,0c4.334-0.259,8.547,1.483,11.434,4.726c3.029,4.149,4.573,9.197,4.384,14.331
		c0,0.953,0,2.897,0,5.946c0,3.621,0,5.222,0,5.907l0,0c0.158,5.071-1.415,10.045-4.46,14.103
		c-2.916,3.182-7.129,4.854-11.435,4.535l0,0c-4.314,0.239-8.51-1.467-11.434-4.649c-3.049-4.066-4.597-9.063-4.383-14.141v-5.983
		L413.767,692.777z"/>
	<path d="M569.654,627.603h-13.569l0,0c-1.412-0.045-2.785,0.477-3.811,1.448c-1.062,0.981-1.657,2.366-1.64,3.812v30.491
		c-6.116-5.377-14.042-8.236-22.183-8.004h-0.229c-9.658-0.524-19.02,3.426-25.384,10.71c-6.227,7.91-9.622,17.68-9.643,27.747v5.26
		v5.184c-0.029,10.113,3.295,19.952,9.452,27.976c6.36,7.318,15.739,11.298,25.422,10.786h0.229
		c8.419,0.344,16.635-2.642,22.869-8.309v1.448c-0.02,1.43,0.545,2.806,1.563,3.812c0.996,1.035,2.375,1.614,3.812,1.601h12.653l0,0
		c1.438,0.022,2.821-0.558,3.812-1.601c0.976-1.027,1.509-2.396,1.487-3.812l0.495-103.403c0.026-1.417-0.508-2.787-1.486-3.812
		C572.448,627.996,571.063,627.516,569.654,627.603z M550.596,698.99c0,2.63,0,4.573,0,5.793l0,0
		c-0.137,4.748-1.705,9.345-4.497,13.188c-2.862,3.505-7.269,5.372-11.777,4.993l0,0c-10.215,0-15.475-6.289-16.084-19.058v-4.573
		v-4.649c0.724-12.769,6.021-19.058,16.122-19.058l0,0c4.491-0.302,8.864,1.518,11.815,4.917c2.844,3.504,4.403,7.874,4.421,12.387
		c-0.152,1.334-0.114,3.316-0.114,6.061H550.596z"/>
	<path d="M622.899,627.831h-13.111l0,0c-1.413-0.045-2.785,0.477-3.812,1.448c-1.061,0.981-1.656,2.366-1.639,3.812l-0.495,103.403
		c-0.001,2.975,2.399,5.392,5.374,5.412h13.11l0,0c1.438,0.023,2.821-0.558,3.812-1.601c0.976-1.027,1.509-2.396,1.487-3.812
		l0.495-103.403c0.026-1.417-0.508-2.786-1.486-3.812C625.626,628.326,624.285,627.807,622.899,627.831z"/>
	<path d="M693.982,656.264h-0.267c-11.01-0.538-21.712,3.715-29.349,11.663c-7.127,7.623-10.748,18.447-10.824,31.901v3.812
		c-0.313,10.963,3.715,21.605,11.206,29.615c7.793,7.255,18.177,11.073,28.813,10.596h0.268c6.737,0.125,13.427-1.174,19.628-3.812
		c5.044-2.089,9.59-5.219,13.34-9.186c2.773-2.608,4.518-6.124,4.917-9.91c0.052-1.364-0.559-2.671-1.639-3.506
		c-0.982-0.756-2.19-1.158-3.431-1.144h-13.759l0,0c-1.131-0.071-2.264,0.111-3.315,0.533c-1.076,0.659-2.01,1.528-2.744,2.554
		c-3.07,4.168-7.975,6.584-13.15,6.479l0,0c-4.261,0.185-8.344-1.723-10.938-5.107c-2.772-3.785-4.292-8.343-4.345-13.035
		l50.196,0.229c1.425-0.007,2.792-0.567,3.812-1.563c1.014-1.007,1.577-2.382,1.563-3.812v-3.277
		c0.594-11.309-3.095-22.427-10.329-31.14C715.969,660.041,705.13,655.694,693.982,656.264z M682.547,678.828
		c2.729-3.295,6.857-5.104,11.129-4.879l0,0c4.39-0.253,8.637,1.602,11.435,4.993c2.719,3.54,4.181,7.885,4.154,12.349h-30.834
		c0.002-4.495,1.489-8.863,4.23-12.426L682.547,678.828z"/>
	<path d="M832.641,658.475h-12.807c-1.419,0-2.783,0.546-3.812,1.524c-1.118,1.026-1.743,2.483-1.715,4.002v1.753
		c-2.325-2.263-4.986-4.153-7.89-5.603c-4.753-2.285-9.973-3.434-15.246-3.354h-0.267c-9.679-0.608-19.089,3.322-25.46,10.634
		c-6.104,7.977-9.412,17.741-9.414,27.785v4.345v4.192c-0.171,10.052,3.021,19.871,9.071,27.9
		c5.755,6.937,14.368,10.52,25.65,10.557h0.229c8.05,0.306,15.923-2.414,22.068-7.622v6.556c1.726,7.529-2.979,15.033-10.51,16.759
		c-1.919,0.44-3.909,0.47-5.841,0.087l0,0c-3.375,0.262-6.737-0.64-9.529-2.553c-2.007-1.692-3.587-3.834-4.611-6.251
		c-0.371-1.341-1.158-2.529-2.249-3.393c-0.982-0.687-2.155-1.046-3.354-1.029h-13.912l0,0c-1.41-0.032-2.778,0.487-3.812,1.448
		c-1.061,0.981-1.656,2.367-1.639,3.812c0.249,3.949,1.566,7.757,3.812,11.016c3.184,4.804,7.591,8.672,12.769,11.205
		c7.23,3.516,15.214,5.204,23.249,4.917h0.076c13.226,0,23.326-3.316,30.034-9.871c7.132-7.514,10.854-17.633,10.291-27.977
		l0.19-75.275c-0.011-1.424-0.57-2.789-1.563-3.811C835.477,659.144,834.098,658.51,832.641,658.475z M780.729,695.902
		c0.648-12.768,5.908-19.057,16.123-19.057l0,0c4.51-0.337,8.902,1.539,11.777,5.031c2.769,3.752,4.324,8.26,4.459,12.921
		c0,0.457,0,1.715,0,4.802c0.08,1.6,0.08,3.203,0,4.803l0,0c-0.161,4.64-1.76,9.114-4.574,12.807
		c-2.87,3.441-7.233,5.275-11.7,4.916l0,0c-10.978,0-16.275-7.622-16.199-22.868L780.729,695.902z"/>
	<path d="M900.407,669.261L900.407,669.261c-0.894,0.018-1.774,0.212-2.592,0.572l-2.896,1.144v-36.438
		c0.01-1.429-0.553-2.802-1.563-3.812c-1.009-1.017-2.379-1.593-3.812-1.601h-13.149c-1.411-0.033-2.778,0.487-3.812,1.448
		c-1.057,0.984-1.651,2.367-1.639,3.812l-0.229,45.736l-5.87,2.097c-1.218,0.439-2.324,1.142-3.239,2.058
		c-0.879,1.068-1.315,2.433-1.22,3.812v8.919c-0.049,1.275,0.45,2.51,1.372,3.393c1.623,1.393,3.929,1.664,5.832,0.686l3.087-1.143
		v37.732c-0.011,1.429,0.552,2.801,1.563,3.812c0.996,1.035,2.375,1.614,3.812,1.601h13.111l0,0
		c1.425-0.006,2.792-0.566,3.812-1.563c1.013-1.008,1.577-2.382,1.563-3.812l0.229-46.956l5.679-2.211
		c1.264-0.447,2.401-1.192,3.316-2.173c0.823-1.095,1.241-2.442,1.182-3.812v-8.728c0.055-1.287-0.445-2.536-1.373-3.431
		C902.695,669.645,901.567,669.237,900.407,669.261z"/>
	<path d="M991.196,666.402c-5.87-5.831-15.246-8.805-27.977-8.881h-0.305c-6.644-0.168-13.241,1.134-19.324,3.812
		c-4.659,2.001-8.766,5.101-11.968,9.033c-2.364,2.761-3.827,6.179-4.192,9.796c-0.071,1.432,0.485,2.823,1.525,3.811
		c0.953,0.885,2.206,1.375,3.506,1.373h12.196l0,0c1.708,0.089,3.267-0.971,3.812-2.592l2.325-2.325
		c1.443-1.364,3.043-2.555,4.765-3.545c2.256-1.168,4.78-1.72,7.317-1.601l0,0c3.516-0.32,7.018,0.747,9.758,2.973
		c2.131,2.489,3.174,5.729,2.896,8.995v1.829l-20.01,2.82c-8.746,0.982-17.112,4.111-24.355,9.109
		c-9.975,7.331-12.306,21.268-5.26,31.444c2.815,3.997,6.626,7.188,11.054,9.262c4.758,2.279,9.97,3.452,15.245,3.431h0.229
		c5.571,0.166,11.105-0.969,16.16-3.316c2.67-1.326,5.124-3.048,7.28-5.107v1.563c-0.021,2.968,2.368,5.391,5.336,5.412
		c0.013,0,0.025,0,0.038,0h12.959c1.435,0.004,2.81-0.573,3.812-1.601c0.961-1.033,1.48-2.401,1.448-3.812l0.229-49.015
		C1000.126,680.804,997.052,672.533,991.196,666.402z M975.683,705.546v1.182c0.406,5.554-1.418,11.04-5.069,15.245
		c-3.354,3.411-7.988,5.251-12.768,5.069l0,0c-3.183,0.081-6.316-0.795-8.995-2.516c-2.198-1.349-3.484-3.79-3.354-6.365
		c0-5.184,5.603-8.651,16.618-10.329L975.683,705.546z"/>
</g>
</svg>
