<?xml version="1.0" encoding="utf-8"?>
<!-- Generator: Adobe Illustrator 16.0.0, SVG Export Plug-In . SVG Version: 6.00 Build 0)  -->
<!DOCTYPE svg PUBLIC "-//W3C//DTD SVG 1.1//EN" "http://www.w3.org/Graphics/SVG/1.1/DTD/svg11.dtd">
<svg version="1.1" id="Layer_1" xmlns="http://www.w3.org/2000/svg" xmlns:xlink="http://www.w3.org/1999/xlink" x="0px" y="0px"
	 width="103px" height="1400px" viewBox="262.263 0 103 1400" enable-background="new 262.263 0 103 1400" xml:space="preserve">
<g>
	<path d="M359.453,728.452l-91.74-0.381l0,0c-1.41-0.028-2.776,0.49-3.812,1.448c-1.045,0.992-1.638,2.37-1.639,3.812v10.481
		c-0.009,1.436,0.569,2.813,1.601,3.812c1.025,0.979,2.396,1.513,3.812,1.486l91.665,0.419l0,0c1.424-0.01,2.789-0.57,3.811-1.563
		c1.028-1.002,1.605-2.377,1.602-3.812v-10.481c0.014-1.43-0.55-2.804-1.563-3.812C362.163,728.943,360.831,728.44,359.453,728.452z
		"/>
</g>
</svg>
