<?xml version="1.0" encoding="utf-8"?>
<!-- Generator: Adobe Illustrator 16.0.0, SVG Export Plug-In . SVG Version: 6.00 Build 0)  -->
<!DOCTYPE svg PUBLIC "-//W3C//DTD SVG 1.1//EN" "http://www.w3.org/Graphics/SVG/1.1/DTD/svg11.dtd">
<svg version="1.1" id="Layer_1" xmlns="http://www.w3.org/2000/svg" xmlns:xlink="http://www.w3.org/1999/xlink" x="0px" y="0px"
	 width="240px" height="1400px" viewBox="0 0 240 1400" enable-background="new 0 0 240 1400" xml:space="preserve">
<g>
	<path d="M48.519,653.291H48.29c-8.951-0.323-17.667,2.91-24.24,8.995v-2.173c0.022-1.416-0.512-2.784-1.486-3.812
		c-1.015-0.999-2.388-1.549-3.812-1.524H5.793c-1.41-0.032-2.778,0.487-3.812,1.448c-1.053,0.987-1.646,2.368-1.639,3.812L0,733.75
		c0,2.975,2.399,5.392,5.374,5.412h13.911l0,0c1.438,0.022,2.821-0.558,3.812-1.601c0.976-1.027,1.509-2.396,1.486-3.812
		l0.19-42.955c-0.24-4.71,1.358-9.329,4.46-12.882c2.982-3.09,7.145-4.754,11.435-4.574l0,0c4.305-0.274,8.505,1.406,11.434,4.574
		c2.837,3.739,4.194,8.395,3.812,13.073l-0.19,42.954c0,2.975,2.4,5.392,5.374,5.412h14.064l0,0c1.438,0.022,2.82-0.558,3.812-1.601
		c0.975-1.027,1.509-2.396,1.486-3.812l0.19-43.869c0.565-9.746-2.55-19.35-8.729-26.909
		C65.901,656.663,57.376,653.066,48.519,653.291z"/>
	<path d="M128.33,655.235h-13.264l0,0c-1.41-0.028-2.776,0.49-3.812,1.448c-1.054,0.986-1.647,2.368-1.639,3.812l-0.344,73.712
		c0,2.975,2.4,5.392,5.374,5.413h13.302c2.975,0,5.392-2.4,5.413-5.374l0.343-73.713c0.006-1.428-0.557-2.799-1.563-3.812
		C131.121,655.735,129.748,655.2,128.33,655.235z"/>
	<path d="M128.94,622.914h-14.369l0,0c-1.432-0.027-2.811,0.538-3.811,1.563c-1.014,1.012-1.589,2.381-1.602,3.812v11.435
		c0,2.975,2.4,5.392,5.374,5.412h14.369l0,0c1.419,0,2.784-0.546,3.812-1.524c1.081-0.974,1.704-2.356,1.715-3.812v-11.435
		c0.085-2.987-2.269-5.479-5.256-5.563c-0.09-0.002-0.181-0.003-0.271-0.001L128.94,622.914z"/>
	<path d="M199.374,654.016h-0.305c-11.009-0.539-21.712,3.715-29.348,11.662c-7.127,7.623-10.748,18.447-10.824,31.902v3.811
		c0.381,12.692,4.116,22.641,11.205,29.615c7.794,7.255,18.177,11.073,28.814,10.596h0.267c6.739,0.128,13.428-1.171,19.629-3.812
		c5.046-2.084,9.593-5.215,13.34-9.186c2.773-2.607,4.518-6.124,4.917-9.909c0.046-1.364-0.563-2.667-1.639-3.507
		c-0.979-0.764-2.189-1.167-3.431-1.144h-13.759l0,0c-1.134-0.059-2.267,0.137-3.316,0.572c-1.068,0.668-2,1.535-2.744,2.553
		c-3.062,4.179-7.971,6.598-13.149,6.479l0,0c-4.261,0.185-8.344-1.722-10.938-5.106c-2.772-3.785-4.292-8.344-4.345-13.035
		l50.158,0.229l0,0c1.426-0.002,2.794-0.563,3.812-1.563c1.014-1.008,1.577-2.383,1.563-3.812v-3.278
		c0.593-11.309-3.095-22.427-10.329-31.139C221.31,657.837,210.503,653.478,199.374,654.016z M187.941,676.579
		c2.729-3.294,6.856-5.104,11.129-4.879l0,0c4.39-0.252,8.637,1.603,11.435,4.993c2.719,3.54,4.181,7.885,4.154,12.349h-30.834
		c-0.007-4.508,1.481-8.891,4.23-12.463H187.941z"/>
</g>
</svg>
