<?xml version="1.0" encoding="UTF-8"?>
<svg width="40px" height="41px" viewBox="0 0 40 41" version="1.1" xmlns="http://www.w3.org/2000/svg" xmlns:xlink="http://www.w3.org/1999/xlink">
    <!-- Generator: sketchtool 49 (51002) - http://www.bohemiancoding.com/sketch -->
    <title>3830C148-EC6B-4CA9-86CB-58BA6A7A68C9</title>
    <desc>Created with sketchtool.</desc>
    <defs></defs>
    <g id="MOBILE" stroke="none" stroke-width="1" fill="none" fill-rule="evenodd">
        <g id="Desktop-Nie-logo" transform="translate(-248.000000, -16.000000)" fill="#231F20" fill-rule="nonzero">
            <g id="nie" transform="translate(248.000000, 16.000000)">
                <path d="M0.40552401,16.4982064 C0.333798675,16.4209638 0.297936008,16.3223414 0.297936008,16.2023394 L0.297936008,4.49317845 C0.297936008,4.36214178 0.333798675,4.25731244 0.40552401,4.17938011 C0.477249346,4.10144777 0.573113015,4.06282644 0.692425351,4.06282644 L1.48140404,4.06282644 C1.60071637,4.06282644 1.69037304,4.08696477 1.75037405,4.13455177 C1.80968538,4.18282844 1.86968638,4.24213978 1.92968738,4.31386511 L7.9366842,13.567123 L7.9366842,4.49317845 C7.9366842,4.36214178 7.97530554,4.25731244 8.05323787,4.17938011 C8.13048054,4.10144777 8.22910288,4.06282644 8.34910488,4.06282644 L9.1560149,4.06282644 C9.28774124,4.06282644 9.39188091,4.10213744 9.46981324,4.17938011 C9.54774558,4.25662278 9.58636691,4.36145211 9.58636691,4.49317845 L9.58636691,16.1844081 C9.58636691,16.3044101 9.54774558,16.4057911 9.46981324,16.4892408 C9.39188091,16.5733801 9.29325857,16.6154498 9.17394624,16.6154498 L8.36703622,16.6154498 C8.16358454,16.6154498 8.02013387,16.5320001 7.9366842,16.3644111 L1.92968738,7.20149952 L1.92968738,16.2030291 C1.92968738,16.3230311 1.89106605,16.4209638 1.81313371,16.4988961 C1.73520138,16.5768284 1.63657904,16.6161394 1.51726671,16.6161394 L0.692425351,16.6161394 C0.573113015,16.6154498 0.477249346,16.5761388 0.40552401,16.4982064 Z" id="Shape"></path>
                <path d="M31.4722495,37.8013206 C31.4005241,37.724078 31.3646615,37.624766 31.3646615,37.5054536 L31.3646615,25.795603 C31.3646615,25.6645663 31.4005241,25.559737 31.4722495,25.4818047 C31.5439748,25.404562 31.6391488,25.365251 31.7591508,25.365251 L39.128929,25.365251 C39.2599657,25.365251 39.364795,25.404562 39.4427274,25.4818047 C39.51997,25.559737 39.559281,25.6645663 39.559281,25.795603 L39.559281,26.4418207 C39.559281,26.561133 39.51997,26.6569967 39.4427274,26.728722 C39.364795,26.8004474 39.2599657,26.8356204 39.128929,26.8356204 L33.0143442,26.8356204 L33.0143442,30.8349975 L38.7344397,30.8349975 C38.8654763,30.8349975 38.9709953,30.8736188 39.048238,30.9515511 C39.1261703,31.0287938 39.1647917,31.1336231 39.1647917,31.2646598 L39.1647917,31.8750148 C39.1647917,31.9943272 39.1261703,32.0929495 39.048238,32.1708818 C38.9709953,32.2488142 38.8654763,32.2874355 38.7344397,32.2874355 L33.0143442,32.2874355 L33.0143442,36.4295736 L39.2723797,36.4295736 C39.4034164,36.4295736 39.5082457,36.4688846 39.586178,36.5461273 C39.6634207,36.6240596 39.7027317,36.7288889 39.7027317,36.8599256 L39.7027317,37.5061433 C39.7027317,37.6254556 39.660662,37.724078 39.5772124,37.8020103 C39.493073,37.8799426 39.3910024,37.918564 39.2723797,37.918564 L31.7591508,37.918564 C31.6391488,37.9171846 31.5432851,37.879253 31.4722495,37.8013206 Z" id="Shape"></path>
                <path d="M32.3343328,0.335178009 L14.9933537,17.4761538 L8.83118189,41.0448231 L26.1604367,23.9238476 L32.3343328,0.335178009 Z M10.6898336,37.8247693 L10.6905233,37.8178726 L20.5665502,20.6941385 L16.2809614,18.2196145 L30.4708535,3.55799043 L20.5665502,20.6941385 L24.8714496,23.1796973 L10.6898336,37.8247693 Z" id="Shape"></path>
            </g>
        </g>
    </g>
</svg>