<?xml version="1.0" encoding="utf-8"?>
<!-- Generator: Adobe Illustrator 16.0.0, SVG Export Plug-In . SVG Version: 6.00 Build 0)  -->
<!DOCTYPE svg PUBLIC "-//W3C//DTD SVG 1.1//EN" "http://www.w3.org/Graphics/SVG/1.1/DTD/svg11.dtd">
<svg version="1.1" id="Layer_1" xmlns="http://www.w3.org/2000/svg" xmlns:xlink="http://www.w3.org/1999/xlink" x="0px" y="0px"
	 width="149px" height="155px" viewBox="2090 622.497 149 155" enable-background="new 2090 622.497 149 155" xml:space="preserve">
<g>
	<path d="M2166.655,658.475h-12.807c-1.42,0-2.783,0.547-3.813,1.524c-1.117,1.026-1.742,2.483-1.715,4.002v1.753
		c-2.324-2.263-4.986-4.153-7.891-5.603c-4.752-2.285-9.973-3.435-15.244-3.354h-0.268c-9.68-0.607-19.09,3.322-25.461,10.634
		c-6.104,7.978-9.412,17.741-9.414,27.785v4.345v4.192c-0.17,10.052,3.021,19.871,9.072,27.9
		c5.754,6.937,14.367,10.52,25.648,10.557h0.23c8.049,0.306,15.922-2.414,22.068-7.622v6.556c1.725,7.529-2.98,15.033-10.512,16.76
		c-1.918,0.439-3.908,0.47-5.84,0.087l0,0c-3.375,0.262-6.738-0.641-9.529-2.554c-2.008-1.691-3.588-3.834-4.611-6.251
		c-0.371-1.341-1.158-2.528-2.248-3.393c-0.982-0.688-2.156-1.046-3.355-1.029h-13.912l0,0c-1.408-0.031-2.777,0.487-3.811,1.448
		c-1.063,0.981-1.656,2.367-1.639,3.812c0.248,3.949,1.564,7.758,3.811,11.017c3.184,4.804,7.592,8.672,12.77,11.205
		c7.23,3.516,15.215,5.204,23.248,4.917h0.076c13.227,0,23.326-3.316,30.035-9.871c7.131-7.514,10.854-17.633,10.291-27.977
		l0.189-75.275c-0.012-1.424-0.57-2.789-1.563-3.812C2169.49,659.144,2168.112,658.51,2166.655,658.475z M2114.742,695.902
		c0.648-12.769,5.908-19.058,16.123-19.058l0,0c4.51-0.337,8.902,1.539,11.777,5.031c2.77,3.752,4.324,8.26,4.459,12.921
		c0,0.457,0,1.715,0,4.802c0.08,1.601,0.08,3.203,0,4.804l0,0c-0.16,4.64-1.76,9.113-4.574,12.807
		c-2.869,3.441-7.232,5.275-11.699,4.916l0,0c-10.979,0-16.275-7.622-16.199-22.868L2114.742,695.902z"/>
	<path d="M2234.42,669.261L2234.42,669.261c-0.893,0.019-1.773,0.212-2.592,0.572l-2.895,1.144v-36.438
		c0.01-1.429-0.555-2.802-1.564-3.813c-1.008-1.017-2.379-1.593-3.811-1.601h-13.15c-1.41-0.033-2.777,0.487-3.813,1.448
		c-1.057,0.983-1.65,2.367-1.639,3.812l-0.229,45.736l-5.869,2.097c-1.219,0.439-2.324,1.143-3.24,2.059
		c-0.879,1.067-1.314,2.433-1.219,3.812v8.919c-0.049,1.275,0.449,2.51,1.371,3.394c1.623,1.393,3.93,1.664,5.832,0.686l3.088-1.143
		v37.731c-0.012,1.43,0.551,2.801,1.563,3.813c0.996,1.035,2.375,1.613,3.813,1.601h13.109l0,0c1.426-0.006,2.793-0.565,3.813-1.563
		c1.014-1.009,1.578-2.383,1.563-3.813l0.23-46.956l5.678-2.211c1.266-0.447,2.402-1.191,3.316-2.173
		c0.824-1.095,1.242-2.442,1.182-3.812v-8.729c0.055-1.287-0.445-2.536-1.373-3.431
		C2236.709,669.645,2235.58,669.237,2234.42,669.261z"/>
</g>
</svg>
