<?xml version="1.0" encoding="utf-8"?>
<!-- Generator: Adobe Illustrator 16.0.0, SVG Export Plug-In . SVG Version: 6.00 Build 0)  -->
<!DOCTYPE svg PUBLIC "-//W3C//DTD SVG 1.1//EN" "http://www.w3.org/Graphics/SVG/1.1/DTD/svg11.dtd">
<svg version="1.1" id="Layer_1" xmlns="http://www.w3.org/2000/svg" xmlns:xlink="http://www.w3.org/1999/xlink" x="0px" y="0px"
	 width="78px" height="155px" viewBox="2836 622.497 78 155" enable-background="new 2836 622.497 78 155" xml:space="preserve">
<path d="M2905.41,666.402c-5.871-5.831-15.246-8.806-27.977-8.881h-0.305c-6.645-0.169-13.242,1.134-19.324,3.812
	c-4.66,2.001-8.768,5.101-11.969,9.033c-2.363,2.761-3.826,6.179-4.191,9.796c-0.072,1.432,0.484,2.823,1.525,3.811
	c0.951,0.886,2.205,1.375,3.506,1.373h12.195l0,0c1.707,0.089,3.268-0.971,3.813-2.592l2.324-2.325
	c1.443-1.363,3.043-2.555,4.766-3.545c2.256-1.168,4.779-1.72,7.316-1.601l0,0c3.516-0.32,7.018,0.747,9.758,2.973
	c2.131,2.489,3.174,5.729,2.896,8.995v1.829l-20.01,2.82c-8.746,0.981-17.113,4.11-24.355,9.108
	c-9.975,7.331-12.307,21.269-5.26,31.444c2.814,3.997,6.625,7.188,11.055,9.262c4.758,2.279,9.969,3.452,15.244,3.432h0.229
	c5.572,0.166,11.105-0.97,16.16-3.316c2.67-1.326,5.125-3.048,7.281-5.107v1.563c-0.021,2.968,2.367,5.391,5.336,5.412
	c0.012,0,0.023,0,0.037,0h12.959c1.436,0.004,2.811-0.573,3.813-1.602c0.961-1.032,1.48-2.4,1.447-3.812l0.229-49.016
	C2914.34,680.804,2911.266,672.533,2905.41,666.402z M2889.897,705.546v1.183c0.406,5.554-1.418,11.039-5.068,15.244
	c-3.354,3.411-7.988,5.251-12.768,5.069l0,0c-3.184,0.081-6.316-0.795-8.996-2.516c-2.197-1.35-3.484-3.79-3.354-6.365
	c0-5.185,5.604-8.651,16.617-10.329L2889.897,705.546z"/>
</svg>
