<?xml version="1.0" encoding="utf-8"?>
<!-- Generator: Adobe Illustrator 16.0.0, SVG Export Plug-In . SVG Version: 6.00 Build 0)  -->
<!DOCTYPE svg PUBLIC "-//W3C//DTD SVG 1.1//EN" "http://www.w3.org/Graphics/SVG/1.1/DTD/svg11.dtd">
<svg version="1.1" id="Layer_1" xmlns="http://www.w3.org/2000/svg" xmlns:xlink="http://www.w3.org/1999/xlink" x="0px" y="0px"
	 width="103px" height="154.999px" viewBox="2982 622.8 103 154.999" enable-background="new 2982 622.8 103 154.999"
	 xml:space="preserve">
<path d="M3079.562,749.109L3079.562,749.109c1.41,0.027,2.781-0.49,3.818-1.449c1.045-0.99,1.618-2.369,1.62-3.811v-10.482
	c0.008-1.436-0.589-2.813-1.62-3.811c-1.025-0.98-2.402-1.514-3.818-1.486h-91.869l0,0c-1.41-0.027-2.781,0.49-3.818,1.449
	c-1.045,0.99-1.618,2.369-1.62,3.811v10.482c-0.008,1.436,0.589,2.813,1.62,3.811c1.025,0.98,2.402,1.514,3.818,1.486H3079.562z"/>
</svg>
