<?xml version="1.0" encoding="utf-8"?>
<!-- Generator: Adobe Illustrator 16.0.0, SVG Export Plug-In . SVG Version: 6.00 Build 0)  -->
<!DOCTYPE svg PUBLIC "-//W3C//DTD SVG 1.1//EN" "http://www.w3.org/Graphics/SVG/1.1/DTD/svg11.dtd">
<svg version="1.1" id="Layer_1" xmlns="http://www.w3.org/2000/svg" xmlns:xlink="http://www.w3.org/1999/xlink" x="0px" y="0px"
	 width="345px" height="154.999px" viewBox="1532.115 622.8 345 154.999" enable-background="new 1532.115 622.8 345 154.999"
	 xml:space="preserve">
<g>
	<path d="M1602.208,665.106L1602.208,665.106c-8.078-6.975-18.535-10.564-29.194-10.024h-0.343
		c-10.599-0.594-21.021,2.898-29.119,9.758c-7.275,7.082-11.396,16.793-11.436,26.946v6.938v6.898
		c-0.038,10.16,3.981,19.915,11.167,27.099c6.898,6.557,16.848,9.91,29.501,9.948h0.344c12.387,0,22.183-3.24,29.08-9.682
		c7.246-7.103,11.361-16.8,11.436-26.946c0-1.258,0-3.621,0-7.013c0-3.394,0-5.756,0-6.938
		C1613.611,681.926,1609.49,672.201,1602.208,665.106z M1556.854,692.777c-0.156-5.101,1.431-10.102,4.497-14.18
		c2.918-3.187,7.122-4.882,11.435-4.61l0,0c4.334-0.26,8.547,1.482,11.435,4.726c3.028,4.149,4.572,9.197,4.384,14.331
		c0,0.953,0,2.897,0,5.946c0,3.621,0,5.222,0,5.906l0,0c0.158,5.071-1.415,10.045-4.46,14.104
		c-2.916,3.182-7.129,4.854-11.436,4.535l0,0c-4.313,0.238-8.51-1.467-11.434-4.649c-3.049-4.065-4.597-9.063-4.383-14.141v-5.983
		L1556.854,692.777z"/>
	<path d="M1712.74,627.604h-13.569l0,0c-1.411-0.046-2.784,0.477-3.811,1.447c-1.062,0.981-1.657,2.366-1.64,3.813v30.491
		c-6.116-5.378-14.042-8.236-22.184-8.005h-0.229c-9.658-0.523-19.021,3.427-25.384,10.711c-6.228,7.909-9.622,17.68-9.644,27.746
		v5.261v5.184c-0.028,10.113,3.295,19.952,9.452,27.977c6.36,7.317,15.739,11.298,25.422,10.785h0.229
		c8.419,0.345,16.635-2.642,22.868-8.309v1.448c-0.02,1.43,0.546,2.806,1.563,3.812c0.996,1.035,2.375,1.614,3.812,1.602h12.653l0,0
		c1.438,0.021,2.821-0.559,3.813-1.602c0.976-1.026,1.509-2.396,1.486-3.812l0.495-103.403c0.026-1.417-0.508-2.787-1.485-3.812
		C1715.534,627.996,1714.15,627.516,1712.74,627.604z M1693.683,698.99c0,2.63,0,4.572,0,5.793l0,0
		c-0.137,4.748-1.705,9.345-4.497,13.188c-2.862,3.505-7.269,5.372-11.777,4.993l0,0c-10.215,0-15.475-6.289-16.084-19.058v-4.573
		v-4.649c0.725-12.769,6.021-19.058,16.122-19.058l0,0c4.491-0.302,8.864,1.519,11.815,4.917c2.844,3.504,4.403,7.874,4.421,12.387
		c-0.152,1.334-0.114,3.316-0.114,6.062L1693.683,698.99L1693.683,698.99z"/>
	<path d="M1765.986,627.831h-13.111l0,0c-1.412-0.045-2.784,0.477-3.812,1.448c-1.062,0.98-1.656,2.365-1.639,3.812l-0.495,103.403
		c-0.001,2.975,2.398,5.392,5.374,5.412h13.109l0,0c1.438,0.022,2.821-0.559,3.813-1.602c0.976-1.026,1.509-2.396,1.487-3.812
		l0.494-103.403c0.026-1.417-0.508-2.786-1.485-3.812C1768.712,628.326,1767.371,627.807,1765.986,627.831z"/>
	<path d="M1837.069,656.264h-0.267c-11.011-0.538-21.712,3.715-29.35,11.663c-7.127,7.623-10.748,18.447-10.824,31.901v3.812
		c-0.313,10.964,3.716,21.605,11.207,29.615c7.793,7.255,18.177,11.073,28.813,10.596h0.268c6.737,0.125,13.428-1.174,19.629-3.812
		c5.043-2.089,9.59-5.219,13.34-9.186c2.772-2.608,4.518-6.125,4.917-9.91c0.052-1.364-0.56-2.671-1.64-3.506
		c-0.981-0.757-2.189-1.158-3.431-1.145h-13.759l0,0c-1.131-0.071-2.264,0.111-3.315,0.533c-1.076,0.659-2.01,1.528-2.744,2.554
		c-3.069,4.168-7.975,6.584-13.149,6.479l0,0c-4.262,0.185-8.344-1.724-10.938-5.107c-2.771-3.785-4.292-8.343-4.345-13.035
		l50.196,0.229c1.425-0.007,2.792-0.567,3.812-1.563c1.014-1.007,1.577-2.382,1.563-3.812v-3.277
		c0.594-11.309-3.096-22.427-10.329-31.14C1859.056,660.041,1848.217,655.694,1837.069,656.264z M1825.634,678.828
		c2.729-3.295,6.856-5.104,11.129-4.879l0,0c4.39-0.253,8.637,1.602,11.435,4.993c2.72,3.54,4.182,7.885,4.154,12.349h-30.834
		c0.002-4.495,1.489-8.863,4.229-12.426L1825.634,678.828z"/>
</g>
</svg>
