<?xml version="1.0" encoding="utf-8"?>
<!-- Generator: Adobe Illustrator 16.0.0, SVG Export Plug-In . SVG Version: 6.00 Build 0)  -->
<!DOCTYPE svg PUBLIC "-//W3C//DTD SVG 1.1//EN" "http://www.w3.org/Graphics/SVG/1.1/DTD/svg11.dtd">
<svg version="1.1" id="Layer_1" xmlns="http://www.w3.org/2000/svg" xmlns:xlink="http://www.w3.org/1999/xlink" x="0px" y="0px"
	 width="131px" height="155px" viewBox="1193 622.497 131 155" enable-background="new 1193 622.497 131 155" xml:space="preserve">
<g>
	<path d="M1212.58,655.235h-13.265l0,0c-1.409-0.028-2.775,0.489-3.812,1.447c-1.054,0.986-1.647,2.368-1.639,3.813l-0.345,73.712
		c0,2.975,2.4,5.392,5.374,5.413h13.302c2.976,0,5.393-2.4,5.413-5.374l0.344-73.713c0.006-1.428-0.558-2.799-1.563-3.813
		C1215.371,655.735,1213.998,655.2,1212.58,655.235z"/>
	<path d="M1213.19,622.914h-14.369l0,0c-1.432-0.027-2.811,0.538-3.811,1.563c-1.014,1.013-1.589,2.382-1.602,3.813v11.435
		c0,2.976,2.399,5.393,5.374,5.412h14.368l0,0c1.419,0,2.784-0.546,3.813-1.523c1.081-0.975,1.704-2.356,1.715-3.813v-11.435
		c0.085-2.987-2.269-5.479-5.256-5.563c-0.09-0.002-0.181-0.003-0.271-0.001L1213.19,622.914z"/>
	<path d="M1283.624,654.016h-0.306c-11.009-0.539-21.712,3.716-29.348,11.662c-7.127,7.623-10.748,18.447-10.824,31.902v3.811
		c0.381,12.692,4.116,22.642,11.205,29.615c7.794,7.255,18.177,11.073,28.814,10.596h0.267c6.739,0.128,13.428-1.171,19.629-3.812
		c5.046-2.084,9.593-5.215,13.34-9.187c2.773-2.606,4.519-6.124,4.917-9.908c0.047-1.364-0.563-2.667-1.639-3.508
		c-0.979-0.764-2.188-1.167-3.431-1.144h-13.759l0,0c-1.135-0.059-2.268,0.137-3.316,0.572c-1.068,0.668-2,1.535-2.744,2.553
		c-3.062,4.179-7.971,6.598-13.149,6.479l0,0c-4.261,0.185-8.344-1.723-10.938-5.106c-2.772-3.785-4.292-8.344-4.345-13.035
		l50.157,0.229l0,0c1.427-0.002,2.795-0.563,3.813-1.563c1.014-1.008,1.577-2.383,1.563-3.812v-3.278
		c0.594-11.31-3.095-22.427-10.328-31.139C1305.56,657.837,1294.753,653.479,1283.624,654.016z M1272.191,676.579
		c2.729-3.294,6.856-5.104,11.129-4.879l0,0c4.391-0.252,8.638,1.603,11.436,4.993c2.719,3.539,4.181,7.885,4.154,12.349h-30.834
		c-0.008-4.508,1.48-8.891,4.229-12.463H1272.191L1272.191,676.579z"/>
</g>
</svg>
