<?xml version="1.0" encoding="utf-8"?>
<!-- Generator: Adobe Illustrator 16.0.0, SVG Export Plug-In . SVG Version: 6.00 Build 0)  -->
<!DOCTYPE svg PUBLIC "-//W3C//DTD SVG 1.1//EN" "http://www.w3.org/Graphics/SVG/1.1/DTD/svg11.dtd">
<svg version="1.1" id="Layer_1" xmlns="http://www.w3.org/2000/svg" xmlns:xlink="http://www.w3.org/1999/xlink" x="0px" y="0px"
	 width="81.044px" height="155px" viewBox="759.805 622.497 81.044 155" enable-background="new 759.805 622.497 81.044 155"
	 xml:space="preserve">
<path d="M808.653,653.291h-0.229c-8.951-0.323-17.667,2.91-24.24,8.995v-2.173c0.022-1.416-0.512-2.784-1.486-3.813
	c-1.015-0.999-2.388-1.549-3.812-1.523h-12.959c-1.41-0.032-2.778,0.486-3.813,1.447c-1.053,0.987-1.646,2.368-1.639,3.813
	l-0.342,73.713c0,2.975,2.398,5.392,5.374,5.412h13.911l0,0c1.438,0.021,2.82-0.559,3.812-1.602
	c0.977-1.026,1.509-2.396,1.486-3.812l0.189-42.955c-0.239-4.71,1.358-9.329,4.46-12.882c2.982-3.09,7.146-4.754,11.436-4.574l0,0
	c4.305-0.273,8.505,1.406,11.434,4.574c2.837,3.739,4.194,8.395,3.813,13.073l-0.19,42.953c0,2.976,2.4,5.393,5.374,5.412h14.064
	l0,0c1.438,0.022,2.819-0.558,3.812-1.601c0.976-1.027,1.509-2.396,1.486-3.813l0.189-43.869c0.565-9.745-2.55-19.35-8.729-26.908
	C826.034,656.663,817.51,653.066,808.653,653.291z"/>
</svg>
